<svg width="25" height="24" viewBox="0 0 25 24" fill="none" xmlns="http://www.w3.org/2000/svg">
<g clip-path="url(#clip0_884_2113)">
<path d="M19.2518 24.0001H5.94074C3.85124 24.0001 2.08753 22.4438 1.83814 20.3803L0.625999 10.3859C0.559456 9.81965 0.610413 9.24534 0.775418 8.70095C0.940422 8.15656 1.21571 7.65452 1.58313 7.22808C1.97798 6.77092 2.46266 6.40554 3.00496 6.15619C3.54727 5.90684 4.1348 5.77921 4.7286 5.78178H20.4627C21.0565 5.77943 21.644 5.90716 22.1863 6.1565C22.7285 6.40583 23.2132 6.77109 23.6082 7.22808C23.9755 7.65458 24.2507 8.15666 24.4155 8.70105C24.5803 9.24545 24.631 9.81973 24.5643 10.3859L23.3532 20.3803C23.1049 22.4438 21.3413 24.0001 19.2518 24.0001ZM4.72976 7.86612C4.42243 7.86335 4.11803 7.928 3.83681 8.05577C3.55558 8.18355 3.30395 8.37152 3.0986 8.60721C2.91956 8.81129 2.78526 9.05271 2.70481 9.31507C2.62436 9.57742 2.59967 9.85455 2.6324 10.1276L3.84454 20.122C3.96811 21.1445 4.86903 21.9157 5.94074 21.9157H19.2518C20.3235 21.9157 21.2255 21.1445 21.3491 20.122L22.5601 10.1276C22.5931 9.85454 22.5686 9.57733 22.4881 9.31493C22.4077 9.05253 22.2732 8.81112 22.0939 8.60721C21.8887 8.37167 21.6372 8.18378 21.3562 8.05601C21.0752 7.92825 20.771 7.86352 20.4639 7.86612H4.72976Z" fill="#E55530"/>
<path d="M17.2885 7.86606H7.9082V4.83451C7.90969 3.55279 8.40433 2.324 9.28358 1.41769C10.1628 0.511373 11.3549 0.00153224 12.5983 0C13.8418 0.00153224 15.0339 0.511373 15.9131 1.41769C16.7924 2.324 17.287 3.55279 17.2885 4.83451V7.86606ZM9.9303 5.78172H15.2664V4.83451C15.2655 4.1054 14.9841 3.40642 14.484 2.89086C13.9838 2.3753 13.3057 2.08526 12.5983 2.08434C11.891 2.08526 11.2129 2.3753 10.7128 2.89086C10.2126 3.40642 9.93119 4.1054 9.9303 4.83451V5.78172Z" fill="#E55530"/>
<path d="M13.4168 12.7481C13.1755 12.5832 12.8894 12.5021 12.6001 12.5165C12.3762 12.5127 12.1537 12.554 11.9452 12.6381C11.7698 12.7081 11.6149 12.8238 11.4958 12.9739C11.3892 13.1073 11.3309 13.2747 11.3307 13.4475C11.3305 13.5494 11.353 13.6499 11.3967 13.7413C11.4403 13.8327 11.5039 13.9125 11.5823 13.9744C11.8142 14.1473 12.0799 14.2659 12.3609 14.3218L13.2596 14.5534C13.8003 14.6877 14.2025 14.8942 14.4661 15.1729C14.5984 15.3138 14.7018 15.4808 14.7699 15.6638C14.838 15.8469 14.8696 16.0423 14.8627 16.2382C14.8685 16.5817 14.7712 16.9186 14.5841 17.2028C14.3797 17.4982 14.0985 17.7282 13.773 17.8663C13.369 18.0381 12.9348 18.1209 12.498 18.1095C12.1003 18.1188 11.7045 18.05 11.3318 17.9068C11.0215 17.787 10.7493 17.581 10.5455 17.3116C10.4824 17.2253 10.4268 17.1335 10.3792 17.0372C10.3446 16.9646 10.3286 16.884 10.3326 16.8032C10.3367 16.7224 10.3606 16.644 10.4022 16.5754C10.4439 16.5068 10.5017 16.4502 10.5704 16.4111C10.6391 16.3719 10.7164 16.3515 10.7949 16.3517H10.8376C10.9278 16.353 11.0158 16.381 11.091 16.4323C11.1663 16.4836 11.2257 16.5561 11.2622 16.6412C11.3311 16.7985 11.4417 16.9326 11.5813 17.0279C11.7981 17.1762 12.0969 17.2514 12.48 17.2514C12.7321 17.2571 12.9833 17.2179 13.2225 17.1356C13.4115 17.073 13.5799 16.9576 13.7089 16.8021C13.8215 16.6598 13.8816 16.4809 13.8786 16.2973C13.8806 16.1927 13.8599 16.0889 13.8181 15.9936C13.7764 15.8982 13.7145 15.8137 13.637 15.7461C13.4172 15.5726 13.1603 15.4558 12.8877 15.4056L11.9767 15.1879C11.4524 15.0629 11.0529 14.8568 10.778 14.5696C10.6433 14.431 10.5372 14.2656 10.4664 14.0834C10.3955 13.9013 10.3613 13.7062 10.3658 13.51C10.3617 13.1726 10.4607 12.8425 10.6489 12.5663C10.8479 12.2787 11.12 12.0531 11.4352 11.9144C11.8013 11.753 12.1965 11.6741 12.5945 11.6828C12.9647 11.6754 13.3322 11.7471 13.6741 11.8935C13.9689 12.0203 14.2256 12.2257 14.4178 12.4887C14.4584 12.5468 14.4959 12.6071 14.5301 12.6694C14.5705 12.742 14.5917 12.8242 14.5915 12.9079C14.5913 12.9916 14.5697 13.0738 14.529 13.1462C14.4882 13.2186 14.4297 13.2786 14.3593 13.3203C14.2889 13.3621 14.2092 13.384 14.128 13.3838V13.3838C14.0433 13.384 13.9602 13.36 13.888 13.3144C13.8158 13.2688 13.7573 13.2034 13.719 13.1256C13.6492 12.9766 13.5455 12.8471 13.4168 12.7481V12.7481Z" fill="#E55530"/>
<path d="M12.5024 18.3965C12.0694 18.4053 11.6387 18.3295 11.233 18.173C10.8781 18.0327 10.5673 17.7948 10.3343 17.4852C10.2606 17.3847 10.1955 17.2778 10.14 17.1656C10.083 17.0503 10.0559 16.9219 10.0612 16.7927C10.0665 16.6635 10.1041 16.5378 10.1703 16.428C10.2366 16.3154 10.3299 16.2224 10.4413 16.1578C10.5527 16.0933 10.6783 16.0595 10.8061 16.0597H10.8488C10.9932 16.0618 11.134 16.1066 11.2545 16.1887C11.3749 16.2708 11.47 16.3868 11.5285 16.5229C11.5768 16.6326 11.6548 16.7255 11.7531 16.7904C11.9789 16.9208 12.2363 16.9815 12.4946 16.9653C12.7146 16.9698 12.9338 16.9357 13.1428 16.8645C13.2832 16.8195 13.4087 16.7353 13.5056 16.6213C13.5796 16.5311 13.6194 16.4164 13.618 16.2983C13.6199 16.2349 13.6077 16.1719 13.5824 16.1141C13.5571 16.0563 13.5193 16.0052 13.4719 15.9648C13.2867 15.8237 13.072 15.7294 12.845 15.6892L11.9329 15.4703C11.3588 15.3349 10.9094 15.0998 10.5983 14.7756C10.4377 14.6101 10.3113 14.4129 10.2266 14.1958C10.1418 13.9787 10.1005 13.7462 10.1051 13.5122C10.1022 13.1152 10.2201 12.7273 10.4422 12.4029C10.6711 12.072 10.984 11.8124 11.3465 11.6525C11.7488 11.4737 12.1834 11.3849 12.6215 11.392C13.0304 11.3835 13.4367 11.4623 13.8146 11.6236C14.1547 11.7726 14.4502 12.0125 14.6705 12.3184C14.7186 12.3853 14.7625 12.4553 14.802 12.5279C14.868 12.6442 14.9027 12.7765 14.9027 12.9112C14.9027 13.0459 14.868 13.1782 14.802 13.2945C14.7374 13.4108 14.6439 13.5073 14.5312 13.574C14.4185 13.6408 14.2905 13.6754 14.1605 13.6743C14.0239 13.6748 13.8899 13.6361 13.7734 13.5624C13.6569 13.4888 13.5627 13.3832 13.5011 13.2575C13.4486 13.15 13.3715 13.0574 13.2764 12.9877C13.0821 12.8615 12.8541 12.8016 12.6249 12.8163C12.4376 12.8127 12.2514 12.8465 12.0767 12.9159C11.9452 12.9666 11.829 13.0521 11.7396 13.1637C11.6727 13.2462 11.6358 13.3502 11.6351 13.4578C11.6347 13.517 11.6481 13.5754 11.6741 13.6282C11.7001 13.681 11.738 13.7266 11.7846 13.7612C11.9841 13.9058 12.2112 14.0049 12.4508 14.0518L13.3495 14.2834C13.9381 14.4305 14.3897 14.6655 14.6908 14.9782C14.8492 15.1466 14.973 15.3462 15.0549 15.565C15.1367 15.7839 15.1749 16.0175 15.1671 16.252C15.1721 16.6531 15.058 17.0462 14.8402 17.3787C14.6062 17.7192 14.2838 17.9849 13.91 18.1452C13.463 18.3297 12.9835 18.4153 12.5024 18.3965V18.3965ZM10.8016 16.6387C10.77 16.6387 10.7388 16.6471 10.7113 16.6631C10.6837 16.6791 10.6607 16.7022 10.6443 16.7302C10.6282 16.7558 10.619 16.7854 10.6176 16.816C10.6162 16.8465 10.6228 16.8768 10.6365 16.9039C10.676 16.9853 10.7226 17.0628 10.7758 17.1355C10.9479 17.3634 11.1782 17.5374 11.4408 17.638C11.7805 17.7667 12.1406 17.8284 12.5024 17.8198C12.8997 17.8308 13.2949 17.7567 13.6629 17.6021C13.9408 17.4852 14.1813 17.2902 14.3571 17.0394C14.5102 16.8025 14.5887 16.5226 14.5818 16.2381C14.5886 16.0797 14.5641 15.9216 14.5098 15.7733C14.4556 15.6251 14.3727 15.4897 14.2662 15.3754C14.0415 15.1438 13.6786 14.9562 13.1933 14.8346L12.289 14.603C11.9663 14.5371 11.662 14.3979 11.3981 14.1954C11.288 14.1063 11.1991 13.9925 11.138 13.8627C11.0768 13.7329 11.0452 13.5905 11.0454 13.4462C11.045 13.2083 11.1244 12.9776 11.27 12.7931C11.4207 12.6032 11.6165 12.4568 11.8385 12.3681C12.0806 12.2701 12.3389 12.2217 12.599 12.2257C12.947 12.2099 13.2908 12.3084 13.5809 12.5071V12.5071C13.7475 12.6313 13.8827 12.7949 13.9752 12.9842C13.99 13.0143 14.0127 13.0396 14.0407 13.0572C14.0686 13.0748 14.1008 13.084 14.1336 13.0838C14.1654 13.0842 14.1968 13.0758 14.2245 13.0595C14.2521 13.0432 14.275 13.0196 14.2908 12.9911C14.3071 12.9625 14.3157 12.9299 14.3157 12.8968C14.3157 12.8636 14.3071 12.831 14.2908 12.8024C14.2627 12.7494 14.2308 12.6987 14.1953 12.6507C14.0337 12.4275 13.8163 12.2538 13.5663 12.1481C13.2598 12.0179 12.9305 11.9544 12.599 11.9617C12.2403 11.9547 11.8843 12.0261 11.5543 12.1713C11.285 12.2893 11.052 12.4807 10.8803 12.7248C10.7253 12.9525 10.6443 13.2249 10.6488 13.503C10.6442 13.6616 10.6712 13.8195 10.7282 13.9669C10.7852 14.1143 10.871 14.248 10.9803 14.3598C11.2162 14.6053 11.5734 14.7871 12.0418 14.8983L12.954 15.1172C13.2719 15.1765 13.5709 15.3152 13.8246 15.5213C13.9319 15.6163 14.0176 15.7344 14.0758 15.8672C14.134 16.0001 14.1634 16.1444 14.1617 16.2902C14.1647 16.5396 14.0828 16.7821 13.9302 16.9757C13.769 17.1734 13.5573 17.3206 13.3191 17.4007C13.0493 17.4949 12.7659 17.5407 12.4811 17.5361C12.0452 17.5361 11.6947 17.4447 11.4285 17.264C11.2456 17.1391 11.1004 16.9638 11.0094 16.758C10.9956 16.723 10.9722 16.6929 10.9421 16.6713C10.912 16.6498 10.8765 16.6376 10.8398 16.6364L10.8016 16.6387Z" fill="#E55530"/>
<path d="M12.6008 12.2536C12.4518 12.2536 12.309 12.1926 12.2036 12.084C12.0983 11.9754 12.0391 11.8281 12.0391 11.6746V10.6093C12.0391 10.4557 12.0983 10.3084 12.2036 10.1999C12.309 10.0913 12.4518 10.0303 12.6008 10.0303C12.7497 10.0303 12.8926 10.0913 12.9979 10.1999C13.1033 10.3084 13.1624 10.4557 13.1624 10.6093V11.6746C13.1624 11.8281 13.1033 11.9754 12.9979 12.084C12.8926 12.1926 12.7497 12.2536 12.6008 12.2536Z" fill="#E55530"/>
<path d="M12.6008 19.7514C12.4518 19.7514 12.309 19.6904 12.2036 19.5818C12.0983 19.4732 12.0391 19.3259 12.0391 19.1724V18.1071C12.0391 17.9535 12.0983 17.8062 12.2036 17.6977C12.309 17.5891 12.4518 17.5281 12.6008 17.5281C12.7497 17.5281 12.8926 17.5891 12.9979 17.6977C13.1033 17.8062 13.1624 17.9535 13.1624 18.1071V19.1724C13.1624 19.3259 13.1033 19.4732 12.9979 19.5818C12.8926 19.6904 12.7497 19.7514 12.6008 19.7514V19.7514Z" fill="#E55530"/>
</g>
<defs>
<clipPath id="clip0_884_2113">
<rect width="24" height="24" fill="white" transform="translate(0.597656)"/>
</clipPath>
</defs>
</svg>
