<svg width="25" height="24" viewBox="0 0 25 24" fill="none" xmlns="http://www.w3.org/2000/svg">
<g clip-path="url(#clip0_697_2009)">
<path d="M19.2186 24.0001H5.90754C3.81804 24.0001 2.05432 22.4438 1.80493 20.3803L0.592795 10.3859C0.526253 9.81965 0.57721 9.24534 0.742214 8.70095C0.907219 8.15656 1.18251 7.65452 1.54992 7.22808C1.94478 6.77092 2.42946 6.40554 2.97176 6.15619C3.51406 5.90684 4.1016 5.77921 4.6954 5.78178H20.4295C21.0233 5.77943 21.6108 5.90716 22.1531 6.1565C22.6953 6.40583 23.18 6.77109 23.575 7.22808C23.9423 7.65458 24.2175 8.15666 24.3823 8.70105C24.5471 9.24545 24.5978 9.81973 24.5311 10.3859L23.32 20.3803C23.0717 22.4438 21.3081 24.0001 19.2186 24.0001ZM4.69655 7.86612C4.38923 7.86335 4.08483 7.928 3.8036 8.05577C3.52238 8.18355 3.27075 8.37152 3.0654 8.60721C2.88636 8.81129 2.75205 9.05271 2.67161 9.31507C2.59116 9.57742 2.56647 9.85455 2.5992 10.1276L3.81134 20.122C3.93491 21.1445 4.83583 21.9157 5.90754 21.9157H19.2186C20.2903 21.9157 21.1923 21.1445 21.3159 20.122L22.5269 10.1276C22.5599 9.85454 22.5354 9.57733 22.4549 9.31493C22.3745 9.05253 22.24 8.81112 22.0607 8.60721C21.8555 8.37167 21.604 8.18378 21.323 8.05601C21.042 7.92825 20.7378 7.86352 20.4307 7.86612H4.69655Z" fill="#E55530"/>
<path d="M17.2553 7.86606H7.875V4.83451C7.87649 3.55279 8.37113 2.324 9.25038 1.41769C10.1296 0.511373 11.3217 0.00153224 12.5651 0C13.8086 0.00153224 15.0007 0.511373 15.8799 1.41769C16.7592 2.324 17.2538 3.55279 17.2553 4.83451V7.86606ZM9.89709 5.78172H15.2332V4.83451C15.2323 4.1054 14.9509 3.40642 14.4508 2.89086C13.9506 2.3753 13.2725 2.08526 12.5651 2.08434C11.8578 2.08526 11.1797 2.3753 10.6796 2.89086C10.1794 3.40642 9.89798 4.1054 9.89709 4.83451V5.78172Z" fill="#E55530"/>
<path d="M13.3836 12.7481C13.1423 12.5832 12.8562 12.5021 12.5669 12.5165C12.343 12.5127 12.1205 12.554 11.912 12.6381C11.7366 12.7081 11.5817 12.8238 11.4626 12.9739C11.356 13.1073 11.2977 13.2747 11.2975 13.4475C11.2973 13.5494 11.3198 13.6499 11.3635 13.7413C11.4071 13.8327 11.4707 13.9125 11.5491 13.9744C11.781 14.1473 12.0467 14.2659 12.3277 14.3218L13.2264 14.5534C13.7671 14.6877 14.1693 14.8942 14.4329 15.1729C14.5652 15.3138 14.6686 15.4808 14.7367 15.6638C14.8048 15.8469 14.8364 16.0423 14.8295 16.2382C14.8353 16.5817 14.738 16.9186 14.5509 17.2028C14.3465 17.4982 14.0653 17.7282 13.7397 17.8663C13.3358 18.0381 12.9016 18.1209 12.4647 18.1095C12.0671 18.1188 11.6713 18.05 11.2986 17.9068C10.9883 17.787 10.7161 17.581 10.5123 17.3116C10.4492 17.2253 10.3936 17.1335 10.346 17.0372C10.3114 16.9646 10.2954 16.884 10.2994 16.8032C10.3035 16.7224 10.3274 16.644 10.369 16.5754C10.4106 16.5068 10.4685 16.4502 10.5372 16.4111C10.6059 16.3719 10.6832 16.3515 10.7617 16.3517H10.8044C10.8946 16.353 10.9826 16.381 11.0578 16.4323C11.1331 16.4836 11.1925 16.5561 11.229 16.6412C11.2979 16.7985 11.4085 16.9326 11.548 17.0279C11.7649 17.1762 12.0637 17.2514 12.4468 17.2514C12.6989 17.2571 12.9501 17.2179 13.1893 17.1356C13.3783 17.073 13.5467 16.9576 13.6757 16.8021C13.7883 16.6598 13.8484 16.4809 13.8454 16.2973C13.8474 16.1927 13.8267 16.0889 13.7849 15.9936C13.7432 15.8982 13.6813 15.8137 13.6038 15.7461C13.384 15.5726 13.1271 15.4558 12.8545 15.4056L11.9435 15.1879C11.4192 15.0629 11.0197 14.8568 10.7448 14.5696C10.6101 14.431 10.504 14.2656 10.4332 14.0834C10.3623 13.9013 10.3281 13.7062 10.3326 13.51C10.3285 13.1726 10.4275 12.8425 10.6157 12.5663C10.8147 12.2787 11.0868 12.0531 11.402 11.9144C11.7681 11.753 12.1633 11.6741 12.5613 11.6828C12.9315 11.6754 13.299 11.7471 13.6409 11.8935C13.9357 12.0203 14.1924 12.2257 14.3846 12.4887C14.4252 12.5468 14.4627 12.6071 14.4969 12.6694C14.5373 12.742 14.5585 12.8242 14.5583 12.9079C14.5581 12.9916 14.5365 13.0738 14.4958 13.1462C14.455 13.2186 14.3965 13.2786 14.3261 13.3203C14.2557 13.3621 14.1759 13.384 14.0948 13.3838V13.3838C14.0101 13.384 13.927 13.36 13.8548 13.3144C13.7826 13.2688 13.7241 13.2034 13.6858 13.1256C13.616 12.9766 13.5123 12.8471 13.3836 12.7481V12.7481Z" fill="#E55530"/>
<path d="M12.4692 18.3966C12.0362 18.4055 11.6055 18.3296 11.1998 18.1731C10.8449 18.0328 10.5341 17.7949 10.3011 17.4853C10.2274 17.3849 10.1623 17.2779 10.1068 17.1657C10.0498 17.0505 10.0227 16.922 10.028 16.7928C10.0333 16.6636 10.0709 16.538 10.1371 16.4281C10.2034 16.3155 10.2967 16.2225 10.4081 16.158C10.5195 16.0935 10.6451 16.0597 10.7729 16.0599H10.8156C10.96 16.062 11.1008 16.1067 11.2213 16.1888C11.3417 16.2709 11.4368 16.3869 11.4953 16.523C11.5435 16.6327 11.6216 16.7256 11.7199 16.7905C11.9457 16.921 12.2031 16.9817 12.4614 16.9654C12.6814 16.9699 12.9006 16.9358 13.1096 16.8646C13.25 16.8196 13.3755 16.7355 13.4724 16.6215C13.5464 16.5312 13.5862 16.4165 13.5848 16.2984C13.5867 16.235 13.5745 16.172 13.5492 16.1142C13.5239 16.0564 13.4861 16.0053 13.4387 15.9649C13.2535 15.8239 13.0388 15.7295 12.8118 15.6893L11.8997 15.4705C11.3256 15.335 10.8762 15.0999 10.5651 14.7757C10.4045 14.6102 10.2781 14.413 10.1934 14.1959C10.1086 13.9788 10.0673 13.7463 10.0719 13.5123C10.069 13.1153 10.1869 12.7274 10.409 12.403C10.6379 12.0722 10.9508 11.8126 11.3133 11.6526C11.7156 11.4738 12.1502 11.385 12.5883 11.3921C12.9972 11.3836 13.4034 11.4624 13.7814 11.6237C14.1215 11.7727 14.417 12.0126 14.6373 12.3185C14.6854 12.3854 14.7293 12.4554 14.7688 12.5281C14.8347 12.6444 14.8695 12.7766 14.8695 12.9114C14.8695 13.0461 14.8347 13.1783 14.7688 13.2946C14.7042 13.4109 14.6107 13.5074 14.498 13.5742C14.3853 13.6409 14.2573 13.6755 14.1273 13.6745C13.9907 13.6749 13.8567 13.6362 13.7402 13.5625C13.6237 13.4889 13.5295 13.3833 13.4679 13.2576C13.4154 13.1502 13.3383 13.0576 13.2432 12.9878C13.0489 12.8616 12.8209 12.8017 12.5917 12.8164C12.4044 12.8128 12.2182 12.8466 12.0435 12.916C11.912 12.9668 11.7958 13.0522 11.7064 13.1638C11.6395 13.2464 11.6026 13.3503 11.6019 13.4579C11.6015 13.5171 11.6149 13.5755 11.6409 13.6283C11.6669 13.6811 11.7048 13.7267 11.7514 13.7613C11.9508 13.9059 12.178 14.005 12.4175 14.0519L13.3163 14.2835C13.9049 14.4306 14.3565 14.6657 14.6576 14.9783C14.816 15.1467 14.9398 15.3463 15.0217 15.5652C15.1035 15.784 15.1417 16.0177 15.1339 16.2521C15.1389 16.6532 15.0248 17.0463 14.807 17.3788C14.573 17.7193 14.2506 17.985 13.8768 18.1454C13.4298 18.3298 12.9503 18.4154 12.4692 18.3966V18.3966ZM10.7684 16.6388C10.7368 16.6388 10.7056 16.6472 10.6781 16.6632C10.6505 16.6792 10.6274 16.7024 10.6111 16.7303C10.595 16.756 10.5858 16.7856 10.5844 16.8161C10.583 16.8466 10.5896 16.8769 10.6033 16.904C10.6428 16.9854 10.6894 17.0629 10.7426 17.1356C10.9147 17.3635 11.145 17.5375 11.4076 17.6382C11.7473 17.7669 12.1074 17.8285 12.4692 17.82C12.8665 17.831 13.2616 17.7568 13.6297 17.6023C13.9076 17.4853 14.1481 17.2903 14.3239 17.0395C14.477 16.8026 14.5555 16.5228 14.5486 16.2382C14.5554 16.0799 14.5309 15.9218 14.4766 15.7735C14.4223 15.6252 14.3395 15.4898 14.233 15.3755C14.0083 15.1439 13.6454 14.9563 13.1601 14.8347L12.2558 14.6031C11.9331 14.5372 11.6288 14.398 11.3649 14.1955C11.2548 14.1064 11.1659 13.9927 11.1048 13.8629C11.0436 13.7331 11.012 13.5906 11.0122 13.4463C11.0118 13.2084 11.0911 12.9777 11.2368 12.7932C11.3875 12.6033 11.5833 12.4569 11.8053 12.3683C12.0474 12.2702 12.3057 12.2218 12.5658 12.2258C12.9138 12.21 13.2576 12.3086 13.5477 12.5072V12.5072C13.7143 12.6314 13.8495 12.795 13.942 12.9843C13.9568 13.0144 13.9795 13.0397 14.0075 13.0573C14.0354 13.0749 14.0676 13.0841 14.1004 13.0839C14.1322 13.0843 14.1636 13.0759 14.1913 13.0596C14.2189 13.0434 14.2418 13.0197 14.2576 12.9913C14.2739 12.9626 14.2825 12.9301 14.2825 12.8969C14.2825 12.8637 14.2739 12.8311 14.2576 12.8025C14.2295 12.7496 14.1976 12.6989 14.1621 12.6508C14.0005 12.4276 13.7831 12.2539 13.5331 12.1483C13.2266 12.018 12.8972 11.9546 12.5658 11.9618C12.2071 11.9548 11.8511 12.0262 11.5211 12.1714C11.2518 12.2894 11.0188 12.4808 10.8471 12.7249C10.6921 12.9526 10.6111 13.225 10.6156 13.5031C10.611 13.6617 10.638 13.8196 10.695 13.967C10.752 14.1144 10.8378 14.2482 10.9471 14.36C11.183 14.6055 11.5402 14.7873 12.0086 14.8984L12.9208 15.1173C13.2387 15.1766 13.5376 15.3154 13.7914 15.5214C13.8987 15.6164 13.9844 15.7345 14.0426 15.8673C14.1008 16.0002 14.1302 16.1445 14.1285 16.2903C14.1315 16.5397 14.0496 16.7823 13.897 16.9758C13.7358 17.1735 13.5241 17.3207 13.2859 17.4008C13.0161 17.495 12.7327 17.5408 12.4479 17.5363C12.012 17.5363 11.6615 17.4448 11.3953 17.2641C11.2124 17.1392 11.0672 16.9639 10.9762 16.7581C10.9624 16.7231 10.939 16.693 10.9089 16.6715C10.8788 16.6499 10.8433 16.6377 10.8066 16.6365L10.7684 16.6388Z" fill="#E55530"/>
<path d="M12.5676 12.2536C12.4186 12.2536 12.2758 12.1926 12.1704 12.084C12.0651 11.9754 12.0059 11.8281 12.0059 11.6746V10.6093C12.0059 10.4557 12.0651 10.3084 12.1704 10.1999C12.2758 10.0913 12.4186 10.0303 12.5676 10.0303C12.7165 10.0303 12.8594 10.0913 12.9647 10.1999C13.0701 10.3084 13.1292 10.4557 13.1292 10.6093V11.6746C13.1292 11.8281 13.0701 11.9754 12.9647 12.084C12.8594 12.1926 12.7165 12.2536 12.5676 12.2536Z" fill="#E55530"/>
<path d="M12.5676 19.7514C12.4186 19.7514 12.2758 19.6904 12.1704 19.5818C12.0651 19.4732 12.0059 19.3259 12.0059 19.1724V18.1071C12.0059 17.9535 12.0651 17.8062 12.1704 17.6977C12.2758 17.5891 12.4186 17.5281 12.5676 17.5281C12.7165 17.5281 12.8594 17.5891 12.9647 17.6977C13.0701 17.8062 13.1292 17.9535 13.1292 18.1071V19.1724C13.1292 19.3259 13.0701 19.4732 12.9647 19.5818C12.8594 19.6904 12.7165 19.7514 12.5676 19.7514V19.7514Z" fill="#E55530"/>
</g>
<defs>
<clipPath id="clip0_697_2009">
<rect width="24" height="24" fill="white" transform="translate(0.564453)"/>
</clipPath>
</defs>
</svg>
