<svg width="44" height="41" viewBox="0 0 44 41" fill="none" xmlns="http://www.w3.org/2000/svg">
<path fill-rule="evenodd" clip-rule="evenodd" d="M19.3894 30.9034C19.8995 31.103 20.4299 31.2364 20.9687 31.3016V32.8868C20.9687 33.1914 21.0846 33.4836 21.2907 33.699C21.4967 33.9144 21.7761 34.0355 22.0676 34.0355C22.359 34.0355 22.6385 33.9144 22.8446 33.699C23.0506 33.4836 23.1664 33.1914 23.1664 32.8868V31.2673C23.6652 31.1858 24.155 31.0455 24.6262 30.8483C25.3574 30.5301 25.9881 30.003 26.4459 29.3274C26.872 28.6678 27.0952 27.8879 27.0855 27.0921C27.1007 26.627 27.026 26.1634 26.8659 25.7292C26.7058 25.295 26.4635 24.899 26.1536 24.5649C25.5647 23.9446 24.6812 23.4783 23.5297 23.1865L21.7716 22.727C21.3029 22.6338 20.8586 22.4373 20.4683 22.1504C20.3772 22.0818 20.3031 21.9913 20.2522 21.8866C20.2014 21.7819 20.1752 21.6659 20.176 21.5485C20.1773 21.3351 20.2496 21.1288 20.3805 20.965C20.5553 20.7436 20.7826 20.5741 21.0397 20.4733C21.3817 20.3357 21.7458 20.2686 22.1122 20.2757C22.5606 20.2466 23.0066 20.3655 23.3869 20.6158C23.5728 20.7542 23.7237 20.9379 23.8264 21.151C23.9468 21.4005 24.1312 21.61 24.3591 21.7561C24.5869 21.9022 24.849 21.979 25.1163 21.9781C25.3706 21.9802 25.621 21.9115 25.8415 21.7791C26.062 21.6467 26.2449 21.4553 26.3713 21.2246C26.5003 20.9938 26.5682 20.7314 26.5682 20.4641C26.5682 20.1969 26.5003 19.9344 26.3713 19.7037C26.2941 19.5595 26.2081 19.4207 26.114 19.2879C25.683 18.681 25.105 18.2052 24.4395 17.9094C24.0293 17.7319 23.6021 17.6047 23.1664 17.5296V15.8962C23.1664 15.5916 23.0506 15.2994 22.8446 15.084C22.6385 14.8686 22.359 14.7476 22.0676 14.7476C21.7761 14.7476 21.4967 14.8686 21.2907 15.084C21.0846 15.2994 20.9687 15.5916 20.9687 15.8962V17.5435C20.5033 17.6284 20.0476 17.7702 19.6113 17.9669C18.9022 18.2842 18.2902 18.7992 17.8422 19.4556C17.4078 20.0991 17.1772 20.8688 17.1829 21.6565C17.1739 22.1206 17.2547 22.5819 17.4205 23.0126C17.5863 23.4434 17.8336 23.8346 18.1476 24.1629C18.7564 24.8062 19.6355 25.2725 20.7585 25.5413L22.5429 25.9755C22.9869 26.0552 23.4069 26.2425 23.7692 26.5223C23.8619 26.6025 23.9359 26.7038 23.9854 26.8185C24.0349 26.9332 24.0588 27.0582 24.0549 27.184C24.0578 27.4183 23.9798 27.6459 23.8352 27.8249C23.6456 28.0511 23.4 28.218 23.1253 28.3074C22.7165 28.4486 22.2878 28.5162 21.8573 28.5072C21.352 28.5395 20.8485 28.4191 20.4068 28.1603C20.2144 28.0315 20.0618 27.8472 19.9673 27.6296C19.853 27.3596 19.667 27.1294 19.4313 26.9666C19.1957 26.8037 18.9202 26.7149 18.6377 26.7107H18.5542C18.3043 26.7103 18.0585 26.7774 17.8406 26.9053C17.6227 27.0333 17.4401 27.2179 17.3104 27.4413C17.1809 27.6592 17.1074 27.9085 17.097 28.1648C17.0866 28.4212 17.1397 28.676 17.2511 28.9047C17.3598 29.1273 17.487 29.3395 17.6313 29.5388C18.087 30.153 18.6951 30.625 19.3894 30.9034Z" fill="#E55530"/>
<path fill-rule="evenodd" clip-rule="evenodd" d="M2.10731 16.3711C1.45579 14.279 3.01909 12.1548 5.21033 12.1548H22.0552H22.0915H38.9364C41.1277 12.1548 42.691 14.279 42.0395 16.3711L35.6872 36.7691C35.2642 38.1275 34.0069 39.0528 32.5842 39.0528H22.0915H22.0552H11.5626C10.1399 39.0528 8.88257 38.1275 8.45956 36.7691L2.10731 16.3711ZM22.0552 40.5528H11.5626C9.48326 40.5528 7.64564 39.2004 7.0274 37.2151L0.675147 16.8171C-0.277078 13.7594 2.00775 10.6548 5.21033 10.6548H22.0552H22.0915H38.9364C42.139 10.6548 44.4238 13.7594 43.4716 16.8171L37.1194 37.2151C36.5011 39.2004 34.6635 40.5528 32.5842 40.5528H22.0915H22.0552Z" fill="#E55530"/>
<path d="M21.4551 0.895996H22.6533C26.1051 0.895996 28.9033 3.69422 28.9033 7.146V11.2029H15.2051V7.14599C15.2051 3.69421 18.0033 0.895996 21.4551 0.895996Z" stroke="#E55530" stroke-width="1.5"/>
</svg>
