<svg width="24" height="24" viewBox="0 0 24 24" fill="none" xmlns="http://www.w3.org/2000/svg">
<g clip-path="url(#clip0_534_2447)">
<path d="M18.6541 24H5.34308C3.25359 24 1.48987 22.4437 1.24048 20.3802L0.0283423 10.3858C-0.0382004 9.81959 0.0127568 9.24528 0.177761 8.70089C0.342766 8.1565 0.618055 7.65446 0.985469 7.22802C1.38033 6.77086 1.86501 6.40548 2.40731 6.15613C2.94961 5.90678 3.53714 5.77915 4.13095 5.78172H19.8651C20.4589 5.77937 21.0463 5.9071 21.5886 6.15644C22.1309 6.40577 22.6156 6.77103 23.0106 7.22802C23.3778 7.65452 23.653 8.1566 23.8178 8.70099C23.9827 9.24539 24.0334 9.81967 23.9666 10.3858L22.7556 20.3802C22.5073 22.4437 20.7436 24 18.6541 24ZM4.1321 7.86605C3.82478 7.86329 3.52038 7.92794 3.23915 8.05571C2.95792 8.18349 2.7063 8.37146 2.50094 8.60715C2.3219 8.81123 2.1876 9.05265 2.10715 9.31501C2.02671 9.57736 2.00202 9.85449 2.03475 10.1276L3.24689 20.122C3.37046 21.1445 4.27138 21.9157 5.34308 21.9157H18.6541C19.7258 21.9157 20.6279 21.1445 20.7515 20.122L21.9624 10.1276C21.9955 9.85448 21.9709 9.57727 21.8905 9.31487C21.81 9.05246 21.6755 8.81106 21.4962 8.60715C21.291 8.37161 21.0396 8.18372 20.7585 8.05595C20.4775 7.92818 20.1734 7.86345 19.8662 7.86605H4.1321Z" fill="#FF5C00"/>
<path d="M16.6908 7.86606H7.31055V4.83451C7.31203 3.55279 7.80668 2.324 8.68593 1.41769C9.56517 0.511373 10.7572 0.00153224 12.0007 0C13.2441 0.00153224 14.4362 0.511373 15.3155 1.41769C16.1947 2.324 16.6893 3.55279 16.6908 4.83451V7.86606ZM9.33264 5.78172H14.6687V4.83451C14.6678 4.1054 14.3865 3.40642 13.8863 2.89086C13.3861 2.3753 12.708 2.08526 12.0007 2.08434C11.2933 2.08526 10.6153 2.3753 10.1151 2.89086C9.61495 3.40642 9.33353 4.1054 9.33264 4.83451V5.78172Z" fill="#FF5C00"/>
<path d="M12.8192 12.748C12.5778 12.5832 12.2917 12.502 12.0025 12.5164C11.7786 12.5126 11.5561 12.5539 11.3475 12.638C11.1721 12.708 11.0173 12.8237 10.8982 12.9738C10.7916 13.1072 10.7332 13.2746 10.7331 13.4475C10.7328 13.5493 10.7554 13.6499 10.799 13.7413C10.8427 13.8327 10.9062 13.9124 10.9847 13.9743C11.2165 14.1473 11.4822 14.2658 11.7632 14.3217L12.6619 14.5533C13.2027 14.6876 13.6048 14.8941 13.8685 15.1728C14.0008 15.3137 14.1041 15.4807 14.1722 15.6638C14.2404 15.8468 14.2719 16.0422 14.265 16.2382C14.2708 16.5816 14.1735 16.9185 13.9864 17.2027C13.782 17.4982 13.5008 17.7282 13.1753 17.8663C12.7714 18.038 12.3371 18.1208 11.9003 18.1094C11.5027 18.1187 11.1069 18.0499 10.7342 17.9068C10.4238 17.7869 10.1517 17.5809 9.94781 17.3116C9.88473 17.2253 9.8291 17.1335 9.78155 17.0371C9.74698 16.9645 9.73096 16.884 9.73498 16.8032C9.73901 16.7224 9.76299 16.6439 9.80459 16.5753C9.8462 16.5067 9.90406 16.4502 9.97277 16.411C10.0415 16.3719 10.1187 16.3514 10.1972 16.3516H10.2399C10.3301 16.353 10.4181 16.381 10.4934 16.4323C10.5686 16.4836 10.6281 16.5561 10.6646 16.6411C10.7334 16.7985 10.844 16.9325 10.9836 17.0279C11.2004 17.1761 11.4992 17.2514 11.8823 17.2514C12.1344 17.2571 12.3856 17.2179 12.6248 17.1356C12.8138 17.073 12.9822 16.9575 13.1113 16.8021C13.2239 16.6597 13.284 16.4809 13.2809 16.2972C13.2829 16.1926 13.2623 16.0889 13.2205 15.9935C13.1787 15.8982 13.1168 15.8136 13.0394 15.746C12.8195 15.5725 12.5626 15.4558 12.2901 15.4056L11.379 15.1879C10.8548 15.0628 10.4552 14.8567 10.1804 14.5695C10.0456 14.4309 9.93958 14.2655 9.86871 14.0834C9.79784 13.9012 9.76363 13.7062 9.76811 13.51C9.76403 13.1726 9.86307 12.8424 10.0512 12.5662C10.2503 12.2786 10.5223 12.053 10.8376 11.9143C11.2036 11.753 11.5989 11.674 11.9969 11.6827C12.367 11.6753 12.7346 11.7471 13.0765 11.8935C13.3712 12.0202 13.628 12.2257 13.8201 12.4887C13.8607 12.5468 13.8982 12.6071 13.9325 12.6693C13.9729 12.7419 13.9941 12.8242 13.9939 12.9079C13.9937 12.9916 13.9721 13.0737 13.9313 13.1461C13.8906 13.2185 13.8321 13.2786 13.7617 13.3203C13.6913 13.362 13.6115 13.3839 13.5303 13.3838C13.4456 13.384 13.3626 13.3599 13.2904 13.3143C13.2182 13.2688 13.1597 13.2034 13.1214 13.1255C13.0515 12.9765 12.9479 12.847 12.8192 12.748Z" fill="#FF5C00"/>
<path d="M11.9048 18.3966C11.4717 18.4054 11.041 18.3296 10.6354 18.1731C10.2805 18.0327 9.96964 17.7949 9.73666 17.4853C9.66292 17.3848 9.59789 17.2778 9.54231 17.1657C9.48536 17.0504 9.45823 16.922 9.46354 16.7927C9.46886 16.6635 9.50644 16.5379 9.57265 16.428C9.63894 16.3155 9.73229 16.2224 9.84367 16.1579C9.95506 16.0934 10.0807 16.0596 10.2084 16.0598H10.2511C10.3955 16.0619 10.5363 16.1067 10.6568 16.1888C10.7773 16.2709 10.8724 16.3869 10.9308 16.523C10.9791 16.6326 11.0571 16.7255 11.1555 16.7905C11.3812 16.9209 11.6386 16.9816 11.8969 16.9653C12.117 16.9698 12.3361 16.9358 12.5451 16.8646C12.6855 16.8195 12.8111 16.7354 12.908 16.6214C12.9819 16.5312 13.0218 16.4165 13.0203 16.2983C13.0223 16.235 13.0101 16.1719 12.9848 16.1141C12.9594 16.0563 12.9216 16.0053 12.8742 15.9648C12.689 15.8238 12.4743 15.7294 12.2474 15.6892L11.3352 15.4704C10.7612 15.3349 10.3118 15.0998 10.0006 14.7756C9.84008 14.6101 9.71367 14.4129 9.62893 14.1958C9.54418 13.9787 9.50288 13.7462 9.50748 13.5123C9.50457 13.1153 9.62243 12.7273 9.8445 12.4029C10.0735 12.0721 10.3863 11.8125 10.7488 11.6526C11.1511 11.4737 11.5857 11.3849 12.0239 11.392C12.4328 11.3835 12.839 11.4624 13.2169 11.6236C13.5571 11.7727 13.8525 12.0125 14.0729 12.3184C14.1209 12.3853 14.1649 12.4553 14.2044 12.528C14.2703 12.6443 14.305 12.7766 14.305 12.9113C14.305 13.046 14.2703 13.1783 14.2044 13.2946C14.1398 13.4109 14.0463 13.5073 13.9335 13.5741C13.8208 13.6408 13.6929 13.6755 13.5629 13.6744C13.4262 13.6749 13.2922 13.6361 13.1758 13.5625C13.0593 13.4889 12.965 13.3833 12.9035 13.2575C12.851 13.1501 12.7738 13.0575 12.6788 12.9877C12.4844 12.8616 12.2564 12.8016 12.0272 12.8163C11.8399 12.8128 11.6538 12.8466 11.479 12.9159C11.3476 12.9667 11.2314 13.0522 11.142 13.1637C11.0751 13.2463 11.0381 13.3503 11.0375 13.4579C11.0371 13.517 11.0504 13.5755 11.0764 13.6283C11.1024 13.6811 11.1403 13.7266 11.1869 13.7612C11.3864 13.9058 11.6135 14.0049 11.8531 14.0519L12.7518 14.2835C13.3405 14.4305 13.792 14.6656 14.0931 14.9783C14.2515 15.1466 14.3754 15.3462 14.4572 15.5651C14.5391 15.784 14.5772 16.0176 14.5695 16.252C14.5744 16.6531 14.4603 17.0463 14.2425 17.3787C14.0085 17.7192 13.6861 17.9849 13.3123 18.1453C12.8654 18.3297 12.3859 18.4153 11.9048 18.3966ZM10.2039 16.6388C10.1723 16.6387 10.1412 16.6471 10.1136 16.6631C10.086 16.6792 10.063 16.7023 10.0467 16.7303C10.0306 16.7559 10.0214 16.7855 10.02 16.816C10.0186 16.8465 10.0251 16.8769 10.0388 16.904C10.0783 16.9854 10.1249 17.0629 10.1781 17.1355C10.3503 17.3634 10.5805 17.5374 10.8431 17.6381C11.1828 17.7668 11.543 17.8285 11.9048 17.8199C12.302 17.8309 12.6972 17.7568 13.0652 17.6022C13.3431 17.4852 13.5836 17.2902 13.7594 17.0394C13.9126 16.8025 13.991 16.5227 13.9841 16.2381C13.9909 16.0798 13.9664 15.9217 13.9122 15.7734C13.8579 15.6251 13.775 15.4897 13.6685 15.3754C13.4438 15.1438 13.0809 14.9563 12.5956 14.8347L11.6913 14.6031C11.3687 14.5372 11.0643 14.3979 10.8005 14.1955C10.6904 14.1064 10.6014 13.9926 10.5403 13.8628C10.4792 13.733 10.4475 13.5906 10.4477 13.4463C10.4473 13.2084 10.5267 12.9777 10.6724 12.7932C10.823 12.6032 11.0189 12.4568 11.2408 12.3682C11.4829 12.2702 11.7413 12.2218 12.0014 12.2258C12.3493 12.21 12.6931 12.3085 12.9832 12.5072C13.1498 12.6314 13.285 12.795 13.3775 12.9842C13.3923 13.0144 13.415 13.0397 13.443 13.0572C13.471 13.0748 13.5032 13.084 13.5359 13.0838C13.5678 13.0842 13.5992 13.0759 13.6268 13.0596C13.6545 13.0433 13.6774 13.0197 13.6932 12.9912C13.7095 12.9626 13.7181 12.93 13.7181 12.8968C13.7181 12.8636 13.7095 12.8311 13.6932 12.8024C13.6651 12.7495 13.6331 12.6988 13.5977 12.6508C13.436 12.4276 13.2186 12.2538 12.9686 12.1482C12.6621 12.018 12.3328 11.9545 12.0014 11.9618C11.6427 11.9547 11.2866 12.0262 10.9566 12.1714C10.6874 12.2894 10.4544 12.4807 10.2826 12.7249C10.1277 12.9525 10.0467 13.2249 10.0512 13.503C10.0465 13.6616 10.0735 13.8195 10.1306 13.9669C10.1876 14.1144 10.2734 14.2481 10.3826 14.3599C10.6185 14.6054 10.9757 14.7872 11.4442 14.8984L12.3564 15.1172C12.6743 15.1765 12.9732 15.3153 13.227 15.5213C13.3342 15.6164 13.4199 15.7344 13.4782 15.8673C13.5364 16.0001 13.5657 16.1445 13.564 16.2902C13.5671 16.5396 13.4852 16.7822 13.3326 16.9757C13.1714 17.1735 12.9597 17.3207 12.7215 17.4007C12.4517 17.4949 12.1682 17.5408 11.8834 17.5362C11.4476 17.5362 11.097 17.4447 10.8308 17.2641C10.6479 17.1392 10.5027 16.9638 10.4118 16.758C10.3979 16.7231 10.3745 16.693 10.3444 16.6714C10.3143 16.6498 10.2788 16.6377 10.2422 16.6365L10.2039 16.6388Z" fill="#FF5C00"/>
<path d="M12.0031 12.2536C11.8541 12.2536 11.7113 12.1926 11.606 12.084C11.5006 11.9754 11.4414 11.8281 11.4414 11.6746V10.6093C11.4414 10.4557 11.5006 10.3084 11.606 10.1999C11.7113 10.0913 11.8541 10.0303 12.0031 10.0303C12.1521 10.0303 12.2949 10.0913 12.4003 10.1999C12.5056 10.3084 12.5648 10.4557 12.5648 10.6093V11.6746C12.5648 11.8281 12.5056 11.9754 12.4003 12.084C12.2949 12.1926 12.1521 12.2536 12.0031 12.2536Z" fill="#FF5C00"/>
<path d="M12.0031 19.7514C11.8541 19.7514 11.7113 19.6904 11.606 19.5818C11.5006 19.4733 11.4414 19.326 11.4414 19.1724V18.1071C11.4414 17.9536 11.5006 17.8063 11.606 17.6977C11.7113 17.5891 11.8541 17.5281 12.0031 17.5281C12.1521 17.5281 12.2949 17.5891 12.4003 17.6977C12.5056 17.8063 12.5648 17.9536 12.5648 18.1071V19.1724C12.5648 19.326 12.5056 19.4733 12.4003 19.5818C12.2949 19.6904 12.1521 19.7514 12.0031 19.7514Z" fill="#FF5C00"/>
</g>
<defs>
<clipPath id="clip0_534_2447">
<rect width="24" height="24" fill="white"/>
</clipPath>
</defs>
</svg>
