<svg width="18" height="25" viewBox="0 0 18 25" fill="none" xmlns="http://www.w3.org/2000/svg">
<path d="M8.4441 6.97718C8.4441 3.86556 6.72704 0.672363 4.61072 0.672363C2.4944 0.672363 0.777344 3.86556 0.777344 6.97718C0.777344 9.12806 1.59796 10.6752 2.80441 11.4258C3.02077 11.5583 3.19614 11.7482 3.31103 11.9744C3.42591 12.2006 3.47579 12.4542 3.45514 12.7071L2.62589 22.1898C2.6078 22.2963 2.59849 22.4042 2.59805 22.5122C2.58343 22.7856 2.62464 23.0591 2.71918 23.316C2.81372 23.5729 2.9596 23.8079 3.14793 24.0065C3.33626 24.2052 3.56309 24.3635 3.81459 24.4716C4.06608 24.5797 4.33697 24.6355 4.61072 24.6355C4.88447 24.6355 5.15536 24.5797 5.40685 24.4716C5.65835 24.3635 5.88517 24.2052 6.0735 24.0065C6.26184 23.8079 6.40772 23.5729 6.50226 23.316C6.5968 23.0591 6.63801 22.7856 6.62339 22.5122C6.62263 22.4041 6.613 22.2963 6.59459 22.1898L5.7663 12.7071C5.74562 12.454 5.7957 12.2002 5.91095 11.9739C6.0262 11.7476 6.20208 11.5579 6.41895 11.4258C7.62252 10.6752 8.4441 9.12806 8.4441 6.97718Z" fill="#E55530"/>
<path d="M17.627 8.06217L16.7401 2.02801C16.73 1.93866 16.702 1.85225 16.6578 1.77392C16.6136 1.69559 16.5542 1.62693 16.483 1.572C16.4118 1.51708 16.3302 1.477 16.2433 1.45416C16.1563 1.43132 16.0656 1.42617 15.9766 1.43903C15.8876 1.45188 15.8021 1.48247 15.7251 1.52899C15.6481 1.5755 15.5813 1.637 15.5285 1.70983C15.4758 1.78265 15.4382 1.86533 15.418 1.95296C15.3977 2.04059 15.3953 2.13139 15.4109 2.21997L16.0731 6.72519C16.0924 6.85615 16.0833 6.98974 16.0463 7.11685C16.0093 7.24396 15.9454 7.36161 15.8589 7.4618C15.7724 7.56199 15.6653 7.64235 15.5449 7.69743C15.4245 7.7525 15.2937 7.78099 15.1613 7.78095V7.78095C14.9169 7.78095 14.6826 7.68388 14.5098 7.51108C14.337 7.33829 14.2399 7.10393 14.2399 6.85956V2.15662C14.2429 1.97774 14.1765 1.80464 14.0547 1.67365C13.9328 1.54266 13.7649 1.46396 13.5863 1.45406C13.4966 1.45162 13.4072 1.4672 13.3236 1.49987C13.24 1.53254 13.1637 1.58164 13.0994 1.64427C13.0351 1.7069 12.9839 1.78179 12.949 1.86452C12.9141 1.94724 12.8962 2.03612 12.8962 2.12591V6.8634C12.8963 6.98435 12.8726 7.10414 12.8264 7.21593C12.7802 7.32771 12.7125 7.42929 12.627 7.51486C12.5415 7.60044 12.44 7.66832 12.3282 7.71463C12.2165 7.76095 12.0967 7.78479 11.9758 7.78479C11.8435 7.78469 11.7128 7.7561 11.5925 7.70097C11.4722 7.64583 11.3653 7.56545 11.2788 7.46528C11.1924 7.36511 11.1286 7.2475 11.0917 7.12046C11.0548 6.99341 11.0457 6.85991 11.0649 6.72903L11.7272 2.2238C11.7427 2.13522 11.7403 2.04443 11.7201 1.9568C11.6999 1.86917 11.6623 1.78649 11.6095 1.71366C11.5568 1.64084 11.4899 1.57934 11.413 1.53283C11.336 1.48631 11.2505 1.45572 11.1615 1.44286C11.0725 1.43001 10.9818 1.43516 10.8948 1.458C10.8078 1.48084 10.7263 1.52091 10.6551 1.57584C10.5839 1.63077 10.5244 1.69943 10.4803 1.77776C10.4361 1.85609 10.4081 1.94249 10.3979 2.03185L9.5101 8.06217C9.39736 8.78742 9.47934 9.52961 9.74765 10.2128C10.016 10.8959 10.461 11.4956 11.0371 11.9503C11.2236 12.0943 11.4217 12.2227 11.6293 12.3342C11.8656 12.4595 12.0597 12.6515 12.1877 12.8863C12.3157 13.1211 12.3718 13.3884 12.3491 13.6548L11.5813 22.4052C11.5629 22.5117 11.5533 22.6196 11.5525 22.7277C11.5801 23.2428 11.8042 23.7278 12.1786 24.0828C12.553 24.4377 13.0493 24.6355 13.5652 24.6355C14.0811 24.6355 14.5774 24.4377 14.9518 24.0828C15.3262 23.7278 15.5503 23.2428 15.5779 22.7277C15.5774 22.6196 15.5681 22.5117 15.55 22.4052L14.7822 13.6548C14.7595 13.3884 14.8156 13.1211 14.9436 12.8863C15.0716 12.6515 15.2658 12.4595 15.502 12.3342C15.7095 12.2229 15.9072 12.0945 16.0933 11.9503C16.6707 11.4964 17.1171 10.8971 17.3866 10.2139C17.6561 9.53065 17.7391 8.78804 17.627 8.06217V8.06217Z" fill="#E55530"/>
</svg>
