<svg width="25" height="18" viewBox="0 0 25 18" fill="none" xmlns="http://www.w3.org/2000/svg">
<g clip-path="url(#clip0_534_2433)">
<path d="M13.3973 17.5102C18.1482 17.5102 21.9996 13.6786 21.9996 8.95199C21.9996 4.2254 18.1482 0.393738 13.3973 0.393738C8.64633 0.393738 4.79492 4.2254 4.79492 8.95199C4.79492 13.6786 8.64633 17.5102 13.3973 17.5102Z" fill="white"/>
<path d="M13.3985 17.9008C11.6187 17.9008 9.87891 17.3757 8.39911 16.3919C6.91931 15.4081 5.76599 14.0098 5.08504 12.3739C4.40409 10.7379 4.22607 8.93781 4.57352 7.20121C4.92097 5.46461 5.77828 3.86952 7.037 2.61769C8.29573 1.36586 9.89933 0.513515 11.645 0.168456C13.3907 -0.176602 15.2 0.00112673 16.8441 0.679164C18.4883 1.3572 19.8934 2.50509 20.8817 3.97765C21.8701 5.45021 22.3973 7.18129 22.3966 8.95196C22.3931 11.3248 21.4438 13.5994 19.757 15.2769C18.0702 16.9545 15.7836 17.8981 13.3985 17.9008ZM13.3985 0.784303C11.7755 0.784303 10.189 1.26306 8.83951 2.16005C7.49002 3.05704 6.43816 4.33198 5.81693 5.82367C5.1957 7.31535 5.033 8.9568 5.3494 10.5405C5.66579 12.1242 6.44708 13.5789 7.59448 14.7209C8.74187 15.8628 10.2038 16.6407 11.7955 16.9561C13.3873 17.2715 15.0372 17.1102 16.5368 16.4927C18.0365 15.8753 19.3184 14.8293 20.2205 13.4871C21.1226 12.1448 21.6045 10.5666 21.6051 8.95196C21.6026 6.78737 20.7372 4.71215 19.1987 3.18155C17.6602 1.65095 15.5743 0.789952 13.3985 0.787451V0.784303Z" fill="#FF5C00"/>
<path d="M13.3982 14.443C16.4465 14.443 18.9176 11.9846 18.9176 8.95198C18.9176 5.91936 16.4465 3.46094 13.3982 3.46094C10.35 3.46094 7.87891 5.91936 7.87891 8.95198C7.87891 11.9846 10.35 14.443 13.3982 14.443Z" fill="white"/>
<path d="M13.3975 14.8368C12.2276 14.8368 11.084 14.4916 10.1113 13.845C9.13855 13.1984 8.38038 12.2793 7.93268 11.204C7.48498 10.1287 7.36785 8.94545 7.59608 7.80392C7.82432 6.66238 8.38769 5.61381 9.21494 4.79081C10.0422 3.96781 11.0961 3.40734 12.2435 3.18028C13.391 2.95321 14.5803 3.06975 15.6612 3.51515C16.742 3.96056 17.6658 4.71483 18.3158 5.68257C18.9657 6.65032 19.3126 7.78808 19.3126 8.95198C19.311 10.5122 18.6872 12.0081 17.5783 13.1113C16.4694 14.2146 14.9658 14.8351 13.3975 14.8368ZM13.3975 3.85467C12.3842 3.85467 11.3936 4.15363 10.551 4.71373C9.70846 5.27383 9.05175 6.06992 8.66396 7.00133C8.27616 7.93274 8.17469 8.95764 8.37239 9.94642C8.57008 10.9352 9.05807 11.8435 9.77461 12.5563C10.4912 13.2692 11.4041 13.7547 12.398 13.9513C13.3919 14.148 14.422 14.0471 15.3582 13.6613C16.2944 13.2755 17.0947 12.6221 17.6576 11.7839C18.2206 10.9456 18.5211 9.96013 18.5211 8.95198C18.5194 7.6006 17.9791 6.30505 17.0186 5.34948C16.0581 4.39391 14.7559 3.85634 13.3975 3.85467Z" fill="#FF5C00"/>
<path d="M24.6321 1.44266V3.44914C24.6319 3.47769 24.6204 3.50501 24.6001 3.5252C24.5799 3.54539 24.5524 3.55682 24.5237 3.55702C24.4949 3.55702 24.4672 3.54568 24.4467 3.52547C24.4263 3.50526 24.4146 3.47782 24.4144 3.44914V1.44266C24.4144 1.41405 24.403 1.38661 24.3827 1.36637C24.3623 1.34614 24.3348 1.33478 24.306 1.33478H24.2181C24.1894 1.33478 24.1618 1.34614 24.1415 1.36637C24.1211 1.38661 24.1097 1.41405 24.1097 1.44266V3.44914C24.1097 3.47775 24.0983 3.50519 24.078 3.52543C24.0576 3.54566 24.03 3.55702 24.0013 3.55702C23.9725 3.55702 23.9449 3.54566 23.9246 3.52543C23.9043 3.50519 23.8928 3.47775 23.8928 3.44914V1.44266C23.8928 1.41405 23.8814 1.38661 23.8611 1.36637C23.8407 1.34614 23.8131 1.33478 23.7844 1.33478H23.6934C23.6646 1.33478 23.637 1.34614 23.6167 1.36637C23.5964 1.38661 23.5849 1.41405 23.5849 1.44266V3.44914C23.5847 3.47782 23.5731 3.50526 23.5526 3.52547C23.5322 3.54568 23.5045 3.55702 23.4757 3.55702C23.447 3.55682 23.4195 3.54539 23.3992 3.5252C23.379 3.50501 23.3675 3.47769 23.3672 3.44914V1.44266C23.3672 1.41405 23.3558 1.38661 23.3355 1.36637C23.3151 1.34614 23.2876 1.33478 23.2588 1.33478H23.1709C23.1422 1.33478 23.1146 1.34614 23.0943 1.36637C23.0739 1.38661 23.0625 1.41405 23.0625 1.44266V4.39411C23.0627 4.58103 23.1015 4.76592 23.1765 4.93729C23.2515 5.10866 23.3612 5.26284 23.4987 5.39026L23.5034 5.3942C23.5609 5.44749 23.606 5.5127 23.6354 5.58523C23.6648 5.65776 23.6778 5.73583 23.6736 5.81392L23.1709 15.6479C23.1674 15.6922 23.1674 15.7367 23.1709 15.781C23.1851 15.9884 23.276 16.1833 23.4261 16.3281C23.5763 16.4728 23.775 16.557 23.9839 16.5645C24.0955 16.5674 24.2066 16.5481 24.3107 16.5077C24.4147 16.4672 24.5095 16.4064 24.5896 16.3289C24.6696 16.2514 24.7332 16.1588 24.7767 16.0564C24.8202 15.954 24.8426 15.844 24.8427 15.7329C24.8423 15.6888 24.8384 15.6449 24.8308 15.6014L24.3266 5.81156C24.3227 5.73355 24.336 5.65565 24.3655 5.58329C24.395 5.51093 24.4401 5.44585 24.4976 5.39262C24.635 5.2652 24.7447 5.11102 24.8197 4.93965C24.8947 4.76828 24.9335 4.58339 24.9337 4.39647V1.44266C24.9337 1.41405 24.9223 1.38661 24.9019 1.36637C24.8816 1.34614 24.854 1.33478 24.8252 1.33478H24.7374C24.7092 1.3356 24.6824 1.34733 24.6628 1.36747C24.6431 1.38761 24.6321 1.41459 24.6321 1.44266Z" fill="#FF5C00"/>
<path d="M4.1148 3.45934C4.1148 2.2931 3.4024 1.34656 2.52618 1.34656C1.64995 1.34656 0.937588 2.29152 0.937588 3.45934C0.933957 3.89925 1.04291 4.33284 1.2542 4.7193C1.41537 5.0258 1.6659 5.27669 1.97292 5.43905C2.03678 5.46738 2.09193 5.51203 2.13281 5.56847C2.17368 5.62491 2.19882 5.69111 2.20562 5.76034C2.20562 5.77924 2.20562 5.79814 2.20562 5.81703L1.70222 15.651C1.69305 15.7408 1.69837 15.8314 1.71803 15.9195C1.7634 16.1193 1.88119 16.2953 2.04886 16.4141C2.21653 16.5329 2.42234 16.586 2.6269 16.5633C2.83145 16.5406 3.02043 16.4436 3.15766 16.291C3.2949 16.1384 3.37077 15.9408 3.37077 15.736C3.37042 15.692 3.36642 15.648 3.35887 15.6045L2.85782 5.81231V5.79971C2.85778 5.72393 2.87941 5.64969 2.9202 5.58569C2.96099 5.52168 3.01925 5.47055 3.08817 5.43826C3.68657 5.13666 4.1148 4.36494 4.1148 3.45934Z" fill="#FF5C00"/>
</g>
<defs>
<clipPath id="clip0_534_2433">
<rect width="24" height="17.9048" fill="white" transform="translate(0.9375)"/>
</clipPath>
</defs>
</svg>
