<svg width="24" height="19" viewBox="0 0 24 19" fill="none" xmlns="http://www.w3.org/2000/svg">
<g clip-path="url(#clip0_697_2018)">
<path d="M12.461 18.9923C10.6812 18.9923 8.94141 18.4644 7.46161 17.4753C5.98181 16.4863 4.82849 15.0806 4.14754 13.4359C3.46659 11.7913 3.28857 9.98159 3.63602 8.23575C3.98347 6.48991 4.84078 4.88634 6.09951 3.62785C7.35823 2.36936 8.96183 1.51248 10.7075 1.16558C12.4532 0.818691 14.2625 0.997365 15.9066 1.67901C17.5508 2.36065 18.9559 3.51465 19.9442 4.99504C20.9326 6.47544 21.4598 8.21573 21.4591 9.99581C21.4556 12.3813 20.5063 14.668 18.8195 16.3544C17.1327 18.0409 14.8461 18.9895 12.461 18.9923V18.9923ZM12.461 1.78471C10.838 1.78471 9.25151 2.26602 7.90202 3.16778C6.55252 4.06954 5.50067 5.35125 4.87943 6.85087C4.2582 8.3505 4.0955 10.0007 4.4119 11.5928C4.72829 13.1849 5.50958 14.6474 6.65698 15.7954C7.80437 16.9434 9.26633 17.7254 10.858 18.0425C12.4498 18.3596 14.0997 18.1975 15.5993 17.5767C17.099 16.956 18.3809 15.9044 19.283 14.555C20.1851 13.2057 20.667 11.6191 20.6676 9.99581C20.6651 7.8197 19.7997 5.73345 18.2612 4.1947C16.7227 2.65596 14.6368 1.79039 12.461 1.78787V1.78471Z" fill="#E55530"/>
<path d="M12.46 15.9118C11.2901 15.9118 10.1465 15.5648 9.17378 14.9147C8.20105 14.2647 7.44288 13.3407 6.99518 12.2597C6.54748 11.1786 6.43035 9.98911 6.65858 8.8415C6.88682 7.6939 7.45019 6.63975 8.27743 5.81237C9.10468 4.98499 10.1586 4.42154 11.306 4.19327C12.4535 3.965 13.6428 4.08215 14.7237 4.52993C15.8045 4.9777 16.7283 5.73598 17.3783 6.70888C18.0282 7.68177 18.3751 8.82558 18.3751 9.99568C18.3735 11.5642 17.7497 13.068 16.6408 14.1771C15.5319 15.2862 14.0283 15.9101 12.46 15.9118V15.9118ZM12.46 4.87125C11.4467 4.87125 10.4561 5.1718 9.61353 5.73488C8.77096 6.29796 8.11425 7.09828 7.72645 8.03465C7.33866 8.97101 7.23719 10.0014 7.43489 10.9954C7.63258 11.9894 8.12056 12.9025 8.83711 13.6192C9.55366 14.3359 10.4666 14.8239 11.4605 15.0216C12.4544 15.2194 13.4845 15.1179 14.4207 14.73C15.3569 14.3422 16.1572 13.6854 16.7201 12.8427C17.2831 11.9999 17.5836 11.0092 17.5836 9.99568C17.5819 8.63711 17.0416 7.33467 16.0811 6.37401C15.1206 5.41336 13.8184 4.87293 12.46 4.87125V4.87125Z" fill="#E55530"/>
<path d="M23.6946 2.44647V4.46362C23.6944 4.49232 23.6829 4.51979 23.6626 4.54009C23.6424 4.56038 23.6149 4.57187 23.5862 4.57208V4.57208C23.5574 4.57208 23.5297 4.56068 23.5092 4.54036C23.4888 4.52004 23.4771 4.49246 23.4769 4.46362V2.44647C23.4769 2.41771 23.4655 2.39012 23.4452 2.36978C23.4248 2.34944 23.3973 2.33801 23.3685 2.33801H23.2806C23.2519 2.33801 23.2243 2.34944 23.204 2.36978C23.1836 2.39012 23.1722 2.41771 23.1722 2.44647V4.46362C23.1722 4.49239 23.1608 4.51997 23.1405 4.54031C23.1201 4.56065 23.0925 4.57208 23.0638 4.57208C23.035 4.57208 23.0074 4.56065 22.9871 4.54031C22.9668 4.51997 22.9553 4.49239 22.9553 4.46362V2.44647C22.9553 2.41771 22.9439 2.39012 22.9236 2.36978C22.9032 2.34944 22.8756 2.33801 22.8469 2.33801H22.7559C22.7271 2.33801 22.6995 2.34944 22.6792 2.36978C22.6589 2.39012 22.6474 2.41771 22.6474 2.44647V4.46362C22.6472 4.49246 22.6356 4.52004 22.6151 4.54036C22.5947 4.56068 22.567 4.57208 22.5382 4.57208V4.57208C22.5095 4.57187 22.482 4.56038 22.4617 4.54009C22.4415 4.51979 22.43 4.49232 22.4297 4.46362V2.44647C22.4297 2.41771 22.4183 2.39012 22.398 2.36978C22.3776 2.34944 22.3501 2.33801 22.3213 2.33801H22.2334C22.2047 2.33801 22.1771 2.34944 22.1568 2.36978C22.1364 2.39012 22.125 2.41771 22.125 2.44647V5.41361C22.1252 5.60153 22.164 5.7874 22.239 5.95968C22.314 6.13196 22.4237 6.28697 22.5612 6.41507L22.5659 6.41903C22.6234 6.4726 22.6685 6.53816 22.6979 6.61108C22.7273 6.68399 22.7403 6.76248 22.7361 6.84098L22.2334 16.7272C22.2299 16.7718 22.2299 16.8165 22.2334 16.861C22.2476 17.0696 22.3385 17.2656 22.4886 17.411C22.6388 17.5565 22.8375 17.6412 23.0464 17.6487C23.158 17.6517 23.2691 17.6323 23.3732 17.5916C23.4772 17.5509 23.572 17.4898 23.6521 17.4119C23.7321 17.334 23.7957 17.2408 23.8392 17.1379C23.8827 17.035 23.9051 16.9245 23.9052 16.8127C23.9048 16.7684 23.9009 16.7242 23.8933 16.6805L23.3891 6.83861C23.3852 6.76019 23.3985 6.68187 23.428 6.60912C23.4575 6.53638 23.5026 6.47096 23.5601 6.41744V6.41744C23.6975 6.28934 23.8072 6.13434 23.8822 5.96206C23.9572 5.78978 23.996 5.60391 23.9962 5.41599V2.44647C23.9962 2.41771 23.9848 2.39012 23.9644 2.36978C23.9441 2.34944 23.9165 2.33801 23.8877 2.33801H23.7999C23.7717 2.33884 23.7449 2.35063 23.7253 2.37088C23.7056 2.39113 23.6946 2.41825 23.6946 2.44647V2.44647Z" fill="#E55530"/>
<path d="M3.1773 4.47388C3.1773 3.30143 2.4649 2.34985 1.58868 2.34985C0.712452 2.34985 8.78425e-05 3.29984 8.78425e-05 4.47388C-0.0035426 4.91613 0.105414 5.35202 0.3167 5.74054C0.477872 6.04867 0.728401 6.30089 1.03542 6.46411C1.09928 6.49259 1.15443 6.53749 1.19531 6.59422C1.23618 6.65096 1.26132 6.71751 1.26812 6.78711C1.26812 6.80611 1.26812 6.82511 1.26812 6.84411L0.764719 16.7304C0.755549 16.8206 0.76087 16.9118 0.780526 17.0003C0.825897 17.2011 0.943688 17.3782 1.11136 17.4976C1.27903 17.6169 1.48484 17.6703 1.6894 17.6475C1.89395 17.6247 2.08293 17.5272 2.22016 17.3738C2.3574 17.2204 2.43327 17.0217 2.43327 16.8159C2.43292 16.7716 2.42892 16.7273 2.42137 16.6837L1.92032 6.83936V6.8267C1.92028 6.75051 1.94191 6.67588 1.9827 6.61153C2.02349 6.54719 2.08175 6.49578 2.15067 6.46332C2.74907 6.16012 3.1773 5.38429 3.1773 4.47388Z" fill="#E55530"/>
</g>
<defs>
<clipPath id="clip0_697_2018">
<rect width="24" height="18" fill="white" transform="translate(0 0.996094)"/>
</clipPath>
</defs>
</svg>
