<svg width="36" height="36" viewBox="0 0 36 36" fill="none" xmlns="http://www.w3.org/2000/svg">
<path d="M13.874 35.9503L12.9781 30.3065C12.4108 30.0975 11.8135 29.8138 11.1865 29.4555C10.5594 29.0972 10.0069 28.7239 9.52917 28.3357L4.24375 30.7544L0.078125 23.4086L4.91563 19.8701C4.8559 19.6013 4.81858 19.2952 4.80365 18.9518C4.78872 18.6084 4.78125 18.3024 4.78125 18.0336C4.78125 17.7649 4.78872 17.4588 4.80365 17.1154C4.81858 16.772 4.8559 16.4659 4.91563 16.1972L0.078125 12.6586L4.24375 5.31278L9.52917 7.73153C10.0069 7.34333 10.5594 6.97007 11.1865 6.61174C11.8135 6.2534 12.4108 5.98465 12.9781 5.80549L13.874 0.116943H22.1156L23.0115 5.76069C23.5788 5.96972 24.1835 6.24594 24.8255 6.58934C25.4675 6.93274 26.0125 7.31347 26.4604 7.73153L31.7458 5.31278L35.9115 12.6586L31.074 16.1076C31.1337 16.4062 31.171 16.7272 31.1859 17.0706C31.2009 17.414 31.2083 17.735 31.2083 18.0336C31.2083 18.3322 31.2009 18.6458 31.1859 18.9742C31.171 19.3027 31.1337 19.6163 31.074 19.9149L35.9115 23.4086L31.7458 30.7544L26.4604 28.3357C25.9826 28.7239 25.4377 29.1046 24.8255 29.4779C24.2134 29.8512 23.6087 30.1274 23.0115 30.3065L22.1156 35.9503H13.874ZM17.9948 23.8565C19.6073 23.8565 20.9809 23.2892 22.1156 22.1544C23.2504 21.0197 23.8177 19.6461 23.8177 18.0336C23.8177 16.4211 23.2504 15.0475 22.1156 13.9128C20.9809 12.7781 19.6073 12.2107 17.9948 12.2107C16.3823 12.2107 15.0087 12.7781 13.874 13.9128C12.7392 15.0475 12.1719 16.4211 12.1719 18.0336C12.1719 19.6461 12.7392 21.0197 13.874 22.1544C15.0087 23.2892 16.3823 23.8565 17.9948 23.8565Z" fill="#E55530"/>
</svg>
