<svg width="25" height="25" viewBox="0 0 25 25" fill="none" xmlns="http://www.w3.org/2000/svg">
<path d="M17.4375 3.99756C15.6975 3.99756 14.0275 4.80756 12.9375 6.08756C11.8475 4.80756 10.1775 3.99756 8.4375 3.99756C5.3575 3.99756 2.9375 6.41756 2.9375 9.49756C2.9375 13.2776 6.3375 16.3576 11.4875 21.0376L12.9375 22.3476L14.3875 21.0276C19.5375 16.3576 22.9375 13.2776 22.9375 9.49756C22.9375 6.41756 20.5175 3.99756 17.4375 3.99756ZM13.0375 19.5476L12.9375 19.6476L12.8375 19.5476C8.0775 15.2376 4.9375 12.3876 4.9375 9.49756C4.9375 7.49756 6.4375 5.99756 8.4375 5.99756C9.9775 5.99756 11.4775 6.98756 12.0075 8.35756H13.8775C14.3975 6.98756 15.8975 5.99756 17.4375 5.99756C19.4375 5.99756 20.9375 7.49756 20.9375 9.49756C20.9375 12.3876 17.7975 15.2376 13.0375 19.5476Z" fill="#E55530"/>
</svg>
