<svg width="32" height="28" viewBox="0 0 32 28" fill="none" xmlns="http://www.w3.org/2000/svg">
<g clip-path="url(#clip0_674_2035)">
<path d="M29.3604 0H15.4658C14.342 0 13.7129 0.654268 13.7129 1.81741C13.7129 5.87852 13.7129 9.93963 13.7129 14.0007C13.7129 18.0619 13.7129 22.1225 13.7129 26.1826C13.7129 27.3457 14.342 28 15.4673 28H29.398C30.5232 28 31.1524 27.3443 31.1524 26.1826V1.85154C31.1524 0.640917 30.5435 0 29.3604 0ZM29.2534 26.0506H17.7394C17.9028 25.9541 18.0041 25.8903 18.1053 25.8339C19.8958 24.8548 21.6806 23.8652 23.4798 22.9038C23.9773 22.6383 24.1884 22.2837 24.187 21.7036C24.1725 16.5684 24.1725 11.4346 24.187 6.30234C24.187 5.72077 23.9773 5.3647 23.4798 5.09914C21.6849 4.13628 19.8987 3.14672 18.1053 2.16754C18.0041 2.11265 17.9043 2.05034 17.803 1.99248L17.8247 1.9361H29.2505L29.2534 26.0506Z" fill="#E55530"/>
<path d="M7.86141 10.3125C7.45789 9.93712 6.95458 9.98311 6.57565 10.3896C6.19672 10.7961 6.19382 11.259 6.57565 11.6744C6.82152 11.9429 7.09631 12.1848 7.36099 12.4355C7.83393 12.8806 8.30831 13.3331 8.85502 13.8509H1.56277C1.41795 13.845 1.2729 13.8505 1.12888 13.8672C0.960706 13.8889 0.801414 13.9569 0.667966 14.0641C0.534518 14.1713 0.431907 14.3136 0.371061 14.4759C0.310215 14.6382 0.293413 14.8144 0.322439 14.9857C0.351466 15.157 0.425235 15.317 0.535895 15.4487C0.771642 15.7528 1.11442 15.7795 1.44996 15.7795H8.85357L8.31699 16.2899C7.73847 16.8448 7.13826 17.3833 6.58143 17.9575C6.18804 18.3595 6.20973 18.8476 6.58143 19.2393C6.95313 19.631 7.46801 19.6844 7.86864 19.315C9.2108 18.0618 10.5467 16.8003 11.8763 15.5303C12.3305 15.0941 12.3305 14.5333 11.8763 14.0986C10.5448 12.8227 9.20647 11.5607 7.86141 10.3125Z" fill="#E55530"/>
</g>
<defs>
<clipPath id="clip0_674_2035">
<rect width="31" height="28" fill="white" transform="translate(0.316406)"/>
</clipPath>
</defs>
</svg>
