<svg width="24" height="25" viewBox="0 0 24 25" fill="none" xmlns="http://www.w3.org/2000/svg">
<path d="M12 22.348L10.975 21.4218C8.25833 18.9351 6.08333 16.7654 4.45 14.9129C2.81667 13.0604 2 11.1828 2 9.28024C2 7.7782 2.50417 6.52232 3.5125 5.51261C4.52083 4.5029 5.76667 3.99805 7.25 3.99805C8.1 3.99805 8.94167 4.20249 9.775 4.61138C10.6083 5.02027 11.35 5.69202 12 6.62663C12.7333 5.69202 13.4917 5.02027 14.275 4.61138C15.0583 4.20249 15.8833 3.99805 16.75 3.99805C18.2333 3.99805 19.4792 4.5029 20.4875 5.51261C21.4958 6.52232 22 7.7782 22 9.28024C22 11.1828 21.1833 13.0604 19.55 14.9129C17.9167 16.7654 15.7417 18.9351 13.025 21.4218L12 22.348Z" fill="#E55530"/>
</svg>
