<svg width="25" height="25" viewBox="0 0 25 25" fill="none" xmlns="http://www.w3.org/2000/svg">
<rect width="24" height="24" transform="translate(0.9375 0.997559)" fill="white"/>
<path d="M12.9375 22.3476L11.9125 21.4213C9.19583 18.9346 7.02083 16.765 5.3875 14.9124C3.75417 13.0599 2.9375 11.1823 2.9375 9.27976C2.9375 7.77771 3.44167 6.52183 4.45 5.51212C5.45833 4.50241 6.70417 3.99756 8.1875 3.99756C9.0375 3.99756 9.87917 4.202 10.7125 4.61089C11.5458 5.01978 12.2875 5.69153 12.9375 6.62614C13.6708 5.69153 14.4292 5.01978 15.2125 4.61089C15.9958 4.202 16.8208 3.99756 17.6875 3.99756C19.1708 3.99756 20.4167 4.50241 21.425 5.51212C22.4333 6.52183 22.9375 7.77771 22.9375 9.27976C22.9375 11.1823 22.1208 13.0599 20.4875 14.9124C18.8542 16.765 16.6792 18.9346 13.9625 21.4213L12.9375 22.3476Z" fill="#FF5C00"/>
</svg>
