<svg width="27" height="23" viewBox="0 0 27 23" fill="none" xmlns="http://www.w3.org/2000/svg">
<path fill-rule="evenodd" clip-rule="evenodd" d="M10.5479 1.41039C5.91102 1.41039 2.15206 5.16934 2.15206 9.80625C2.15206 11.76 2.81872 13.5565 3.93733 14.9828L4.13685 15.2372L3.06382 17.695L5.59234 16.5909L5.83938 16.7586C7.18197 17.6698 8.80196 18.2021 10.5479 18.2021C15.1848 18.2021 18.9438 14.4432 18.9438 9.80625C18.9438 5.16934 15.1848 1.41039 10.5479 1.41039ZM1.06931 9.80625C1.06931 4.57136 5.31303 0.327637 10.5479 0.327637C15.7828 0.327637 20.0265 4.57136 20.0265 9.80625C20.0265 15.0411 15.7828 19.2849 10.5479 19.2849C8.68639 19.2849 6.94885 18.7477 5.48358 17.8199L2.13526 19.2819C1.71859 19.4639 1.29503 19.0403 1.47694 18.6236L2.88837 15.3908C1.74462 13.8246 1.06931 11.8936 1.06931 9.80625Z" fill="#fff"/>
<path d="M9.2851 12.0058V12.1609H11.1461V12.0058C11.1531 11.0189 11.5056 10.5607 12.3021 10.0884C13.2256 9.53156 13.8248 8.79845 13.8248 7.63534C13.8248 5.8942 12.4361 4.87207 10.4694 4.87207C8.66477 4.87207 7.1915 5.82371 7.15625 7.80452H9.15821C9.18641 6.97977 9.79968 6.54272 10.4553 6.53567C11.139 6.54272 11.6889 7.00092 11.6818 7.70583C11.6889 8.35435 11.2166 8.7914 10.6103 9.18616C9.76444 9.71484 9.29215 10.2506 9.2851 12.0058ZM9.07362 14.1629C9.05952 14.8184 9.59526 15.3471 10.2579 15.3471C10.8853 15.3471 11.428 14.8184 11.428 14.1629C11.428 13.5143 10.8853 12.9857 10.2579 12.9927C9.59526 12.9857 9.05952 13.5143 9.07362 14.1629Z" fill="#fff"/>
<path fill-rule="evenodd" clip-rule="evenodd" d="M9.736 18.1653C9.25257 18.1225 8.78082 18.0391 8.32422 17.9184C9.91893 20.9074 13.0682 22.9416 16.6925 22.9416C18.5541 22.9416 20.2916 22.4044 21.7569 21.4766L25.1052 22.9387C25.5219 23.1206 25.9454 22.6971 25.7635 22.2804L24.3521 19.0475C25.4958 17.4813 26.1711 15.5503 26.1711 13.463C26.1711 8.2281 21.9274 3.98438 16.6925 3.98438C16.6865 3.98438 16.6805 3.98438 16.6744 3.98439C17 4.33373 17.2964 4.71068 17.5595 5.11135C21.7891 5.54526 25.0884 9.11883 25.0884 13.463C25.0884 15.4167 24.4217 17.2132 23.3031 18.6396L23.1036 18.894L24.1766 21.3517L21.6481 20.2477L21.4011 20.4153C20.0585 21.3265 18.4385 21.8589 16.6925 21.8589C13.7979 21.8589 11.2455 20.394 9.736 18.1653Z" fill="#fff"/>
</svg>
