<?xml version="1.0" encoding="utf-8"?>
<!-- Generator: Adobe Illustrator 25.4.1, SVG Export Plug-In . SVG Version: 6.00 Build 0)  -->
<svg version="1.1" id="Layer_1" xmlns="http://www.w3.org/2000/svg" xmlns:xlink="http://www.w3.org/1999/xlink" x="0px" y="0px"
	 viewBox="0 0 300 300" style="enable-background:new 0 0 300 300;" xml:space="preserve">
<style type="text/css">
	.st0{fill:#5A5858;}
	.st1{fill:#FFFFFF;}
	.st2{fill:#FF5C00;}
</style>
<g>
	<path class="st0" d="M160.2,258.1l-12.37-125.21 M147.83,132.89L53.66,238.68 M247.28,160.32L160.2,258.1"/>
	<path class="st1" d="M160.17,290.37c-3.4,0-6.7-0.53-9.81-1.53c-3.95-1.27-7.72-3.31-11.06-6.16c-0.75-0.64-1.47-1.31-2.16-2.02
		c0-0.01-0.01-0.01-0.02-0.02c-2.3-2.35-4.18-4.98-5.61-7.78c-1.53-2.96-2.62-6.21-3.16-9.66c-0.11-0.67-0.19-1.34-0.26-2.02
		l-5.12-51.81l-45.2,50.77c-11.86,13.32-32.25,14.5-45.56,2.65c-13.31-11.85-14.5-32.25-2.65-45.56l94.12-105.73
		c0.43-0.48,0.87-0.95,1.33-1.41c2.31-2.32,4.9-4.22,7.66-5.69c3.21-1.71,6.77-2.9,10.55-3.45c0.59-0.08,1.19-0.15,1.78-0.2
		c4.41-0.4,8.68,0.12,12.64,1.39c3.96,1.26,7.73,3.3,11.08,6.15c0.77,0.65,1.5,1.34,2.21,2.06c2.28,2.34,4.15,4.95,5.58,7.73
		c1.57,3.02,2.67,6.33,3.21,9.86c0.1,0.62,0.17,1.24,0.24,1.87l5.12,51.84l38.11-42.79c11.84-13.31,32.25-14.49,45.56-2.64
		c13.31,11.85,14.49,32.25,2.64,45.56l-87.02,97.72c-0.44,0.49-0.88,0.97-1.35,1.43c-2.33,2.33-4.94,4.24-7.73,5.71
		c-3.14,1.66-6.59,2.82-10.28,3.37c-0.69,0.1-1.38,0.18-2.07,0.24C162,290.34,161.08,290.37,160.17,290.37z"/>
</g>
<g>
	<ellipse class="st2" cx="150.47" cy="190.98" rx="23.02" ry="9.63"/>
</g>
<g>
	<path class="st2" d="M208.5,104.92L208.5,104.92c4.71-9.3,7.26-19.79,6.97-30.98c-0.87-33.61-28.39-61.72-61.97-63.24
		c-37.31-1.69-68.06,28.02-68.06,64.96c0,10.54,2.58,20.44,6.99,29.26l0,0l0,0c1.9,3.78,4.16,7.34,6.72,10.65
		c5.26,6.8,10.55,13.56,15.17,20.81c7.85,12.32,16.43,27.09,23.29,42.11c5.06,11.13,20.87,11.13,25.98,0
		c5.05-11.02,11.01-21.91,16.92-31.81c6.88-11.52,14.95-22.24,22.76-33.15C205.22,110.81,206.97,107.93,208.5,104.92L208.5,104.92z"
		/>
	<path class="st1" d="M150.59,188.19c-0.01,0-0.02,0-0.04,0c-6.18-0.01-11.6-3.51-14.16-9.13c-5.9-12.93-13.7-27.04-23.2-41.95
		c-4.32-6.79-9.35-13.29-14.21-19.57l-0.88-1.15c-2.63-3.39-4.94-7.04-6.86-10.87c-4.73-9.46-7.13-19.51-7.13-29.87
		c0-18.31,7.29-35.35,20.52-47.99c13.22-12.64,30.58-19.19,48.95-18.3c33.99,1.54,62.37,30.5,63.25,64.55
		c0.28,11.09-2.11,21.73-7.12,31.62v0c-1.56,3.06-3.35,6.01-5.34,8.78l-4.32,5.99c-6.29,8.71-12.79,17.71-18.38,27.07
		c-6.67,11.18-12.34,21.83-16.85,31.69C162.23,184.7,156.78,188.19,150.59,188.19z M150.44,11.98c-16.49,0-32.01,6.2-43.97,17.63
		C93.78,41.75,86.79,58.1,86.79,75.66c0,9.93,2.31,19.57,6.85,28.66c1.85,3.67,4.07,7.18,6.58,10.43l0.89,1.15
		c4.9,6.33,9.96,12.87,14.35,19.77c9.56,15.02,17.43,29.24,23.38,42.28c2.11,4.65,6.6,7.55,11.71,7.56c0.01,0,0.02,0,0.03,0
		c5.13,0,9.64-2.89,11.79-7.56c4.55-9.94,10.27-20.68,16.99-31.94c5.65-9.46,12.19-18.51,18.51-27.27l4.31-5.98
		c1.9-2.66,3.63-5.5,5.13-8.44l0,0c4.8-9.49,7.1-19.7,6.82-30.34c-0.85-32.67-28.07-60.45-60.69-61.93
		C152.44,12,151.44,11.98,150.44,11.98z"/>
</g>
<g>
	<circle class="st1" cx="150.47" cy="70.55" r="25.12"/>
</g>
</svg>
