<svg width="34" height="37" viewBox="0 0 34 37" fill="none" xmlns="http://www.w3.org/2000/svg">
<g clip-path="url(#clip0_1046_2020)">
<path d="M18.2933 32.7483L16.6607 16.2676L18.2933 32.7483ZM16.6607 16.2676L4.27148 30.1946L16.6607 16.2676ZM29.761 19.8744L18.2933 32.7483L29.761 19.8744Z" fill="#5B5959"/>
<path d="M18.2926 37C17.8548 37.0018 17.4195 36.9352 17.0023 36.8025C16.467 36.6273 15.9708 36.3502 15.5409 35.9864C15.4382 35.9056 15.3414 35.8176 15.2512 35.7231C14.9552 35.4199 14.7066 35.0737 14.5139 34.6963C14.311 34.2939 14.169 33.8636 14.0926 33.4195C14.0794 33.3273 14.0663 33.2484 14.0531 33.1562L13.3816 26.3375L7.43058 33.0246C7.06155 33.4507 6.61146 33.7993 6.10649 34.0499C5.60151 34.3005 5.05173 34.4483 4.48912 34.4845C3.92651 34.5208 3.3623 34.4449 2.82932 34.2611C2.29633 34.0774 1.80521 33.7895 1.38451 33.4143C0.963814 33.0391 0.621942 32.5839 0.37878 32.0754C0.135618 31.5668 -0.0039801 31.015 -0.0318935 30.452C-0.059807 29.8891 0.0245211 29.3262 0.216186 28.7961C0.40785 28.266 0.703025 27.7793 1.08454 27.3643L13.4738 13.4504C13.5265 13.3846 13.5923 13.332 13.645 13.2661C13.9442 12.9676 14.2858 12.7148 14.6587 12.5158C15.0936 12.2847 15.5662 12.1332 16.0543 12.0683C16.1325 12.053 16.2117 12.0442 16.2913 12.0419C16.8511 11.9885 17.4159 12.0512 17.9503 12.2262C18.4868 12.3985 18.9836 12.6759 19.4117 13.0424C19.5145 13.1277 19.6113 13.22 19.7013 13.3188C19.9959 13.6184 20.2443 13.96 20.4386 14.3324C20.6551 14.7384 20.7978 15.1797 20.8599 15.6356C20.8759 15.718 20.8847 15.8017 20.8863 15.8857L21.5577 22.7044L26.574 17.0704C27.3299 16.2482 28.3789 15.7564 29.4944 15.7011C30.61 15.6458 31.7025 16.0315 32.536 16.7749C33.3695 17.5183 33.877 18.5597 33.9488 19.6741C34.0207 20.7885 33.6511 21.8865 32.92 22.7307L21.4656 35.5915C21.4109 35.6593 21.3491 35.7211 21.2813 35.7758C20.982 36.0743 20.6404 36.3271 20.2675 36.5261C19.8442 36.7513 19.3856 36.9027 18.9114 36.9736C18.8199 36.9889 18.7276 36.9977 18.6349 37C18.5209 36.9934 18.4066 36.9934 18.2926 37Z" fill="#E7E7E7"/>
<path d="M17.0165 25.1792C18.6889 25.1792 20.0447 24.6135 20.0447 23.9156C20.0447 23.2176 18.6889 22.6519 17.0165 22.6519C15.344 22.6519 13.9883 23.2176 13.9883 23.9156C13.9883 24.6135 15.344 25.1792 17.0165 25.1792Z" fill="#E55530"/>
<path d="M24.6527 12.5816C25.2953 11.3195 25.6121 9.91672 25.5743 8.50095C25.4559 4.07801 21.8352 0.379065 17.4114 0.181612C16.2537 0.126345 15.0968 0.306773 14.0109 0.711953C12.9251 1.11713 11.9328 1.73862 11.0944 2.53872C10.256 3.33882 9.58887 4.30085 9.1335 5.36647C8.67813 6.43209 8.444 7.57909 8.44532 8.7379C8.45056 10.0774 8.76601 11.3976 9.36694 12.5948C9.62023 13.0886 9.91535 13.5598 10.2491 14.0033C10.9469 14.8984 11.6447 15.7935 12.2503 16.7413C13.3925 18.5198 14.4173 20.371 15.318 22.2832C15.4686 22.6104 15.7099 22.8876 16.0132 23.0819C16.3166 23.2762 16.6693 23.3795 17.0296 23.3795C17.3899 23.3795 17.7426 23.2762 18.0459 23.0819C18.3493 22.8876 18.5906 22.6104 18.7412 22.2832C19.4113 20.851 20.1539 19.4538 20.9662 18.0972C21.8747 16.5834 22.928 15.1749 23.9681 13.7269C24.2213 13.3606 24.45 12.978 24.6527 12.5816Z" fill="#E55530"/>
<path d="M17.0289 23.547C16.6348 23.5493 16.2485 23.4373 15.9167 23.2247C15.5849 23.0122 15.3219 22.708 15.1593 22.3491C14.2683 20.443 13.2477 18.6002 12.1048 16.8336C11.5386 15.9385 10.8803 15.0828 10.2352 14.2535L10.1167 14.0956C9.77142 13.6455 9.46737 13.1653 9.20824 12.6608C8.59466 11.4394 8.27458 10.0917 8.27345 8.72486C8.27123 7.54279 8.50972 6.37263 8.97439 5.28567C9.43907 4.19871 10.1202 3.21771 10.9763 2.40242C11.8324 1.58713 12.8455 0.954622 13.954 0.543422C15.0625 0.132223 16.2431 -0.0490599 17.4239 0.0106179C21.9003 0.208071 25.6395 4.02549 25.7448 8.51425C25.7872 9.95726 25.4657 11.3877 24.81 12.6739C24.6008 13.0737 24.3678 13.4605 24.1122 13.8323L23.5461 14.6221C22.7166 15.7673 21.8608 16.9521 21.1235 18.1894C20.3101 19.5409 19.5674 20.9337 18.8985 22.3623C18.7329 22.7179 18.4687 23.0186 18.1373 23.2286C17.8059 23.4386 17.4212 23.5491 17.0289 23.547ZM17.0025 0.352869C15.9012 0.350607 14.8102 0.566047 13.7924 0.986802C12.7746 1.40756 11.85 2.02532 11.0718 2.80458C10.2936 3.58384 9.67718 4.50921 9.25795 5.52749C8.83871 6.54577 8.62494 7.63686 8.62894 8.73803C8.63103 10.0496 8.9375 11.3428 9.52423 12.516C9.76531 13.0014 10.0566 13.4602 10.3932 13.885L10.5117 14.0429C11.1836 14.8789 11.812 15.7488 12.3944 16.6493C13.549 18.4319 14.5784 20.2924 15.4753 22.2175C15.6083 22.5149 15.8244 22.7676 16.0977 22.9451C16.371 23.1226 16.6898 23.2173 17.0157 23.2179C17.3435 23.2184 17.6645 23.1243 17.9401 22.9468C18.2157 22.7693 18.4342 22.5161 18.5693 22.2175C19.2426 20.7802 19.9897 19.3786 20.8075 18.0183C21.5448 16.7678 22.4138 15.5831 23.2432 14.4247L23.8094 13.6349C24.058 13.2819 24.2824 12.9125 24.4809 12.5291C25.1097 11.2959 25.4176 9.92417 25.3761 8.54057C25.2577 4.2361 21.6765 0.576649 17.3844 0.39236C17.26 0.359056 17.1311 0.345726 17.0025 0.352869Z" fill="white"/>
<path d="M17.0156 11.3708C18.8407 11.3708 20.3203 9.89151 20.3203 8.06674C20.3203 6.24196 18.8407 4.7627 17.0156 4.7627C15.1905 4.7627 13.7109 6.24196 13.7109 8.06674C13.7109 9.89151 15.1905 11.3708 17.0156 11.3708Z" fill="white"/>
</g>
<defs>
<clipPath id="clip0_1046_2020">
<rect width="34" height="37" fill="white"/>
</clipPath>
</defs>
</svg>
