<svg width="32" height="29" viewBox="0 0 32 29" fill="none" xmlns="http://www.w3.org/2000/svg">
<path d="M24.4143 19.4419C23.4367 18.4376 22.8426 17.2421 22.8483 15.7413C22.8483 14.6464 22.8198 13.5502 22.8483 12.4565C22.887 11.0252 22.7572 9.62864 22.1961 8.32144C21.9624 7.77146 21.6759 7.25005 21.3414 6.76596C20.8718 6.09472 20.2992 5.51722 19.649 5.05904C19.0642 4.62718 18.4199 4.30027 17.7403 4.09074C17.5412 4.03239 17.4103 3.93432 17.383 3.71832C17.3556 3.50231 17.3443 3.26769 17.3306 3.04176C17.301 2.5663 17.1155 2.20382 16.6955 2.14547C16.0789 2.07572 15.4579 2.06242 14.8392 2.10574C14.6941 2.10989 14.5547 2.16826 14.4443 2.27107C14.3339 2.37388 14.2591 2.5149 14.2326 2.67058C14.1828 2.9081 14.1516 3.14979 14.1393 3.39307C14.1154 3.90825 14.038 4.01377 13.5827 4.12053C13.4533 4.15036 13.3275 4.19705 13.2083 4.25958C12.8532 4.44827 12.4799 4.60964 12.1555 4.85047C11.6354 5.23531 11.105 5.62636 10.66 6.1043C9.99598 6.8107 9.48368 7.66879 9.15994 8.61689C8.87086 9.46477 8.64778 10.3251 8.63299 11.2238C8.61174 12.6688 8.61174 14.1146 8.63299 15.5613C8.65689 17.2695 7.98767 18.6164 6.81767 19.6703C6.186 20.2376 6.186 21.1252 6.32372 21.7882C6.37266 22.0228 6.58321 22.2264 6.74255 22.4225C6.99408 22.7316 7.34576 22.6782 7.6724 22.6795C10.3531 22.6795 13.0334 22.6795 15.7133 22.6795H23.2717C23.5835 22.6795 23.8965 22.6795 24.2083 22.6646C24.3797 22.6588 24.5462 22.6011 24.6893 22.4981C24.8324 22.3951 24.9464 22.2507 25.0187 22.0811C25.3453 21.3561 25.3419 20.625 24.9049 19.9472C24.7785 19.7523 24.5839 19.6107 24.4143 19.4419Z" fill="white"/>
<path d="M17.6672 23.69C17.0242 23.6726 16.3811 23.69 15.7324 23.69C15.07 23.69 14.4076 23.69 13.7452 23.69C13.4721 23.69 13.3537 23.8464 13.4038 24.1195C13.452 24.3583 13.5261 24.59 13.6246 24.8097C14.0229 25.7246 14.6853 26.2162 15.6197 26.2795C16.1324 26.3237 16.6434 26.1747 17.0674 25.8575C17.56 25.4803 17.9131 24.9239 18.0633 24.2883C18.1828 23.8563 18.0679 23.7011 17.6672 23.69Z" fill="white"/>
</svg>
