<svg width="25" height="22" viewBox="0 0 25 22" fill="none" xmlns="http://www.w3.org/2000/svg">
<path fill-rule="evenodd" clip-rule="evenodd" d="M7.0056 11.3355C8.8282 11.3355 10.3057 9.85798 10.3057 8.03538C10.3057 6.21278 8.8282 4.73528 7.0056 4.73528C5.183 4.73528 3.70549 6.21278 3.70549 8.03538C3.70549 9.85798 5.183 11.3355 7.0056 11.3355ZM7.0056 11.6855C9.02151 11.6855 10.6557 10.0513 10.6557 8.03538C10.6557 6.01947 9.02151 4.38525 7.0056 4.38525C4.98969 4.38525 3.35547 6.01947 3.35547 8.03538C3.35547 10.0513 4.98969 11.6855 7.0056 11.6855Z" fill="#FF5C00"/>
<path fill-rule="evenodd" clip-rule="evenodd" d="M12.7383 19.9003V17.7644C12.7383 14.6002 10.1732 12.0351 7.00902 12.0351C3.84481 12.0351 1.27971 14.6002 1.27971 17.7644V19.9003H12.7383ZM7.00902 11.6851C3.6515 11.6851 0.929688 14.4069 0.929688 17.7644V20.2503H13.0884V17.7644C13.0884 14.4069 10.3665 11.6851 7.00902 11.6851Z" fill="#FF5C00"/>
<path d="M14.9104 7.93227C14.9104 10.1927 13.078 12.0252 10.8175 12.0252C8.55707 12.0252 6.72461 10.1927 6.72461 7.93227C6.72461 5.67182 8.55707 3.83936 10.8175 3.83936C13.078 3.83936 14.9104 5.67182 14.9104 7.93227Z" fill="#FF5C00"/>
<path d="M4.00586 18.8417C4.00586 15.0769 7.05784 12.0249 10.8227 12.0249V12.0249C14.5875 12.0249 17.6395 15.0769 17.6395 18.8417V21.6292H4.00586V18.8417Z" fill="#FF5C00"/>
<path fill-rule="evenodd" clip-rule="evenodd" d="M15.5098 4.99311C15.5098 4.46621 15.9369 4.03906 16.4638 4.03906L23.801 4.03906C24.3279 4.03906 24.7551 4.4662 24.7551 4.99311C24.7551 5.52002 24.3279 5.94716 23.801 5.94716L16.4638 5.94716C15.9369 5.94716 15.5098 5.52002 15.5098 4.99311Z" fill="#FF5C00"/>
<path fill-rule="evenodd" clip-rule="evenodd" d="M20.1319 0.370605C20.6588 0.370605 21.0859 0.797748 21.0859 1.32466L21.0859 8.66188C21.0859 9.18878 20.6588 9.61593 20.1319 9.61593C19.605 9.61593 19.1778 9.18878 19.1778 8.66188L19.1778 1.32466C19.1778 0.797748 19.605 0.370605 20.1319 0.370605Z" fill="#FF5C00"/>
</svg>
