<svg width="36" height="36" viewBox="0 0 36 36" fill="none" xmlns="http://www.w3.org/2000/svg">
<g clip-path="url(#clip0_534_2548)">
<path d="M18.0012 24.2982C16.7551 24.2991 15.5368 23.9304 14.5002 23.2388C13.4637 22.5472 12.6556 21.5637 12.1781 20.4127C11.7006 19.2617 11.5752 17.995 11.8177 16.7728C12.0603 15.5505 12.6599 14.4277 13.5407 13.5462C14.4215 12.6648 15.5439 12.0644 16.766 11.821C17.988 11.5775 19.2549 11.702 20.4062 12.1787C21.5575 12.6553 22.5416 13.4627 23.234 14.4987C23.9264 15.5347 24.2959 16.7528 24.2959 17.9989C24.2941 19.6682 23.6305 21.2688 22.4506 22.4496C21.2706 23.6304 19.6705 24.2952 18.0012 24.2982ZM18.0012 13.9768C17.205 13.9759 16.4264 14.2112 15.7639 14.653C15.1015 15.0947 14.5849 15.7231 14.2796 16.4585C13.9744 17.1939 13.8942 18.0033 14.0491 18.7843C14.2041 19.5654 14.5873 20.2829 15.1502 20.846C15.7131 21.4092 16.4303 21.7928 17.2112 21.9482C17.9921 22.1036 18.8016 22.0238 19.5372 21.719C20.2728 21.4142 20.9014 20.898 21.3435 20.2358C21.7857 19.5736 22.0215 18.7951 22.021 17.9989C22.0192 16.9331 21.5952 15.9115 20.8418 15.1576C20.0884 14.4038 19.067 13.9792 18.0012 13.9768Z" fill="#FF5C00"/>
<path d="M18.0003 31.8783C15.2556 31.8783 12.5726 31.0644 10.2906 29.5396C8.00847 28.0148 6.22971 25.8475 5.17938 23.3117C4.12905 20.776 3.85425 17.9858 4.3897 15.2939C4.92516 12.602 6.24681 10.1293 8.18757 8.18855C10.1283 6.2478 12.6011 4.92613 15.293 4.39068C17.9849 3.85522 20.7751 4.13004 23.3108 5.18037C25.8465 6.23069 28.0139 8.00936 29.5387 10.2914C31.0635 12.5735 31.8774 15.2565 31.8774 18.0012C31.8726 21.6801 30.4089 25.2071 27.8075 27.8085C25.2061 30.4099 21.6792 31.8735 18.0003 31.8783ZM18.0003 6.39897C15.7056 6.39897 13.4624 7.07943 11.5544 8.35429C9.64647 9.62916 8.15929 11.4412 7.28115 13.5612C6.403 15.6812 6.17332 18.0141 6.62099 20.2647C7.06866 22.5153 8.17365 24.5826 9.79625 26.2052C11.4188 27.8278 13.4861 28.9328 15.7368 29.3805C17.9874 29.8281 20.3201 29.5984 22.4402 28.7202C24.5602 27.8421 26.3722 26.355 27.6471 24.447C28.922 22.539 29.6025 20.2959 29.6025 18.0012C29.6001 14.9244 28.377 11.9743 26.2018 9.79823C24.0266 7.62219 21.077 6.39803 18.0003 6.39442V6.39897Z" fill="#FF5C00"/>
<path d="M34.3626 19.1364H27.1238C26.8221 19.1364 26.5328 19.0166 26.3195 18.8032C26.1061 18.5899 25.9863 18.3006 25.9863 17.9989C25.9863 17.6972 26.1061 17.4079 26.3195 17.1946C26.5328 16.9813 26.8221 16.8615 27.1238 16.8615H34.3626C34.6643 16.8615 34.9536 16.9813 35.167 17.1946C35.3803 17.4079 35.5001 17.6972 35.5001 17.9989C35.5001 18.3006 35.3803 18.5899 35.167 18.8032C34.9536 19.0166 34.6643 19.1364 34.3626 19.1364Z" fill="#FF5C00"/>
<path d="M8.87863 19.1364H1.63747C1.3358 19.1364 1.04645 19.0166 0.833133 18.8032C0.619815 18.5899 0.5 18.3006 0.5 17.9989C0.5 17.6972 0.619815 17.4079 0.833133 17.1946C1.04645 16.9813 1.3358 16.8615 1.63747 16.8615H8.87863C9.18031 16.8615 9.46966 16.9813 9.68297 17.1946C9.89629 17.4079 10.0161 17.6972 10.0161 17.9989C10.0161 18.3006 9.89629 18.5899 9.68297 18.8032C9.46966 19.0166 9.18031 19.1364 8.87863 19.1364Z" fill="#FF5C00"/>
<path d="M18.0008 10.0138C17.6991 10.0138 17.4097 9.89397 17.1964 9.68065C16.9831 9.46734 16.8633 9.17801 16.8633 8.87634V1.63747C16.8633 1.3358 16.9831 1.04647 17.1964 0.833157C17.4097 0.61984 17.6991 0.5 18.0008 0.5C18.3024 0.5 18.5918 0.61984 18.8051 0.833157C19.0184 1.04647 19.1382 1.3358 19.1382 1.63747V8.87634C19.1382 9.17801 19.0184 9.46734 18.8051 9.68065C18.5918 9.89397 18.3024 10.0138 18.0008 10.0138Z" fill="#FF5C00"/>
<path d="M18.0008 35.5C17.6991 35.5 17.4097 35.3801 17.1964 35.1668C16.9831 34.9535 16.8633 34.6642 16.8633 34.3625V27.1214C16.8633 26.8197 16.9831 26.5304 17.1964 26.317C17.4097 26.1037 17.6991 25.9839 18.0008 25.9839C18.3024 25.9839 18.5918 26.1037 18.8051 26.317C19.0184 26.5304 19.1382 26.8197 19.1382 27.1214V34.3625C19.1382 34.6642 19.0184 34.9535 18.8051 35.1668C18.5918 35.3801 18.3024 35.5 18.0008 35.5Z" fill="#FF5C00"/>
</g>
<defs>
<clipPath id="clip0_534_2548">
<rect width="35" height="35" fill="white" transform="translate(0.5 0.5)"/>
</clipPath>
</defs>
</svg>
