<svg width="15" height="15" viewBox="0 0 29 29" fill="none" xmlns="http://www.w3.org/2000/svg">
<path d="M25.5923 13.5623L15.2906 3.26065C14.8589 2.82898 14.2639 2.58398 13.6456 2.58398H5.2806C3.99727 2.58398 2.94727 3.63398 2.94727 4.91732V13.2823C2.94727 13.9007 3.19227 14.4957 3.6356 14.9273L13.9373 25.229C14.8473 26.139 16.3289 26.139 17.2389 25.229L25.6039 16.864C26.5139 15.954 26.5139 14.484 25.5923 13.5623ZM8.19727 9.58398C7.22893 9.58398 6.44727 8.80232 6.44727 7.83398C6.44727 6.86565 7.22893 6.08398 8.19727 6.08398C9.1656 6.08398 9.94727 6.86565 9.94727 7.83398C9.94727 8.80232 9.1656 9.58398 8.19727 9.58398Z" fill="#A1A1A1"/>
</svg>
