<svg width="34" height="34" viewBox="0 0 34 34" fill="none" xmlns="http://www.w3.org/2000/svg">
<circle cx="17" cy="17" r="16.5" stroke="#DFD3CA"/>
<path d="M14.9647 21.0666V21.3759H18.6764V21.0666C18.6905 19.0983 19.3935 18.1844 20.9822 17.2424C22.824 16.1317 24.019 14.6695 24.019 12.3497C24.019 8.87701 21.2493 6.83838 17.3267 6.83838C13.7275 6.83838 10.789 8.73641 10.7188 12.6871H14.7116C14.7679 11.0422 15.9911 10.1705 17.2986 10.1564C18.6624 10.1705 19.759 11.0843 19.7449 12.4903C19.759 13.7838 18.817 14.6555 17.6079 15.4428C15.9208 16.4973 14.9788 17.5658 14.9647 21.0666ZM14.5429 25.3688C14.5148 26.6763 15.5833 27.7308 16.9049 27.7308C18.1562 27.7308 19.2388 26.6763 19.2388 25.3688C19.2388 24.0753 18.1562 23.0209 16.9049 23.0349C15.5833 23.0209 14.5148 24.0753 14.5429 25.3688Z" fill="#DFD3CA"/>
</svg>
