<svg width="30" height="30" viewBox="0 0 30 30" fill="none" xmlns="http://www.w3.org/2000/svg">
<mask id="path-1-inside-1_1074_2152" fill="white">
<path fill-rule="evenodd" clip-rule="evenodd" d="M15 30C23.2843 30 30 23.2843 30 15C30 6.71573 23.2843 0 15 0C6.71573 0 0 6.71573 0 15C0 23.2843 6.71573 30 15 30ZM13.2035 18.8614V18.5885C13.2159 15.4995 14.047 14.5567 15.5357 13.6263C16.6026 12.9316 17.4337 12.1625 17.4213 11.0212C17.4337 9.78062 16.4661 8.97427 15.2628 8.96186C14.1091 8.97427 13.0298 9.74341 12.9802 11.1948H9.45703C9.51906 7.70891 12.1118 6.03418 15.2876 6.03418C18.7487 6.03418 21.1926 7.83297 21.1926 10.8971C21.1926 12.944 20.1381 14.2342 18.513 15.2142C17.1112 16.0454 16.4909 16.8517 16.4785 18.5885V18.8614H13.2035ZM14.9154 24.4687C13.7493 24.4687 12.8065 23.5383 12.8313 22.3846C12.8065 21.2432 13.7493 20.3128 14.9154 20.3252C16.0195 20.3128 16.9747 21.2432 16.9747 22.3846C16.9747 23.5383 16.0195 24.4687 14.9154 24.4687Z"/>
</mask>
<path fill-rule="evenodd" clip-rule="evenodd" d="M15 30C23.2843 30 30 23.2843 30 15C30 6.71573 23.2843 0 15 0C6.71573 0 0 6.71573 0 15C0 23.2843 6.71573 30 15 30ZM13.2035 18.8614V18.5885C13.2159 15.4995 14.047 14.5567 15.5357 13.6263C16.6026 12.9316 17.4337 12.1625 17.4213 11.0212C17.4337 9.78062 16.4661 8.97427 15.2628 8.96186C14.1091 8.97427 13.0298 9.74341 12.9802 11.1948H9.45703C9.51906 7.70891 12.1118 6.03418 15.2876 6.03418C18.7487 6.03418 21.1926 7.83297 21.1926 10.8971C21.1926 12.944 20.1381 14.2342 18.513 15.2142C17.1112 16.0454 16.4909 16.8517 16.4785 18.5885V18.8614H13.2035ZM14.9154 24.4687C13.7493 24.4687 12.8065 23.5383 12.8313 22.3846C12.8065 21.2432 13.7493 20.3128 14.9154 20.3252C16.0195 20.3128 16.9747 21.2432 16.9747 22.3846C16.9747 23.5383 16.0195 24.4687 14.9154 24.4687Z" fill="#DFD3CA"/>
<path d="M13.2035 18.5885L12.2035 18.5845V18.5885H13.2035ZM13.2035 18.8614H12.2035V19.8614H13.2035V18.8614ZM15.5357 13.6263L16.0657 14.4743L16.0736 14.4694L16.0814 14.4643L15.5357 13.6263ZM17.4213 11.0212L16.4214 11.0112L16.4213 11.0216L16.4214 11.032L17.4213 11.0212ZM15.2628 8.96186L15.2731 7.96192L15.2626 7.96181L15.252 7.96192L15.2628 8.96186ZM12.9802 11.1948V12.1948H13.9466L13.9796 11.229L12.9802 11.1948ZM9.45703 11.1948L8.45719 11.1771L8.43908 12.1948H9.45703V11.1948ZM18.513 15.2142L19.023 16.0744L19.0294 16.0705L18.513 15.2142ZM16.4785 18.5885L15.4785 18.5813V18.5885H16.4785ZM16.4785 18.8614V19.8614H17.4785V18.8614H16.4785ZM12.8313 22.3846L13.8311 22.406L13.8315 22.3844L13.8311 22.3628L12.8313 22.3846ZM14.9154 20.3252L14.9048 21.3252L14.9157 21.3253L14.9267 21.3252L14.9154 20.3252ZM29 15C29 22.732 22.732 29 15 29V31C23.8366 31 31 23.8366 31 15H29ZM15 1C22.732 1 29 7.26801 29 15H31C31 6.16344 23.8366 -1 15 -1V1ZM1 15C1 7.26801 7.26801 1 15 1V-1C6.16344 -1 -1 6.16344 -1 15H1ZM15 29C7.26801 29 1 22.732 1 15H-1C-1 23.8366 6.16344 31 15 31V29ZM12.2035 18.5885V18.8614H14.2035V18.5885H12.2035ZM15.0057 12.7783C14.2051 13.2787 13.4516 13.8605 12.9345 14.8257C12.4284 15.7705 12.21 16.9666 12.2035 18.5845L14.2035 18.5925C14.2094 17.1214 14.4128 16.3016 14.6975 15.7702C14.9712 15.2591 15.3777 14.9043 16.0657 14.4743L15.0057 12.7783ZM16.4214 11.032C16.4275 11.5973 16.0469 12.1001 14.99 12.7883L16.0814 14.4643C17.1583 13.7631 18.4399 12.7276 18.4213 11.0103L16.4214 11.032ZM15.2525 9.96181C16.0074 9.96959 16.4273 10.4211 16.4214 11.0112L18.4213 11.0312C18.4402 9.14018 16.9248 7.97894 15.2731 7.96192L15.2525 9.96181ZM13.9796 11.229C13.9956 10.7618 14.1673 10.4688 14.3735 10.2846C14.593 10.0886 14.9101 9.96571 15.2735 9.96181L15.252 7.96192C14.4617 7.97042 13.6623 8.23833 13.0414 8.79283C12.4071 9.35921 12.0144 10.1765 11.9808 11.1607L13.9796 11.229ZM9.45703 12.1948H12.9802V10.1948H9.45703V12.1948ZM15.2876 5.03418C13.5359 5.03418 11.8507 5.49522 10.5745 6.53079C9.27274 7.58717 8.49298 9.16539 8.45719 11.1771L10.4569 11.2126C10.4831 9.73837 11.0307 8.73625 11.8348 8.08379C12.6645 7.41051 13.8635 7.03418 15.2876 7.03418V5.03418ZM22.1926 10.8971C22.1926 9.07181 21.4516 7.56415 20.1617 6.53493C18.8964 5.5253 17.1803 5.03418 15.2876 5.03418V7.03418C16.856 7.03418 18.0924 7.44246 18.9143 8.09825C19.7116 8.73447 20.1926 9.65828 20.1926 10.8971H22.1926ZM19.0294 16.0705C19.9217 15.5324 20.7205 14.8721 21.2945 14.01C21.8773 13.1349 22.1926 12.1054 22.1926 10.8971H20.1926C20.1926 11.7357 19.9806 12.3747 19.6299 12.9015C19.2704 13.4412 18.7294 13.9159 17.9966 14.3579L19.0294 16.0705ZM17.4785 18.5956C17.4838 17.8466 17.6186 17.4132 17.8189 17.0978C18.0278 16.7688 18.3778 16.4569 19.023 16.0744L18.003 14.354C17.2464 14.8026 16.5853 15.3095 16.1306 16.0257C15.6671 16.7555 15.4856 17.5936 15.4785 18.5813L17.4785 18.5956ZM17.4785 18.8614V18.5885H15.4785V18.8614H17.4785ZM13.2035 19.8614H16.4785V17.8614H13.2035V19.8614ZM11.8315 22.3631C11.7942 24.1016 13.2132 25.4687 14.9154 25.4687V23.4687C14.2855 23.4687 13.8188 22.9749 13.8311 22.406L11.8315 22.3631ZM14.9261 19.3253C13.2176 19.3071 11.794 20.6778 11.8315 22.4063L13.8311 22.3628C13.819 21.8087 14.281 21.3186 14.9048 21.3252L14.9261 19.3253ZM17.9747 22.3846C17.9747 20.6894 16.5677 19.3066 14.9042 19.3253L14.9267 21.3252C15.4713 21.3191 15.9747 21.7971 15.9747 22.3846H17.9747ZM14.9154 25.4687C16.5718 25.4687 17.9747 24.0905 17.9747 22.3846H15.9747C15.9747 22.986 15.4672 23.4687 14.9154 23.4687V25.4687Z" fill="#DFD3CA" mask="url(#path-1-inside-1_1074_2152)"/>
</svg>
