<svg width="22" height="19" viewBox="0 0 22 19" fill="none" xmlns="http://www.w3.org/2000/svg">
<path d="M20.3427 0C20.2162 0.0292679 20.0912 0.0651264 19.9684 0.107431C19.3704 0.346164 18.7748 0.584897 18.1784 0.823631L9.1966 4.43328C6.37863 5.56594 3.56093 6.69912 0.743486 7.83284C0.369246 7.98404 0.173853 8.26256 0.172277 8.62862C0.166815 8.80307 0.217121 8.97467 0.315743 9.11799C0.414365 9.26132 0.556055 9.36876 0.719846 9.4244C1.75511 9.83396 2.79223 10.2401 3.83117 10.6427C4.41735 10.8703 5.00589 11.0921 5.59679 11.308C5.6584 11.3259 5.71387 11.3608 5.757 11.4087C5.80013 11.4566 5.82922 11.5157 5.84103 11.5794C6.28171 13.2887 6.72634 14.997 7.17491 16.7042C7.3703 17.4514 7.98327 17.6718 8.60411 17.2214C9.45502 16.6031 10.3083 15.9872 11.1545 15.3625C11.2876 15.2638 11.3774 15.2646 11.5129 15.3585C13.1906 16.5145 14.8714 17.6665 16.5553 18.8146C17.1486 19.2196 17.7868 18.9363 17.916 18.2289C18.0736 17.3694 18.2382 16.5124 18.3998 15.6545C18.8504 13.2704 19.3013 10.8862 19.7525 8.5021C20.1291 6.50681 20.506 4.51153 20.8831 2.51625C20.9753 2.02923 21.0714 1.54222 21.1573 1.05361C21.2487 0.494177 20.88 0.0262607 20.3427 0ZM7.29388 10.5425C7.26196 10.4167 7.20066 10.3005 7.11512 10.2036C7.02958 10.1066 6.9223 10.0318 6.80224 9.98542C6.61237 9.90027 6.41382 9.83263 6.21921 9.75703C5.48019 9.47215 4.74169 9.18726 4.00371 8.90237C3.78783 8.81802 3.57511 8.72491 3.30723 8.61271L16.5892 3.27224L16.6113 3.30009C16.5758 3.34068 16.5435 3.38365 16.5049 3.42105L10.5864 9.17691C9.7489 9.99099 8.90744 10.8019 8.07387 11.6215C7.93453 11.7766 7.80456 11.9401 7.68466 12.1109L7.29388 10.5425ZM8.50326 15.2216L7.89424 12.8916L9.85762 14.2397L8.50326 15.2216ZM16.4955 16.7495L9.86865 12.2136L18.9686 3.36614L19.0151 3.3924C18.1784 7.82727 17.3409 12.2653 16.4955 16.7495Z" fill="black"/>
</svg>
