<svg width="79" height="103" viewBox="0 0 79 103" fill="none" xmlns="http://www.w3.org/2000/svg">
<g filter="url(#filter0_d_826_2077)">
<path d="M70.6474 50.6811C73.0403 45.9529 74.3953 40.6482 74.3953 34.9974C74.3953 15.7388 58.7981 0.141566 39.5394 0.141566C20.2808 0.141566 4.68359 15.7388 4.68359 34.9974C4.68359 40.6482 6.06741 45.9529 8.4315 50.6811C10.1325 54.0543 11.4873 56.3585 14.2742 60.3994C19.4636 67.9241 26.1898 78.7425 32.6489 90.121C35.359 96.0889 43.8352 96.0889 46.574 90.121C54.3854 77.5957 57.4329 71.5552 64.9971 60.3994C67.3371 56.4812 69.004 53.9101 70.6474 50.6811Z" fill="#E55530"/>
</g>
<path fill-rule="evenodd" clip-rule="evenodd" d="M36.8698 45.2037C37.38 45.4033 37.9104 45.5367 38.4492 45.6019V47.1871C38.4492 47.4917 38.5651 47.7839 38.7711 47.9993C38.9772 48.2147 39.2566 48.3358 39.548 48.3358C39.8395 48.3358 40.119 48.2147 40.325 47.9993C40.5311 47.7839 40.6469 47.4917 40.6469 47.1871V45.5676C41.1457 45.4861 41.6354 45.3458 42.1067 45.1486C42.8379 44.8304 43.4686 44.3033 43.9264 43.6277C44.3525 42.9681 44.5756 42.1882 44.566 41.3923C44.5812 40.9273 44.5065 40.4637 44.3464 40.0295C44.1863 39.5953 43.944 39.1993 43.6341 38.8652C43.0451 38.2449 42.1617 37.7786 41.0101 37.4868L39.252 37.0273C38.7834 36.9341 38.3391 36.7376 37.9488 36.4507C37.8576 36.3821 37.7835 36.2916 37.7327 36.1869C37.6818 36.0822 37.6557 35.9662 37.6565 35.8488C37.6577 35.6354 37.73 35.429 37.8609 35.2652C38.0357 35.0439 38.2631 34.8744 38.5202 34.7736C38.8622 34.636 39.2263 34.5689 39.5926 34.576C40.0411 34.5469 40.4871 34.6658 40.8673 34.916C41.0533 35.0545 41.2041 35.2382 41.3069 35.4513C41.4272 35.7008 41.6117 35.9103 41.8395 36.0564C42.0674 36.2024 42.3295 36.2793 42.5968 36.2784C42.8511 36.2805 43.1014 36.2118 43.322 36.0794C43.5425 35.947 43.7254 35.7556 43.8517 35.5249C43.9807 35.2941 44.0486 35.0317 44.0486 34.7644C44.0486 34.4972 43.9807 34.2347 43.8517 34.004C43.7745 33.8598 43.6885 33.7209 43.5945 33.5882C43.1634 32.9813 42.5855 32.5055 41.92 32.2097C41.5098 32.0322 41.0826 31.905 40.6469 31.8299V30.1965C40.6469 29.8919 40.5311 29.5997 40.325 29.3843C40.119 29.1689 39.8395 29.0479 39.548 29.0479C39.2566 29.0479 38.9772 29.1689 38.7711 29.3843C38.5651 29.5997 38.4492 29.8919 38.4492 30.1965V31.8438C37.9837 31.9287 37.528 32.0705 37.0917 32.2672C36.3826 32.5845 35.7707 33.0995 35.3227 33.7559C34.8883 34.3994 34.6577 35.1691 34.6634 35.9568C34.6544 36.4209 34.7352 36.8822 34.901 37.3129C35.0668 37.7436 35.3141 38.1349 35.6281 38.4632C36.2368 39.1065 37.116 39.5728 38.239 39.8416L40.0234 40.2758C40.4673 40.3555 40.8873 40.5428 41.2497 40.8226C41.3424 40.9028 41.4164 41.0041 41.4659 41.1188C41.5154 41.2335 41.5392 41.3585 41.5354 41.4842C41.5383 41.7186 41.4603 41.9461 41.3156 42.1252C41.1261 42.3513 40.8804 42.5183 40.6058 42.6077C40.197 42.7489 39.7682 42.8164 39.3378 42.8075C38.8325 42.8398 38.3289 42.7194 37.8873 42.4606C37.6949 42.3318 37.5423 42.1474 37.4478 41.9299C37.3335 41.6599 37.1475 41.4297 36.9118 41.2669C36.6761 41.104 36.4006 41.0152 36.1182 41.011H36.0347C35.7847 41.0106 35.539 41.0776 35.3211 41.2056C35.1032 41.3336 34.9206 41.5182 34.7909 41.7415C34.6614 41.9595 34.5878 42.2087 34.5775 42.4651C34.5671 42.7215 34.6201 42.9763 34.7315 43.205C34.8403 43.4276 34.9675 43.6397 35.1117 43.8391C35.5675 44.4533 36.1756 44.9253 36.8698 45.2037Z" fill="white"/>
<path fill-rule="evenodd" clip-rule="evenodd" d="M19.5878 30.6714C18.9363 28.5793 20.4996 26.4551 22.6908 26.4551H39.5357H39.572H56.4169C58.6081 26.4551 60.1714 28.5793 59.5199 30.6714L53.1677 51.0694C52.7447 52.4278 51.4873 53.3531 50.0647 53.3531H39.572H39.5357H29.043C27.6204 53.3531 26.363 52.4278 25.94 51.0694L19.5878 30.6714ZM39.5357 54.8531H29.043C26.9637 54.8531 25.1261 53.5007 24.5079 51.5154L18.1556 31.1174C17.2034 28.0597 19.4882 24.9551 22.6908 24.9551H39.5357H39.572H56.4169C59.6195 24.9551 61.9043 28.0597 60.9521 31.1174L54.5998 51.5154C53.9816 53.5007 52.144 54.8531 50.0647 54.8531H39.572H39.5357Z" fill="white"/>
<path d="M38.9355 15.1963H40.1338C43.5856 15.1963 46.3838 17.9945 46.3838 21.4463V25.5032H32.6855V21.4463C32.6855 17.9945 35.4838 15.1963 38.9355 15.1963Z" stroke="white" stroke-width="1.5"/>
<defs>
<filter id="filter0_d_826_2077" x="0.683594" y="0.141602" width="77.7109" height="102.455" filterUnits="userSpaceOnUse" color-interpolation-filters="sRGB">
<feFlood flood-opacity="0" result="BackgroundImageFix"/>
<feColorMatrix in="SourceAlpha" type="matrix" values="0 0 0 0 0 0 0 0 0 0 0 0 0 0 0 0 0 0 127 0" result="hardAlpha"/>
<feOffset dy="4"/>
<feGaussianBlur stdDeviation="2"/>
<feComposite in2="hardAlpha" operator="out"/>
<feColorMatrix type="matrix" values="0 0 0 0 0 0 0 0 0 0 0 0 0 0 0 0 0 0 0.25 0"/>
<feBlend mode="normal" in2="BackgroundImageFix" result="effect1_dropShadow_826_2077"/>
<feBlend mode="normal" in="SourceGraphic" in2="effect1_dropShadow_826_2077" result="shape"/>
</filter>
</defs>
</svg>
