<svg width="78" height="103" viewBox="0 0 78 103" fill="none" xmlns="http://www.w3.org/2000/svg">
<g filter="url(#filter0_d_884_2191)">
<path d="M70.1161 50.8242C72.509 46.096 73.864 40.7912 73.864 35.1405C73.864 15.8818 58.2668 0.284633 39.0082 0.284633C19.7495 0.284633 4.15234 15.8818 4.15234 35.1405C4.15234 40.7912 5.53616 46.096 7.90025 50.8242C9.60124 54.1973 10.9561 56.5015 13.7429 60.5425C18.9324 68.0672 25.6586 78.8855 32.1177 90.2641C34.8277 96.2319 43.3039 96.2319 46.0428 90.2641C53.8542 77.7388 56.9016 71.6983 64.4658 60.5425C66.8058 56.6243 68.4728 54.0532 70.1161 50.8242Z" fill="#E55530"/>
</g>
<g clip-path="url(#clip0_884_2191)">
<path d="M49.0847 52.2848H29.1181C25.9839 52.2848 23.3383 49.9503 22.9642 46.8551L21.146 31.8634C21.0462 31.0141 21.1227 30.1527 21.3702 29.3361C21.6177 28.5195 22.0306 27.7664 22.5817 27.1268C23.174 26.441 23.901 25.893 24.7145 25.519C25.5279 25.1449 26.4092 24.9535 27.2999 24.9573H50.9011C51.7918 24.9538 52.673 25.1454 53.4864 25.5194C54.2999 25.8934 55.0269 26.4413 55.6194 27.1268C56.1703 27.7665 56.5831 28.5197 56.8303 29.3362C57.0775 30.1528 57.1536 31.0143 57.0534 31.8634L55.2369 46.8551C54.8644 49.9503 52.2189 52.2848 49.0847 52.2848ZM27.3017 28.0838C26.8407 28.0797 26.3841 28.1767 25.9622 28.3683C25.5404 28.56 25.163 28.8419 24.8549 29.1955C24.5864 29.5016 24.3849 29.8637 24.2642 30.2573C24.1436 30.6508 24.1065 31.0665 24.1556 31.4761L25.9738 46.4677C26.1592 48.0014 27.5106 49.1582 29.1181 49.1582H49.0847C50.6922 49.1582 52.0453 48.0014 52.2307 46.4677L54.0472 31.4761C54.0967 31.0665 54.0599 30.6507 53.9392 30.2571C53.8185 29.8635 53.6168 29.5014 53.3479 29.1955C53.04 28.8422 52.6628 28.5603 52.2413 28.3687C51.8198 28.177 51.3636 28.0799 50.9029 28.0838H27.3017Z" fill="white"/>
<path d="M46.1368 28.0838H32.0664V23.5364C32.0686 21.6138 32.8106 19.7707 34.1295 18.4112C35.4483 17.0517 37.2364 16.287 39.1016 16.2847C40.9668 16.287 42.7549 17.0517 44.0738 18.4112C45.3927 19.7707 46.1346 21.6138 46.1368 23.5364V28.0838ZM35.0995 24.9573H43.1037V23.5364C43.1023 22.4428 42.6803 21.3943 41.93 20.621C41.1798 19.8476 40.1626 19.4126 39.1016 19.4112C38.0406 19.4126 37.0235 19.8476 36.2733 20.621C35.523 21.3943 35.1009 22.4428 35.0995 23.5364V24.9573Z" fill="white"/>
<path d="M40.3303 35.4068C39.9683 35.1595 39.5391 35.0378 39.1053 35.0594C38.7694 35.0537 38.4357 35.1156 38.1229 35.2418C37.8597 35.3468 37.6275 35.5204 37.4488 35.7455C37.2889 35.9456 37.2014 36.1967 37.2012 36.4559C37.2008 36.6087 37.2346 36.7596 37.3001 36.8967C37.3656 37.0338 37.4609 37.1534 37.5786 37.2463C37.9263 37.5057 38.3249 37.6835 38.7464 37.7673L40.0945 38.1147C40.9055 38.3162 41.5088 38.626 41.9043 39.044C42.1027 39.2553 42.2577 39.5058 42.3599 39.7804C42.4621 40.055 42.5094 40.3481 42.4991 40.642C42.5078 41.1572 42.3618 41.6625 42.0812 42.0889C41.7746 42.532 41.3528 42.877 40.8645 43.0841C40.2586 43.3418 39.6072 43.466 38.952 43.4489C38.3555 43.4628 37.7619 43.3597 37.2028 43.1449C36.7373 42.9651 36.3291 42.6561 36.0233 42.2521C35.9287 42.1227 35.8452 41.9849 35.7739 41.8405C35.722 41.7315 35.698 41.6107 35.704 41.4895C35.7101 41.3683 35.746 41.2507 35.8084 41.1477C35.8709 41.0448 35.9577 40.96 36.0607 40.9013C36.1638 40.8426 36.2797 40.8119 36.3974 40.8122H36.4614C36.5968 40.8142 36.7287 40.8562 36.8416 40.9332C36.9545 41.0101 37.0436 41.1189 37.0984 41.2464C37.2017 41.4824 37.3676 41.6835 37.577 41.8266C37.9022 42.0489 38.3504 42.1618 38.925 42.1618C39.3032 42.1703 39.68 42.1116 40.0388 41.9881C40.3223 41.8942 40.5749 41.7211 40.7685 41.4879C40.9374 41.2743 41.0275 41.0061 41.023 40.7306C41.026 40.5737 40.995 40.4181 40.9323 40.275C40.8696 40.132 40.7768 40.0052 40.6606 39.9038C40.3309 39.6435 39.9455 39.4684 39.5367 39.3931L38.1701 39.0666C37.3837 38.879 36.7844 38.5698 36.3721 38.139C36.17 37.9311 36.0109 37.683 35.9046 37.4098C35.7983 37.1366 35.747 36.844 35.7537 36.5497C35.7476 36.0436 35.8962 35.5483 36.1784 35.1341C36.477 34.7027 36.8851 34.3643 37.3579 34.1562C37.907 33.9142 38.4999 33.7958 39.0969 33.8088C39.6521 33.7977 40.2034 33.9053 40.7162 34.125C41.1584 34.3151 41.5435 34.6233 41.8318 35.0177C41.8926 35.1049 41.9489 35.1953 42.0003 35.2887C42.0609 35.3976 42.0927 35.521 42.0924 35.6466C42.0921 35.7721 42.0597 35.8953 41.9986 36.0039C41.9374 36.1125 41.8497 36.2026 41.7441 36.2652C41.6385 36.3278 41.5188 36.3606 41.397 36.3604V36.3604C41.27 36.3607 41.1454 36.3247 41.0371 36.2563C40.9288 36.1879 40.841 36.0898 40.7836 35.9731C40.6788 35.7495 40.5234 35.5553 40.3303 35.4068V35.4068Z" fill="white"/>
<path d="M38.9597 43.8796C38.3101 43.8928 37.6641 43.779 37.0556 43.5443C36.5232 43.3338 36.057 42.977 35.7075 42.5126C35.5969 42.3619 35.4994 42.2015 35.416 42.0332C35.3306 41.8603 35.2899 41.6676 35.2979 41.4738C35.3058 41.28 35.3622 41.0915 35.4615 40.9267C35.561 40.7579 35.701 40.6183 35.8681 40.5216C36.0351 40.4248 36.2236 40.3741 36.4152 40.3744H36.4792C36.6958 40.3776 36.9071 40.4447 37.0878 40.5678C37.2685 40.691 37.4111 40.865 37.4987 41.0692C37.5712 41.2336 37.6882 41.373 37.8358 41.4704C38.1744 41.6661 38.5605 41.7571 38.9479 41.7327C39.278 41.7394 39.6068 41.6883 39.9202 41.5816C40.1308 41.514 40.3191 41.3878 40.4645 41.2168C40.5754 41.0814 40.6352 40.9094 40.633 40.7322C40.6359 40.6371 40.6177 40.5426 40.5797 40.4559C40.5417 40.3692 40.485 40.2926 40.4139 40.232C40.1361 40.0204 39.814 39.8788 39.4736 39.8186L38.1054 39.4903C37.2443 39.2871 36.5702 38.9345 36.1035 38.4481C35.8627 38.1999 35.673 37.9041 35.5459 37.5785C35.4188 37.2528 35.3569 36.9041 35.3638 36.5531C35.3594 35.9576 35.5362 35.3757 35.8693 34.8891C36.2128 34.3928 36.682 34.0035 37.2257 33.7636C37.8293 33.4953 38.4812 33.3621 39.1383 33.3728C39.7517 33.36 40.361 33.4783 40.9279 33.7202C41.4382 33.9437 41.8813 34.3035 42.2119 34.7623C42.284 34.8627 42.3499 34.9677 42.4091 35.0767C42.508 35.2512 42.5601 35.4496 42.5601 35.6516C42.5601 35.8537 42.508 36.0521 42.4091 36.2266C42.3122 36.401 42.172 36.5457 42.0029 36.6458C41.8338 36.746 41.6418 36.7979 41.4468 36.7963C41.2419 36.797 41.0409 36.7389 40.8662 36.6284C40.6915 36.518 40.55 36.3596 40.4577 36.171C40.379 36.0099 40.2633 35.8709 40.1207 35.7663C39.8292 35.5771 39.4872 35.4871 39.1433 35.5092C38.8624 35.5038 38.5832 35.5546 38.321 35.6586C38.1239 35.7348 37.9496 35.8629 37.8155 36.0303C37.7152 36.1541 37.6597 36.3101 37.6588 36.4715C37.6581 36.5603 37.6782 36.6479 37.7172 36.7271C37.7562 36.8063 37.813 36.8747 37.8829 36.9266C38.1821 37.1434 38.5228 37.2921 38.8822 37.3625L40.2302 37.7099C41.1132 37.9305 41.7906 38.2831 42.2422 38.7521C42.4798 39.0047 42.6656 39.3041 42.7884 39.6324C42.9111 39.9606 42.9684 40.3111 42.9567 40.6627C42.9642 41.2644 42.793 41.8541 42.4663 42.3528C42.1153 42.8636 41.6317 43.2621 41.0711 43.5026C40.4006 43.7793 39.6813 43.9077 38.9597 43.8796V43.8796ZM36.4085 41.2429C36.361 41.2428 36.3143 41.2554 36.2729 41.2794C36.2316 41.3035 36.197 41.3382 36.1726 41.3801C36.1484 41.4186 36.1346 41.4629 36.1325 41.5087C36.1304 41.5545 36.1402 41.6 36.1608 41.6406C36.2201 41.7627 36.29 41.879 36.3697 41.988C36.6279 42.3298 36.9733 42.5909 37.3673 42.7419C37.8768 42.9349 38.417 43.0274 38.9597 43.0146C39.5556 43.031 40.1483 42.9199 40.7004 42.688C41.1173 42.5125 41.478 42.2201 41.7417 41.8439C41.9714 41.4885 42.0891 41.0687 42.0787 40.6419C42.0889 40.4044 42.0522 40.1672 41.9708 39.9448C41.8894 39.7224 41.7651 39.5193 41.6053 39.3479C41.2683 39.0005 40.7239 38.7191 39.996 38.5367L38.6395 38.1893C38.1556 38.0905 37.699 37.8816 37.3032 37.5779C37.1381 37.4443 37.0047 37.2736 36.913 37.0789C36.8213 36.8842 36.7738 36.6705 36.7741 36.4541C36.7735 36.0973 36.8926 35.7512 37.1111 35.4745C37.3371 35.1896 37.6309 34.9699 37.9638 34.837C38.3269 34.6899 38.7145 34.6174 39.1046 34.6234C39.6265 34.5997 40.1422 34.7475 40.5774 35.0454V35.0454C40.8273 35.2317 41.0301 35.4772 41.1688 35.7611C41.191 35.8063 41.2251 35.8442 41.267 35.8706C41.309 35.8969 41.3573 35.9108 41.4064 35.9104C41.4542 35.9111 41.5013 35.8985 41.5428 35.8741C41.5842 35.8496 41.6186 35.8142 41.6423 35.7715C41.6668 35.7286 41.6797 35.6797 41.6797 35.6299C41.6797 35.5802 41.6668 35.5313 41.6423 35.4884C41.6001 35.409 41.5522 35.3329 41.4991 35.2608C41.2566 34.926 40.9305 34.6655 40.5555 34.507C40.0958 34.3117 39.6017 34.2164 39.1046 34.2273C38.5665 34.2168 38.0324 34.3239 37.5375 34.5417C37.1336 34.7188 36.7841 35.0058 36.5264 35.372C36.294 35.7135 36.1725 36.1221 36.1793 36.5392C36.1723 36.7771 36.2129 37.014 36.2984 37.2351C36.3839 37.4562 36.5126 37.6569 36.6764 37.8246C37.0303 38.1928 37.5661 38.4655 38.2688 38.6322L39.6371 38.9605C40.1139 39.0495 40.5623 39.2576 40.943 39.5667C41.1039 39.7092 41.2324 39.8864 41.3198 40.0856C41.4071 40.2849 41.4511 40.5014 41.4485 40.72C41.4532 41.0941 41.3303 41.458 41.1014 41.7483C40.8596 42.0449 40.5421 42.2657 40.1847 42.3858C39.7801 42.5271 39.3549 42.5959 38.9277 42.589C38.2739 42.589 37.7481 42.4518 37.3487 42.1808C37.0744 41.9934 36.8567 41.7305 36.7202 41.4218C36.6994 41.3693 36.6643 41.3241 36.6192 41.2918C36.574 41.2594 36.5208 41.2412 36.4658 41.2394L36.4085 41.2429Z" fill="white"/>
<path d="M39.1043 34.665C38.8808 34.665 38.6666 34.5735 38.5086 34.4106C38.3505 34.2478 38.2617 34.0269 38.2617 33.7965V32.1986C38.2617 31.9682 38.3505 31.7473 38.5086 31.5844C38.6666 31.4216 38.8808 31.3301 39.1043 31.3301C39.3277 31.3301 39.542 31.4216 39.7 31.5844C39.858 31.7473 39.9468 31.9682 39.9468 32.1986V33.7965C39.9468 34.0269 39.858 34.2478 39.7 34.4106C39.542 34.5735 39.3277 34.665 39.1043 34.665Z" fill="white"/>
<path d="M39.1043 45.9118C38.8808 45.9118 38.6666 45.8203 38.5086 45.6575C38.3505 45.4946 38.2617 45.2737 38.2617 45.0434V43.4454C38.2617 43.215 38.3505 42.9941 38.5086 42.8313C38.6666 42.6684 38.8808 42.5769 39.1043 42.5769C39.3277 42.5769 39.542 42.6684 39.7 42.8313C39.858 42.9941 39.9468 43.215 39.9468 43.4454V45.0434C39.9468 45.2737 39.858 45.4946 39.7 45.6575C39.542 45.8203 39.3277 45.9118 39.1043 45.9118V45.9118Z" fill="white"/>
</g>
<defs>
<filter id="filter0_d_884_2191" x="0.152344" y="0.284668" width="77.7109" height="102.455" filterUnits="userSpaceOnUse" color-interpolation-filters="sRGB">
<feFlood flood-opacity="0" result="BackgroundImageFix"/>
<feColorMatrix in="SourceAlpha" type="matrix" values="0 0 0 0 0 0 0 0 0 0 0 0 0 0 0 0 0 0 127 0" result="hardAlpha"/>
<feOffset dy="4"/>
<feGaussianBlur stdDeviation="2"/>
<feComposite in2="hardAlpha" operator="out"/>
<feColorMatrix type="matrix" values="0 0 0 0 0 0 0 0 0 0 0 0 0 0 0 0 0 0 0.25 0"/>
<feBlend mode="normal" in2="BackgroundImageFix" result="effect1_dropShadow_884_2191"/>
<feBlend mode="normal" in="SourceGraphic" in2="effect1_dropShadow_884_2191" result="shape"/>
</filter>
<clipPath id="clip0_884_2191">
<rect width="36" height="36" fill="white" transform="translate(21.1016 16.2847)"/>
</clipPath>
</defs>
</svg>
