<svg width="79" height="103" viewBox="0 0 79 103" fill="none" xmlns="http://www.w3.org/2000/svg">
<g filter="url(#filter0_d_884_2180)">
<path d="M70.5614 50.8242C72.9543 46.096 74.3093 40.7912 74.3093 35.1405C74.3093 15.8818 58.7121 0.284633 39.4535 0.284633C20.1948 0.284633 4.59766 15.8818 4.59766 35.1405C4.59766 40.7912 5.98148 46.096 8.34556 50.8242C10.0466 54.1973 11.4014 56.5015 14.1883 60.5425C19.3777 68.0672 26.1039 78.8855 32.563 90.2641C35.2731 96.2319 43.7492 96.2319 46.4881 90.2641C54.2995 77.7388 57.3469 71.6983 64.9112 60.5425C67.2512 56.6243 68.9181 54.0532 70.5614 50.8242Z" fill="#E55530"/>
</g>
<path d="M38.2776 25.7564C38.2776 21.0818 35.698 16.2847 32.5187 16.2847C29.3393 16.2847 26.7598 21.0818 26.7598 25.7564C26.7598 28.9877 27.9926 31.3121 29.805 32.4396C30.1301 32.6387 30.3935 32.924 30.5661 33.2638C30.7387 33.6036 30.8137 33.9847 30.7826 34.3645L29.5368 48.6104C29.5097 48.7705 29.4957 48.9325 29.495 49.0949C29.4731 49.5056 29.535 49.9164 29.677 50.3024C29.819 50.6883 30.0382 51.0413 30.3211 51.3398C30.6041 51.6383 30.9448 51.876 31.3226 52.0384C31.7005 52.2009 32.1074 52.2847 32.5187 52.2847C32.9299 52.2847 33.3369 52.2009 33.7147 52.0384C34.0925 51.876 34.4333 51.6383 34.7162 51.3398C34.9992 51.0413 35.2183 50.6883 35.3604 50.3024C35.5024 49.9164 35.5643 49.5056 35.5423 49.0949C35.5412 48.9325 35.5267 48.7705 35.4991 48.6104L34.2547 34.3645C34.2236 33.9843 34.2989 33.603 34.472 33.2631C34.6452 32.9231 34.9094 32.638 35.2352 32.4396C37.0433 31.3121 38.2776 28.9877 38.2776 25.7564Z" fill="white"/>
<path d="M52.0726 27.3864L50.7403 18.3212C50.725 18.187 50.683 18.0572 50.6166 17.9395C50.5502 17.8218 50.4609 17.7187 50.3539 17.6362C50.247 17.5536 50.1245 17.4934 49.9938 17.4591C49.8632 17.4248 49.7269 17.4171 49.5932 17.4364C49.4595 17.4557 49.331 17.5017 49.2154 17.5715C49.0998 17.6414 48.9993 17.7338 48.9201 17.8432C48.8408 17.9526 48.7843 18.0768 48.754 18.2085C48.7236 18.3401 48.72 18.4765 48.7433 18.6096L49.7382 25.3778C49.7672 25.5746 49.7535 25.7753 49.6979 25.9662C49.6424 26.1572 49.5464 26.3339 49.4164 26.4845C49.2864 26.635 49.1255 26.7557 48.9447 26.8384C48.7638 26.9212 48.5673 26.964 48.3684 26.9639V26.9639C48.0013 26.9639 47.6492 26.8181 47.3896 26.5585C47.13 26.2989 46.9842 25.9468 46.9842 25.5797V18.5144C46.9887 18.2457 46.889 17.9857 46.7059 17.7889C46.5228 17.5921 46.2706 17.4738 46.0023 17.459C45.8674 17.4553 45.7332 17.4787 45.6076 17.5278C45.4819 17.5769 45.3674 17.6506 45.2708 17.7447C45.1741 17.8388 45.0973 17.9513 45.0449 18.0756C44.9925 18.1999 44.9655 18.3334 44.9655 18.4683V25.5855C44.9657 25.7672 44.9301 25.9471 44.8607 26.1151C44.7913 26.283 44.6895 26.4356 44.561 26.5642C44.4326 26.6927 44.2801 26.7947 44.1123 26.8643C43.9444 26.9339 43.7645 26.9697 43.5828 26.9697C43.384 26.9695 43.1876 26.9266 43.007 26.8438C42.8263 26.7609 42.6656 26.6402 42.5358 26.4897C42.4059 26.3392 42.31 26.1625 42.2546 25.9716C42.1991 25.7808 42.1854 25.5802 42.2144 25.3836L43.2093 18.6154C43.2326 18.4823 43.229 18.3459 43.1986 18.2142C43.1683 18.0826 43.1118 17.9584 43.0325 17.849C42.9533 17.7396 42.8529 17.6472 42.7372 17.5773C42.6216 17.5074 42.4931 17.4615 42.3594 17.4422C42.2257 17.4228 42.0895 17.4306 41.9588 17.4649C41.8281 17.4992 41.7057 17.5594 41.5987 17.6419C41.4917 17.7244 41.4024 17.8276 41.336 17.9453C41.2696 18.0629 41.2276 18.1928 41.2123 18.327L39.8785 27.3864C39.7092 28.4759 39.8323 29.5909 40.2354 30.6173C40.6385 31.6436 41.307 32.5444 42.1726 33.2275C42.4528 33.4439 42.7503 33.6368 43.0622 33.8042C43.4172 33.9925 43.7089 34.281 43.9012 34.6337C44.0935 34.9865 44.1778 35.388 44.1437 35.7883L42.9901 48.934C42.9625 49.094 42.948 49.2561 42.9469 49.4185C42.9883 50.1924 43.3249 50.921 43.8874 51.4542C44.4499 51.9875 45.1955 52.2847 45.9705 52.2847C46.7456 52.2847 47.4912 51.9875 48.0537 51.4542C48.6162 50.921 48.9528 50.1924 48.9942 49.4185C48.9935 49.2561 48.9795 49.0941 48.9524 48.934L47.7989 35.7883C47.7647 35.388 47.8491 34.9865 48.0413 34.6337C48.2336 34.281 48.5254 33.9925 48.8803 33.8042C49.1919 33.6371 49.489 33.4442 49.7685 33.2275C50.636 32.5456 51.3066 31.6454 51.7115 30.6189C52.1164 29.5925 52.241 28.4769 52.0726 27.3864V27.3864Z" fill="white"/>
<defs>
<filter id="filter0_d_884_2180" x="0.597656" y="0.284668" width="77.7109" height="102.455" filterUnits="userSpaceOnUse" color-interpolation-filters="sRGB">
<feFlood flood-opacity="0" result="BackgroundImageFix"/>
<feColorMatrix in="SourceAlpha" type="matrix" values="0 0 0 0 0 0 0 0 0 0 0 0 0 0 0 0 0 0 127 0" result="hardAlpha"/>
<feOffset dy="4"/>
<feGaussianBlur stdDeviation="2"/>
<feComposite in2="hardAlpha" operator="out"/>
<feColorMatrix type="matrix" values="0 0 0 0 0 0 0 0 0 0 0 0 0 0 0 0 0 0 0.25 0"/>
<feBlend mode="normal" in2="BackgroundImageFix" result="effect1_dropShadow_884_2180"/>
<feBlend mode="normal" in="SourceGraphic" in2="effect1_dropShadow_884_2180" result="shape"/>
</filter>
</defs>
</svg>
