<svg width="78" height="103" viewBox="0 0 78 103" fill="none" xmlns="http://www.w3.org/2000/svg">
<g filter="url(#filter0_d_826_2028)">
<path d="M69.9638 50.6855C72.3567 45.9573 73.7117 40.6526 73.7117 35.0018C73.7117 15.7432 58.1145 0.145961 38.8558 0.145961C19.5972 0.145961 4 15.7432 4 35.0018C4 40.6526 5.38382 45.9573 7.74791 50.6855C9.44889 54.0587 10.8037 56.3629 13.5906 60.4038C18.7801 67.9285 25.5062 78.7469 31.9654 90.1254C34.6754 96.0933 43.1516 96.0933 45.8904 90.1254C53.7018 77.6001 56.7493 71.5596 64.3135 60.4038C66.6535 56.4856 68.3204 53.9145 69.9638 50.6855Z" fill="#E55530"/>
</g>
<g clip-path="url(#clip0_826_2028)">
<path d="M38.8558 51.1382C35.4445 51.1382 32.1099 50.141 29.2736 48.2728C26.4373 46.4047 24.2268 43.7494 22.9216 40.6429C21.6165 37.5363 21.2753 34.118 21.9412 30.8203C22.6072 27.5226 24.2503 24.4937 26.6629 22.1165C29.0754 19.7394 32.149 18.1208 35.4949 17.4656C38.8408 16.8103 42.3086 17.1478 45.4599 18.4354C48.6112 19.7229 51.3043 21.9027 53.1986 24.699C55.0929 27.4953 56.1034 30.7825 56.1022 34.1449C56.0954 38.6507 54.276 42.9701 51.0429 46.1556C47.8099 49.3412 43.4271 51.133 38.8558 51.1382V51.1382ZM38.8558 18.635C35.7451 18.635 32.7042 19.5442 30.1177 21.2475C27.5312 22.9508 25.5151 25.3718 24.3244 28.2044C23.1337 31.0371 22.8219 34.1541 23.4283 37.1614C24.0347 40.1687 25.5322 42.9312 27.7314 45.0997C29.9305 47.2682 32.7326 48.7453 35.7834 49.3442C38.8342 49.9431 41.9966 49.6369 44.8709 48.4643C47.7452 47.2918 50.2022 45.3056 51.9313 42.7568C53.6604 40.2079 54.5839 37.211 54.5851 34.1449C54.5803 30.0345 52.9215 26.0937 49.9727 23.1872C47.024 20.2807 43.026 18.6457 38.8558 18.641V18.635Z" fill="white"/>
<path d="M38.8549 45.3204C36.6126 45.3204 34.4206 44.665 32.5562 43.4371C30.6918 42.2091 29.2387 40.4639 28.3806 38.4219C27.5225 36.38 27.298 34.1331 27.7354 31.9654C28.1729 29.7977 29.2527 27.8066 30.8382 26.2437C32.4238 24.6809 34.4438 23.6166 36.6431 23.1854C38.8423 22.7542 41.1219 22.9755 43.1935 23.8213C45.2651 24.6671 47.0357 26.0994 48.2815 27.9371C49.5272 29.7748 50.1922 31.9354 50.1922 34.1455C50.1889 37.1083 48.9935 39.9488 46.868 42.0438C44.7426 44.1388 41.8607 45.3172 38.8549 45.3204V45.3204ZM38.8549 24.4661C36.9126 24.4661 35.014 25.0338 33.3991 26.0974C31.7842 27.1609 30.5255 28.6727 29.7822 30.4414C29.0389 32.2101 28.8444 34.1563 29.2233 36.0339C29.6023 37.9115 30.5376 39.6362 31.9109 40.9899C33.2843 42.3436 35.0341 43.2655 36.9391 43.639C38.844 44.0125 40.8185 43.8208 42.6129 43.0882C44.4073 42.3556 45.941 41.1149 47.0201 39.5232C48.0992 37.9314 48.6751 36.0599 48.6751 34.1455C48.6718 31.5793 47.6362 29.1192 45.7952 27.3046C43.9543 25.49 41.4584 24.4692 38.8549 24.4661V24.4661Z" fill="white"/>
<path d="M60.5397 19.8855V23.6957C60.5393 23.7499 60.5173 23.8018 60.4784 23.8401C60.4395 23.8785 60.3869 23.9002 60.3319 23.9006V23.9006C60.2766 23.9006 60.2235 23.879 60.1843 23.8407C60.1451 23.8023 60.1229 23.7502 60.1225 23.6957V19.8855C60.1225 19.8312 60.1006 19.7791 60.0616 19.7407C60.0226 19.7022 59.9698 19.6807 59.9147 19.6807H59.7462C59.6911 19.6807 59.6382 19.7022 59.5993 19.7407C59.5603 19.7791 59.5384 19.8312 59.5384 19.8855V23.6957C59.5384 23.75 59.5165 23.8021 59.4776 23.8406C59.4386 23.879 59.3857 23.9006 59.3306 23.9006C59.2755 23.9006 59.2226 23.879 59.1836 23.8406C59.1446 23.8021 59.1227 23.75 59.1227 23.6957V19.8855C59.1227 19.8312 59.1008 19.7791 59.0618 19.7407C59.0229 19.7022 58.97 19.6807 58.9149 19.6807H58.7404C58.6853 19.6807 58.6324 19.7022 58.5934 19.7407C58.5545 19.7791 58.5326 19.8312 58.5326 19.8855V23.6957C58.5322 23.7502 58.5099 23.8023 58.4707 23.8407C58.4315 23.879 58.3785 23.9006 58.3232 23.9006V23.9006C58.2682 23.9002 58.2156 23.8785 58.1767 23.8401C58.1378 23.8018 58.1157 23.7499 58.1153 23.6957V19.8855C58.1153 19.8312 58.0934 19.7791 58.0545 19.7407C58.0155 19.7022 57.9626 19.6807 57.9075 19.6807H57.7391C57.684 19.6807 57.6311 19.7022 57.5921 19.7407C57.5532 19.7791 57.5312 19.8312 57.5312 19.8855V25.4901C57.5316 25.8451 57.606 26.1962 57.7498 26.5216C57.8936 26.847 58.1037 27.1398 58.3672 27.3818L58.3763 27.3892C58.4866 27.4904 58.5729 27.6143 58.6293 27.752C58.6857 27.8897 58.7107 28.038 58.7025 28.1863L57.7391 46.8603C57.7322 46.9444 57.7322 47.0289 57.7391 47.113C57.7662 47.507 57.9405 47.8772 58.2282 48.1519C58.516 48.4267 58.8968 48.5867 59.2972 48.6009C59.5112 48.6065 59.7242 48.5698 59.9236 48.493C60.123 48.4161 60.3047 48.3007 60.4581 48.1536C60.6115 48.0064 60.7335 47.8304 60.8168 47.6361C60.9001 47.4417 60.9431 47.2328 60.9432 47.0218C60.9426 46.9381 60.935 46.8546 60.9205 46.7721L59.9541 28.1818C59.9466 28.0337 59.9721 27.8857 60.0287 27.7483C60.0853 27.6109 60.1717 27.4873 60.2818 27.3863V27.3863C60.5453 27.1443 60.7554 26.8515 60.8992 26.5261C61.043 26.2007 61.1174 25.8496 61.1177 25.4946V19.8855C61.1177 19.8312 61.0958 19.7791 61.0568 19.7407C61.0178 19.7022 60.965 19.6807 60.9098 19.6807H60.7415C60.6874 19.6822 60.6361 19.7045 60.5984 19.7427C60.5607 19.781 60.5396 19.8322 60.5397 19.8855V19.8855Z" fill="white"/>
<path d="M21.9453 23.7152C21.9453 21.5005 20.5799 19.7031 18.9004 19.7031C17.221 19.7031 15.8556 21.4976 15.8556 23.7152C15.8487 24.5505 16.0575 25.3739 16.4625 26.1077C16.7714 26.6898 17.2516 27.1662 17.84 27.4745C17.9624 27.5283 18.0681 27.6131 18.1465 27.7203C18.2248 27.8274 18.273 27.9531 18.286 28.0846C18.286 28.1205 18.286 28.1564 18.286 28.1923L17.3212 46.8663C17.3036 47.0368 17.3138 47.209 17.3515 47.3763C17.4384 47.7555 17.6642 48.0899 17.9856 48.3154C18.307 48.541 18.7014 48.6418 19.0935 48.5987C19.4855 48.5556 19.8477 48.3715 20.1108 48.0817C20.3738 47.7919 20.5192 47.4167 20.5192 47.0278C20.5186 46.9441 20.5109 46.8606 20.4964 46.7781L19.5361 28.1833V28.1594C19.536 28.0155 19.5775 27.8745 19.6556 27.753C19.7338 27.6314 19.8455 27.5343 19.9776 27.473C21.1245 26.9003 21.9453 25.4348 21.9453 23.7152Z" fill="white"/>
</g>
<defs>
<filter id="filter0_d_826_2028" x="0" y="0.145996" width="77.7109" height="102.455" filterUnits="userSpaceOnUse" color-interpolation-filters="sRGB">
<feFlood flood-opacity="0" result="BackgroundImageFix"/>
<feColorMatrix in="SourceAlpha" type="matrix" values="0 0 0 0 0 0 0 0 0 0 0 0 0 0 0 0 0 0 127 0" result="hardAlpha"/>
<feOffset dy="4"/>
<feGaussianBlur stdDeviation="2"/>
<feComposite in2="hardAlpha" operator="out"/>
<feColorMatrix type="matrix" values="0 0 0 0 0 0 0 0 0 0 0 0 0 0 0 0 0 0 0.25 0"/>
<feBlend mode="normal" in2="BackgroundImageFix" result="effect1_dropShadow_826_2028"/>
<feBlend mode="normal" in="SourceGraphic" in2="effect1_dropShadow_826_2028" result="shape"/>
</filter>
<clipPath id="clip0_826_2028">
<rect width="46" height="34" fill="white" transform="translate(15.8555 17.146)"/>
</clipPath>
</defs>
</svg>
