<svg width="54" height="70" viewBox="0 0 54 70" fill="none" xmlns="http://www.w3.org/2000/svg">
<g filter="url(#filter0_d_671_2026)">
<path d="M46.7062 32.7202C48.2554 29.6591 49.1326 26.2247 49.1326 22.5663C49.1326 10.0979 39.0347 -3.05176e-05 26.5663 -3.05176e-05C14.0979 -3.05176e-05 4 10.0979 4 22.5663C4 26.2247 4.89591 29.6591 6.42646 32.7202C7.52772 34.9041 8.40487 36.3958 10.2091 39.012C13.5689 43.8836 17.9235 50.8877 22.1053 58.2543C23.8598 62.118 29.3475 62.118 31.1207 58.2543C36.1779 50.1452 38.1509 46.2345 43.0481 39.012C44.563 36.4753 45.6423 34.8107 46.7062 32.7202Z" fill="#5975BD"/>
</g>
<path d="M18.7996 18.9183C20.3145 18.9183 21.5425 17.6902 21.5425 16.1753C21.5425 14.6604 20.3145 13.4324 18.7996 13.4324C17.2847 13.4324 16.0566 14.6604 16.0566 16.1753C16.0566 17.6902 17.2847 18.9183 18.7996 18.9183Z" fill="white"/>
<path d="M34.3328 18.9183C35.8477 18.9183 37.0757 17.6902 37.0757 16.1753C37.0757 14.6604 35.8477 13.4324 34.3328 13.4324C32.8179 13.4324 31.5898 14.6604 31.5898 16.1753C31.5898 17.6902 32.8179 18.9183 34.3328 18.9183Z" fill="white"/>
<path fill-rule="evenodd" clip-rule="evenodd" d="M16.5046 21.0584C17.5196 19.7908 19.37 19.586 20.6377 20.601L36.1713 33.0388C37.4389 34.0538 37.6437 35.9042 36.6287 37.1719C35.6137 38.4395 33.7633 38.6443 32.4956 37.6293L16.962 25.1915C15.6944 24.1765 15.4896 22.3261 16.5046 21.0584Z" fill="#CACACA"/>
<path fill-rule="evenodd" clip-rule="evenodd" d="M34.333 19.9558C35.9569 19.9558 37.2733 21.2723 37.2733 22.8962V35.334C37.2733 36.9579 35.9569 38.2744 34.333 38.2744C32.709 38.2744 31.3926 36.9579 31.3926 35.334V22.8962C31.3926 21.2723 32.709 19.9558 34.333 19.9558Z" fill="white"/>
<path fill-rule="evenodd" clip-rule="evenodd" d="M18.7998 19.9558C20.4237 19.9558 21.7401 21.2723 21.7401 22.8962V35.334C21.7401 36.9579 20.4237 38.2744 18.7998 38.2744C17.1758 38.2744 15.8594 36.9579 15.8594 35.334V22.8962C15.8594 21.2723 17.1758 19.9558 18.7998 19.9558Z" fill="white"/>
<defs>
<filter id="filter0_d_671_2026" x="0" y="-3.05176e-05" width="53.1328" height="69.1521" filterUnits="userSpaceOnUse" color-interpolation-filters="sRGB">
<feFlood flood-opacity="0" result="BackgroundImageFix"/>
<feColorMatrix in="SourceAlpha" type="matrix" values="0 0 0 0 0 0 0 0 0 0 0 0 0 0 0 0 0 0 127 0" result="hardAlpha"/>
<feOffset dy="4"/>
<feGaussianBlur stdDeviation="2"/>
<feComposite in2="hardAlpha" operator="out"/>
<feColorMatrix type="matrix" values="0 0 0 0 0 0 0 0 0 0 0 0 0 0 0 0 0 0 0.25 0"/>
<feBlend mode="normal" in2="BackgroundImageFix" result="effect1_dropShadow_671_2026"/>
<feBlend mode="normal" in="SourceGraphic" in2="effect1_dropShadow_671_2026" result="shape"/>
</filter>
</defs>
</svg>
