<svg width="79" height="103" viewBox="0 0 79 103" fill="none" xmlns="http://www.w3.org/2000/svg">
<g filter="url(#filter0_d_826_2052)">
<path d="M70.804 50.6836C73.1968 45.9552 74.5518 40.6502 74.5518 34.9991C74.5518 15.7395 58.955 0.141566 39.6968 0.141566C20.4386 0.141566 4.8418 15.7395 4.8418 34.9991C4.8418 40.6502 6.22558 45.9552 8.58961 50.6836C10.2906 54.0569 11.6454 56.3612 14.4322 60.4024C19.6215 67.9275 26.3475 78.7464 32.8065 90.1254C35.5165 96.0936 43.9924 96.0936 46.7312 90.1254C54.5424 77.5996 57.5898 71.5588 65.1538 60.4024C67.4938 56.484 69.1607 53.9128 70.804 50.6836Z" fill="white"/>
</g>
<g clip-path="url(#clip0_826_2052)">
<path d="M39.698 41.3792C38.1671 41.3803 36.6702 40.9274 35.3968 40.0776C34.1234 39.2279 33.1305 38.0196 32.5439 36.6056C31.9572 35.1915 31.8032 33.6353 32.1011 32.1336C32.3991 30.632 33.1358 29.2525 34.218 28.1696C35.3001 27.0867 36.679 26.3491 38.1804 26.05C39.6818 25.7509 41.2382 25.9039 42.6527 26.4895C44.0672 27.0751 45.2762 28.067 46.1268 29.3398C46.9775 30.6126 47.4315 32.1091 47.4315 33.64C47.4293 35.6909 46.614 37.6573 45.1643 39.108C43.7146 40.5588 41.7489 41.3755 39.698 41.3792V41.3792ZM39.698 28.6986C38.7197 28.6975 37.7632 28.9866 36.9493 29.5293C36.1354 30.0721 35.5008 30.844 35.1258 31.7475C34.7508 32.651 34.6522 33.6455 34.8426 34.605C35.033 35.5645 35.5038 36.446 36.1953 37.1379C36.8868 37.8299 37.7679 38.3011 38.7274 38.492C39.6868 38.6829 40.6814 38.5849 41.5851 38.2104C42.4888 37.836 43.261 37.2018 43.8042 36.3883C44.3474 35.5747 44.6371 34.6183 44.6366 33.64C44.6344 32.3307 44.1134 31.0755 43.1878 30.1494C42.2622 29.2232 41.0073 28.7016 39.698 28.6986V28.6986Z" fill="#E55530"/>
<path d="M39.6995 50.6919C36.3275 50.6919 33.0313 49.692 30.2276 47.8186C27.4239 45.9452 25.2386 43.2825 23.9482 40.1672C22.6578 37.0519 22.3202 33.6239 22.978 30.3167C23.6358 27.0095 25.2596 23.9717 27.6439 21.5873C30.0283 19.203 33.0663 17.5792 36.3735 16.9214C39.6807 16.2635 43.1086 16.6011 46.224 17.8915C49.3393 19.1819 52.002 21.3672 53.8753 24.1709C55.7487 26.9746 56.7486 30.2708 56.7486 33.6428C56.7427 38.1627 54.9445 42.4958 51.7484 45.6918C48.5524 48.8878 44.2194 50.686 39.6995 50.6919V50.6919ZM39.6995 19.3887C36.8803 19.3887 34.1245 20.2247 31.7804 21.7909C29.4363 23.3572 27.6092 25.5834 26.5303 28.188C25.4515 30.7926 25.1693 33.6586 25.7193 36.4237C26.2693 39.1887 27.6268 41.7286 29.6203 43.722C31.6138 45.7155 34.1536 47.0731 36.9187 47.6231C39.6837 48.1731 42.5497 47.8908 45.1543 46.8119C47.7589 45.7331 49.9851 43.9061 51.5514 41.562C53.1176 39.2179 53.9537 36.462 53.9537 33.6428C53.9507 29.8628 52.4481 26.2383 49.7757 23.5649C47.1034 20.8915 43.4796 19.3875 39.6995 19.3831V19.3887Z" fill="#E55530"/>
<path d="M59.8006 35.0376H50.9072C50.5366 35.0376 50.1811 34.8904 49.919 34.6283C49.657 34.3662 49.5098 34.0108 49.5098 33.6401C49.5098 33.2695 49.657 32.9141 49.919 32.652C50.1811 32.3899 50.5366 32.2427 50.9072 32.2427H59.8006C60.1713 32.2427 60.5268 32.3899 60.7888 32.652C61.0509 32.9141 61.1981 33.2695 61.1981 33.6401C61.1981 34.0108 61.0509 34.3662 60.7888 34.6283C60.5268 34.8904 60.1713 35.0376 59.8006 35.0376V35.0376Z" fill="#E55530"/>
<path d="M28.491 35.0376H19.5947C19.2241 35.0376 18.8686 34.8904 18.6065 34.6283C18.3445 34.3662 18.1973 34.0108 18.1973 33.6401C18.1973 33.2695 18.3445 32.9141 18.6065 32.652C18.8686 32.3899 19.2241 32.2427 19.5947 32.2427H28.491C28.8616 32.2427 29.2171 32.3899 29.4792 32.652C29.7413 32.9141 29.8885 33.2695 29.8885 33.6401C29.8885 34.0108 29.7413 34.3662 29.4792 34.6283C29.2171 34.8904 28.8616 35.0376 28.491 35.0376V35.0376Z" fill="#E55530"/>
<path d="M39.6982 23.83C39.3276 23.83 38.9721 23.6828 38.7101 23.4207C38.448 23.1586 38.3008 22.8032 38.3008 22.4325V13.5391C38.3008 13.1684 38.448 12.813 38.7101 12.5509C38.9721 12.2888 39.3276 12.1416 39.6982 12.1416C40.0689 12.1416 40.4244 12.2888 40.6864 12.5509C40.9485 12.813 41.0957 13.1684 41.0957 13.5391V22.4325C41.0957 22.8032 40.9485 23.1586 40.6864 23.4207C40.4244 23.6828 40.0689 23.83 39.6982 23.83Z" fill="#E55530"/>
<path d="M39.6982 55.1414C39.3276 55.1414 38.9721 54.9942 38.7101 54.7321C38.448 54.47 38.3008 54.1146 38.3008 53.7439V44.8477C38.3008 44.477 38.448 44.1216 38.7101 43.8595C38.9721 43.5974 39.3276 43.4502 39.6982 43.4502C40.0689 43.4502 40.4244 43.5974 40.6864 43.8595C40.9485 44.1216 41.0957 44.477 41.0957 44.8477V53.7439C41.0957 54.1146 40.9485 54.47 40.6864 54.7321C40.4244 54.9942 40.0689 55.1414 39.6982 55.1414Z" fill="#E55530"/>
</g>
<defs>
<filter id="filter0_d_826_2052" x="0.841797" y="0.141602" width="77.7109" height="102.46" filterUnits="userSpaceOnUse" color-interpolation-filters="sRGB">
<feFlood flood-opacity="0" result="BackgroundImageFix"/>
<feColorMatrix in="SourceAlpha" type="matrix" values="0 0 0 0 0 0 0 0 0 0 0 0 0 0 0 0 0 0 127 0" result="hardAlpha"/>
<feOffset dy="4"/>
<feGaussianBlur stdDeviation="2"/>
<feComposite in2="hardAlpha" operator="out"/>
<feColorMatrix type="matrix" values="0 0 0 0 0 0 0 0 0 0 0 0 0 0 0 0 0 0 0.25 0"/>
<feBlend mode="normal" in2="BackgroundImageFix" result="effect1_dropShadow_826_2052"/>
<feBlend mode="normal" in="SourceGraphic" in2="effect1_dropShadow_826_2052" result="shape"/>
</filter>
<clipPath id="clip0_826_2052">
<rect width="43" height="43" fill="white" transform="translate(18.1973 12.1416)"/>
</clipPath>
</defs>
</svg>
