<svg width="40" height="40" viewBox="0 0 40 40" fill="none" xmlns="http://www.w3.org/2000/svg">
<path d="M6.46064 9.36944L6.53856 9.50952L8.21949 8.5744L8.14156 8.43432C7.65203 7.53938 7.74015 6.94841 8.22232 6.12155C8.77659 5.15452 8.94941 4.19126 8.36496 3.14068C7.49006 1.56799 5.72212 1.34255 3.94569 2.33081C2.3157 3.23759 1.46315 4.83746 2.42665 6.64434L4.23492 5.63838C3.84596 4.87925 4.18029 4.17632 4.76889 3.84054C5.39005 3.50332 6.11693 3.6409 6.46477 4.28116C6.79701 4.86339 6.59003 5.49548 6.24081 6.15666C5.74241 7.05925 5.58501 7.78048 6.46064 9.36944ZM7.35351 11.4241C7.6702 12.0233 8.41976 12.2316 9.01827 11.8987C9.58495 11.5834 9.80956 10.8331 9.48014 10.241C9.15427 9.6552 8.39834 9.45041 7.8352 9.77203C7.23315 10.0986 7.0149 10.8454 7.35351 11.4241Z" fill="#773222"/>
<path d="M11.1167 6.29159L11.1054 6.39422L12.337 6.52904L12.3483 6.4264C12.4244 5.7738 12.6909 5.4961 13.2523 5.24124C13.9037 4.93959 14.3534 4.49783 14.4376 3.72808C14.5638 2.57579 13.7188 1.79875 12.4172 1.65627C11.2229 1.52554 10.179 2.0486 10.0122 3.35695L11.3371 3.50198C11.4155 2.9582 11.853 2.71339 12.2874 2.75622C12.7394 2.81042 13.0701 3.15349 13.0143 3.61949C12.972 4.04919 12.6278 4.30421 12.198 4.52154C11.5999 4.81015 11.2485 5.13048 11.1167 6.29159ZM10.8205 7.70379C10.7636 8.13663 11.0799 8.52532 11.5184 8.57333C11.9336 8.61878 12.3311 8.30821 12.3786 7.87436C12.4256 7.44517 12.1047 7.05596 11.689 7.01518C11.251 6.96251 10.8581 7.27358 10.8205 7.70379Z" fill="#773222"/>
<path d="M22.2112 7.64429C19.5562 7.64429 16.7153 7.79039 14.7187 9.20965C12.8071 10.5924 12.7274 12.116 12.6849 14.0884C12.5801 15.3419 12.0851 16.5333 11.2671 17.5008C10.4706 18.5444 8.96256 18.2574 8.18198 18.7584C6.37656 19.9219 5.89333 21.8891 5.78713 23.0944C5.67709 25.1232 5.8994 27.1563 6.44558 29.1158C8.76077 35.6121 11.6229 38.9985 22.4077 39.6664C31.557 40.2299 38.5928 34.2972 39.0336 25.5103C39.4849 16.5303 34.1961 7.64429 22.2112 7.64429Z" fill="#D48F5D"/>
<path d="M22.4667 7.378C18.8824 7.378 13.1369 7.79021 12.2873 12.1524C12.112 13.0655 12.2342 14.0099 12.0483 14.9178C11.9297 15.4443 11.7367 15.9519 11.4748 16.4258C11.1934 16.9476 10.827 17.6781 10.2694 17.9912C9.52072 18.3721 8.60739 18.2625 7.85866 18.6904C7.03841 19.1859 6.37468 19.8959 5.94173 20.741C5.09212 22.3377 5.10273 24.2004 5.26734 25.9589C5.41224 27.587 5.79496 29.1862 6.40371 30.7071C7.38076 33.1282 8.73483 35.4397 10.9279 36.9686C13.6573 38.8992 17.146 39.5305 20.4276 39.8436C24.2774 40.2141 28.1113 39.8802 31.5788 38.0904C34.6447 36.5157 37.0558 33.9398 38.3969 30.8063C39.6986 27.5437 40.0067 23.9795 39.2837 20.5479C38.7174 17.3584 37.2129 14.4017 34.956 12.0428C32.4214 9.57317 29.1219 8.00348 25.5784 7.58151C24.5418 7.44336 23.4968 7.37536 22.4508 7.378C22.0844 7.378 21.2082 7.89979 21.9729 7.89979C25.605 7.89979 29.2424 8.8077 32.1788 10.9679C34.6491 12.8393 36.4899 15.3972 37.4624 18.3095C39.5864 24.4039 38.5828 31.9125 33.3524 36.2016C30.698 38.3218 27.3741 39.4658 23.9535 39.4366C21.9453 39.4297 19.9426 39.2288 17.9744 38.8366C16.4573 38.568 14.9826 38.1048 13.5882 37.459C11.3476 36.3444 9.54028 34.5391 8.44278 32.3195C6.95453 29.584 6.22217 26.5129 6.31874 23.4125C6.38778 21.7585 6.9825 19.8905 8.44278 18.9304C9.09592 18.5025 10.0358 18.5808 10.7686 18.2521C11.5836 17.7961 12.2222 17.0879 12.5846 16.238C13.0094 15.444 13.2369 14.5625 13.2484 13.6656C13.2273 12.8029 13.3585 11.9431 13.636 11.1244C14.4272 9.12599 16.6362 8.31722 18.6381 8.06154C19.7377 7.93455 20.8447 7.88051 21.9516 7.89979C22.3393 7.93632 23.2207 7.378 22.4667 7.378Z" fill="#13130A"/>
<path d="M23.5833 12.7627C23.5833 12.688 23.553 12.6163 23.4993 12.5635C23.4455 12.5106 23.3726 12.481 23.2965 12.481C23.2205 12.481 23.1475 12.5106 23.0938 12.5635C23.04 12.6163 23.0098 12.688 23.0098 12.7627C23.0115 12.8302 23.0337 12.8956 23.0735 12.9506L23.2116 13.1906C23.2196 13.2059 23.2318 13.2188 23.2468 13.2278C23.2618 13.2367 23.279 13.2415 23.2965 13.2415C23.3141 13.2415 23.3313 13.2367 23.3463 13.2278C23.3613 13.2188 23.3734 13.2059 23.3815 13.1906L23.5302 12.9349C23.5636 12.8834 23.5819 12.8238 23.5833 12.7627Z" fill="#13130A"/>
<path d="M24.8332 12.1106C24.9104 12.0343 24.9537 11.9312 24.9537 11.8236C24.9537 11.7161 24.9104 11.6129 24.8332 11.5366C24.7919 11.5024 24.744 11.4767 24.6924 11.4608C24.6409 11.4449 24.5866 11.4392 24.5328 11.4441C24.4789 11.4489 24.4266 11.4642 24.3789 11.489C24.3311 11.5139 24.2888 11.5478 24.2544 11.5888C24.1886 11.659 24.1493 11.7492 24.1429 11.8445L24.058 12.2202C24.0527 12.2431 24.0538 12.2669 24.0612 12.2892C24.0685 12.3116 24.0819 12.3315 24.0998 12.347C24.1177 12.3625 24.1396 12.373 24.1631 12.3773C24.1866 12.3816 24.2108 12.3796 24.2332 12.3715L24.6315 12.241C24.7095 12.2164 24.7793 12.1713 24.8332 12.1106Z" fill="#13130A"/>
<path d="M24.9395 12.9248C24.9575 12.8991 24.9702 12.8703 24.9767 12.8398C24.9833 12.8093 24.9836 12.7779 24.9777 12.7473C24.9717 12.7167 24.9597 12.6876 24.9422 12.6616C24.9247 12.6356 24.9021 12.6133 24.8758 12.596C24.8486 12.5801 24.8185 12.5696 24.7872 12.5652C24.7559 12.5607 24.724 12.5624 24.6934 12.5702C24.6628 12.578 24.634 12.5916 24.6088 12.6104C24.5836 12.6292 24.5624 12.6526 24.5465 12.6795C24.5171 12.7265 24.5023 12.7809 24.5041 12.8361V13.0604C24.5032 13.0736 24.506 13.0868 24.5122 13.0986C24.5184 13.1103 24.5277 13.1202 24.5391 13.1272C24.5506 13.1342 24.5637 13.1379 24.5772 13.1381C24.5907 13.1383 24.6039 13.1349 24.6156 13.1283L24.8386 13.0187C24.8804 12.9972 24.9154 12.9646 24.9395 12.9248Z" fill="#13130A"/>
<path d="M18.8354 12.6689C18.8182 12.6152 18.7896 12.5657 18.7514 12.5237C18.7133 12.4818 18.6664 12.4482 18.6141 12.4254C18.5617 12.4026 18.505 12.391 18.4477 12.3914C18.3904 12.3917 18.3339 12.4041 18.2818 12.4276C18.2298 12.4511 18.1834 12.4853 18.1458 12.5278C18.1083 12.5703 18.0803 12.6201 18.0639 12.674C18.0474 12.7279 18.0428 12.7847 18.0504 12.8405C18.058 12.8963 18.0776 12.9499 18.1079 12.9976C18.1497 13.0826 18.2162 13.1535 18.2991 13.2011L18.6177 13.4255C18.6361 13.4416 18.6588 13.4522 18.6832 13.4559C18.7075 13.4596 18.7325 13.4563 18.755 13.4463C18.7774 13.4364 18.7965 13.4203 18.8098 13.3999C18.8232 13.3795 18.8302 13.3558 18.8301 13.3316L18.8726 12.9193C18.8865 12.8341 18.8735 12.7467 18.8354 12.6689Z" fill="#13130A"/>
<path d="M20.7086 14.0933C20.6653 13.9971 20.5862 13.9208 20.4875 13.8801C20.3887 13.8393 20.2779 13.8372 20.1776 13.8742C20.0798 13.9234 20.0055 14.0083 19.9707 14.1108C19.936 14.2132 19.9435 14.325 19.9918 14.4221C20.0341 14.507 20.1029 14.5765 20.1883 14.6203L20.5015 14.8447C20.5199 14.8608 20.5427 14.8714 20.567 14.8751C20.5914 14.8788 20.6163 14.8755 20.6388 14.8656C20.6613 14.8556 20.6803 14.8395 20.6937 14.8191C20.707 14.7987 20.7141 14.775 20.714 14.7508L20.7564 14.3386C20.7633 14.2541 20.7468 14.1693 20.7086 14.0933Z" fill="#13130A"/>
<path d="M21.802 14.3074C21.7508 14.403 21.74 14.5146 21.7718 14.6181C21.8036 14.7215 21.8754 14.8086 21.9719 14.8605C22.0701 14.8998 22.1799 14.9006 22.2787 14.8627C22.3774 14.8249 22.4577 14.7512 22.5029 14.657C22.5435 14.5706 22.5565 14.4742 22.5401 14.3804V13.9943C22.5403 13.9706 22.5337 13.9473 22.5211 13.9271C22.5084 13.9069 22.4901 13.8907 22.4684 13.8803C22.4467 13.8699 22.4225 13.8658 22.3985 13.8684C22.3745 13.8711 22.3518 13.8803 22.333 13.8952L21.9825 14.1247C21.9056 14.1672 21.8429 14.2306 21.802 14.3074Z" fill="#13130A"/>
<path d="M23.4372 11.0669C23.425 11.0353 23.4066 11.0065 23.3831 10.982C23.3595 10.9574 23.3313 10.9377 23.3 10.9239C23.2687 10.9101 23.2349 10.9025 23.2006 10.9015C23.1663 10.9005 23.1321 10.9062 23.1001 10.9181C23.068 10.9301 23.0386 10.9482 23.0137 10.9714C22.9887 10.9945 22.9686 11.0223 22.9546 11.053C22.9405 11.0838 22.9328 11.117 22.9318 11.1507C22.9308 11.1844 22.9365 11.218 22.9487 11.2495C22.9726 11.3068 23.0133 11.3558 23.0655 11.3904L23.262 11.5521C23.2728 11.5636 23.2869 11.5716 23.3024 11.5752C23.3179 11.5787 23.3342 11.5776 23.349 11.572C23.3639 11.5664 23.3767 11.5565 23.3858 11.5436C23.3949 11.5308 23.3999 11.5156 23.4001 11.4999L23.4479 11.2338C23.4601 11.1783 23.4564 11.1205 23.4372 11.0669Z" fill="#13130A"/>
<path d="M22.5355 11.9227C22.5176 11.8729 22.4897 11.8272 22.4533 11.7883C22.4169 11.7493 22.3729 11.7181 22.3239 11.6963C22.2749 11.6746 22.222 11.6628 22.1682 11.6617C22.1144 11.6606 22.061 11.6702 22.0112 11.69C21.9613 11.7097 21.916 11.7392 21.878 11.7766C21.8401 11.814 21.8102 11.8586 21.7902 11.9076C21.7702 11.9567 21.7606 12.0092 21.7618 12.062C21.7631 12.1148 21.7752 12.1668 21.7974 12.2149C21.8334 12.3017 21.8966 12.3748 21.978 12.4237L22.286 12.6637C22.3037 12.6793 22.3255 12.6898 22.3489 12.6939C22.3724 12.6981 22.3965 12.6956 22.4186 12.6869C22.4407 12.6782 22.4599 12.6636 22.474 12.6448C22.4881 12.6259 22.4965 12.6035 22.4984 12.5802L22.5621 12.168C22.5767 12.0854 22.5675 12.0004 22.5355 11.9227Z" fill="#13130A"/>
<path d="M21.7861 13.5766C21.8296 13.5407 21.8647 13.496 21.8892 13.4457C21.9137 13.3953 21.9269 13.3404 21.928 13.2846C21.9291 13.2288 21.918 13.1735 21.8955 13.1222C21.8731 13.071 21.8397 13.0251 21.7977 12.9875C21.7557 12.95 21.706 12.9217 21.6519 12.9046C21.5979 12.8875 21.5407 12.8819 21.4843 12.8883C21.4279 12.8947 21.3735 12.9128 21.3248 12.9415C21.2761 12.9703 21.2343 13.0089 21.202 13.0548C21.1327 13.1232 21.0912 13.2141 21.0852 13.3105L20.9896 13.6862C20.9843 13.709 20.9854 13.7329 20.9928 13.7552C21.0002 13.7776 21.0135 13.7975 21.0314 13.813C21.0494 13.8285 21.0712 13.839 21.0947 13.8433C21.1182 13.8476 21.1424 13.8456 21.1648 13.8375L21.5684 13.7175C21.6538 13.6931 21.7297 13.644 21.7861 13.5766Z" fill="#13130A"/>
<path d="M19.7318 10.9157C19.6457 10.8736 19.5463 10.8664 19.4549 10.8957C19.3635 10.925 19.2875 10.9884 19.2433 11.0722C19.2061 11.1587 19.2054 11.2562 19.2412 11.3432C19.277 11.4303 19.3465 11.4998 19.4344 11.5366C19.5128 11.5708 19.6001 11.5799 19.684 11.5627L20.0238 11.5366C20.0445 11.5361 20.0647 11.53 20.0821 11.5189C20.0995 11.5078 20.1133 11.4921 20.1222 11.4737C20.131 11.4553 20.1344 11.4348 20.132 11.4146C20.1297 11.3943 20.1216 11.3752 20.1088 11.3592L19.8964 11.0618C19.8563 10.9991 19.7993 10.9485 19.7318 10.9157Z" fill="#13130A"/>
<path d="M20.2254 12.3713C20.2248 12.3343 20.2167 12.2978 20.2016 12.2639C20.1866 12.23 20.1649 12.1993 20.1377 12.1736C20.1106 12.1479 20.0786 12.1277 20.0435 12.1142C20.0085 12.1007 19.9711 12.0941 19.9334 12.0948C19.8959 12.0974 19.8593 12.1073 19.8258 12.1241C19.7923 12.1408 19.7626 12.164 19.7383 12.1922C19.7141 12.2204 19.6958 12.2531 19.6846 12.2883C19.6735 12.3236 19.6696 12.3607 19.6732 12.3974C19.6781 12.4635 19.7021 12.5268 19.7422 12.58L19.8909 12.8044C19.8986 12.8186 19.9101 12.8305 19.9241 12.8387C19.9381 12.847 19.9542 12.8514 19.9706 12.8514C19.9869 12.8514 20.003 12.847 20.017 12.8387C20.031 12.8305 20.0425 12.8186 20.0502 12.8044L20.183 12.5487C20.2184 12.4965 20.2335 12.4336 20.2254 12.3713Z" fill="#13130A"/>
<path d="M21.4642 11.5886C21.5466 11.5236 21.5994 11.4291 21.6108 11.3258C21.6223 11.2226 21.5915 11.1191 21.5253 11.0382C21.4591 10.9572 21.3629 10.9054 21.2579 10.8942C21.1528 10.8829 21.0475 10.9131 20.9651 10.9782C20.8885 11.0373 20.8343 11.12 20.8111 11.213L20.6624 11.5678C20.6511 11.5895 20.6465 11.614 20.6492 11.6383C20.6519 11.6626 20.6617 11.6856 20.6775 11.7044C20.6933 11.7233 20.7144 11.7372 20.7381 11.7444C20.7619 11.7517 20.7872 11.7519 20.8111 11.7452L21.2253 11.6826C21.3129 11.6763 21.3964 11.6435 21.4642 11.5886Z" fill="#13130A"/>
<path d="M16.6595 22.776C17.0906 22.776 17.4401 22.4326 17.4401 22.009C17.4401 21.5854 17.0906 21.2419 16.6595 21.2419C16.2284 21.2419 15.8789 21.5854 15.8789 22.009C15.8789 22.4326 16.2284 22.776 16.6595 22.776Z" fill="#1D1D1B"/>
<path d="M20.6361 23.0941C21.0672 23.0941 21.4166 22.7507 21.4166 22.3271C21.4166 21.9035 21.0672 21.5601 20.6361 21.5601C20.2049 21.5601 19.8555 21.9035 19.8555 22.3271C19.8555 22.7507 20.2049 23.0941 20.6361 23.0941Z" fill="#1D1D1B"/>
<path d="M13.9698 9.92944C13.9698 10.1956 13.8742 11.7192 14.5539 12.6166C15.0073 13.2389 15.2594 13.9809 15.2773 14.7459C15.2953 15.511 15.0784 16.2636 14.6548 16.9057C13.6459 18.5911 13.8742 20.7409 11.5431 21.0435C9.21199 21.3461 7.66144 19.9999 6.71094 20.1773C6.71094 20.1773 7.18353 19.1338 8.98365 18.2832C10.7838 17.4327 11.3997 16.5614 11.49 14.7716C11.5803 12.9819 12.945 10.9626 13.9698 9.92944Z" fill="#7E3E27"/>
<path d="M13.5235 10.1798L13.4386 10.0233C13.3932 10.5822 13.4308 11.1447 13.5501 11.693C13.7253 12.4391 14.2404 12.9609 14.5059 13.6653C14.8283 14.5061 14.8283 15.4335 14.5059 16.2743C14.2298 17.01 13.7944 17.6727 13.5289 18.424C13.361 19.0482 13.0959 19.6431 12.743 20.1877C12.2438 20.8399 11.4845 20.8921 10.6986 20.8086C9.41354 20.6782 8.17099 19.765 6.87002 19.9372L7.34792 20.1198C7.76658 19.4375 8.382 18.8927 9.11617 18.5545C10.0826 18.0327 11.0809 17.5683 11.6438 16.5978C12.2066 15.6273 12.042 14.4324 12.3872 13.3731C12.8212 12.0761 13.5472 10.8918 14.5112 9.90846C14.7077 9.7154 14.3466 9.64756 14.2192 9.64234C13.9359 9.64124 13.6626 9.74565 13.4545 9.93454C12.5292 10.8732 11.8067 11.986 11.3305 13.2062C11.1085 13.8377 10.9745 14.496 10.9322 15.1629C10.9038 15.684 10.7664 16.1938 10.5287 16.6604C9.91799 17.7822 8.57987 18.111 7.58688 18.7997C6.99806 19.164 6.51224 19.6683 6.1744 20.2659C6.0682 20.4903 6.58859 20.459 6.65762 20.4486C7.10024 20.4894 7.52999 20.6171 7.9214 20.8243C8.54679 21.0707 9.19889 21.2457 9.86489 21.346C11.0968 21.4974 12.573 21.346 13.5076 20.459C14.3094 19.6972 14.4953 18.5493 14.9042 17.5735C15.2603 16.9295 15.557 16.2554 15.7909 15.5594C15.949 14.8859 15.9197 14.183 15.706 13.5244C15.4723 12.8096 14.9307 12.2722 14.7342 11.5521C14.5932 11.0035 14.5413 10.4365 14.5802 9.87193C14.5849 9.85373 14.5857 9.83477 14.5825 9.81626C14.5793 9.79775 14.5723 9.78009 14.5618 9.7644C14.5513 9.7487 14.5376 9.73531 14.5216 9.72508C14.5056 9.71485 14.4876 9.70801 14.4687 9.70497C14.3316 9.67172 14.1892 9.66567 14.0497 9.68717C13.9102 9.70867 13.7764 9.7573 13.6563 9.83019C13.5182 9.87194 13.2634 10.0911 13.5235 10.1798Z" fill="#13130A"/>
<path d="M18.7487 24.8108H18.4991C18.2001 24.8049 17.9072 24.7253 17.6475 24.5795C17.3878 24.4336 17.1694 24.2261 17.0123 23.9759C16.9842 23.9123 16.9829 23.8402 17.0088 23.7757C17.0347 23.7111 17.0856 23.6592 17.1504 23.6316C17.2152 23.6039 17.2885 23.6026 17.3542 23.6281C17.4199 23.6535 17.4727 23.7036 17.5008 23.7672C17.5008 23.7672 17.7186 24.1847 18.5629 24.289C18.8906 24.3279 19.222 24.2562 19.5028 24.0855C19.5598 24.0447 19.631 24.0278 19.7007 24.0386C19.7704 24.0493 19.8329 24.0869 19.8745 24.1429C19.916 24.199 19.9332 24.2689 19.9222 24.3374C19.9113 24.4059 19.8731 24.4674 19.8161 24.5082C19.4967 24.7065 19.1265 24.8115 18.7487 24.8108Z" fill="#1D1D1B"/>
<path d="M33.7506 18.7841C33.7506 18.7841 35.6145 25.8282 28.26 31.1922C22.8809 35.1161 12.3298 34.7404 17.9691 37.4067C23.0827 39.8174 35.0516 37.0414 36.9154 27.1692C38.6094 18.1736 33.5011 17.1457 33.7506 18.7841Z" fill="#BE7B49"/>
<path d="M27.8894 30.1176C28.5231 30.1621 29.16 30.1039 29.7745 29.9454C31.0645 29.6592 32.2517 29.0354 33.2101 28.14C33.9353 27.4286 34.5236 26.5943 34.9465 25.6771C35.0421 25.4789 34.5536 25.5363 34.4845 25.5467C34.2827 25.5832 33.911 25.6615 33.8101 25.8702C33.224 27.1928 32.2377 28.3059 30.9852 29.0583C30.8949 29.1105 30.794 29.1575 30.6931 29.2044C30.6007 29.2529 30.5049 29.2948 30.4064 29.3297L30.0825 29.4445C30.2099 29.4027 30.0453 29.4445 30.0134 29.4445L29.8276 29.4914H29.7479H29.6523L29.3656 29.5384C29.2647 29.5384 29.4771 29.5384 29.339 29.5384H29.2382H28.9992H28.6328C28.3451 29.5164 28.0584 29.5919 27.8204 29.7523C27.6345 29.8775 27.6664 29.9923 27.8894 30.0184V30.1176Z" fill="#1D1D1B"/>
<path d="M34.3759 27.0075C35.0592 27.0075 35.6132 26.4631 35.6132 25.7917C35.6132 25.1202 35.0592 24.5759 34.3759 24.5759C33.6926 24.5759 33.1387 25.1202 33.1387 25.7917C33.1387 26.4631 33.6926 27.0075 34.3759 27.0075Z" fill="#1D1D1B"/>
<path d="M8.65914 26.9191C8.49554 26.9157 8.33234 26.9018 8.17061 26.8773C8.29805 26.8773 8.17061 26.8773 8.12282 26.8773H8.006C7.89979 26.8773 7.79891 26.8356 7.69802 26.8147C7.4803 26.7625 7.26789 26.6999 7.0608 26.6321C5.92085 26.2575 4.97055 25.4676 4.40576 24.4249C3.98162 23.5601 3.77234 22.6088 3.79511 21.649C3.79511 21.4455 2.63751 21.6125 2.63751 21.9517C2.60466 22.7306 2.74433 23.5073 3.04688 24.228C3.34943 24.9487 3.80764 25.5963 4.38983 26.126C5.19576 26.768 6.16211 27.186 7.18825 27.3365C7.42312 27.3791 7.66104 27.4036 7.8998 27.4096C8.18834 27.4231 8.47404 27.3483 8.71754 27.1956C8.88216 27.0808 8.88216 26.9347 8.64321 26.9295L8.65914 26.9191Z" fill="#1D1D1B"/>
<path d="M3.23725 22.9845C3.92056 22.9845 4.4745 22.4402 4.4745 21.7687C4.4745 21.0973 3.92056 20.553 3.23725 20.553C2.55394 20.553 2 21.0973 2 21.7687C2 22.4402 2.55394 22.9845 3.23725 22.9845Z" fill="#1D1D1B"/>
</svg>
