<svg width="43" height="82" viewBox="0 0 43 82" fill="none" xmlns="http://www.w3.org/2000/svg">
<g clip-path="url(#clip0_731_2033)">
<path d="M14.5397 34.0572C10.8715 35.8174 7.604 38.3123 4.93966 41.3872C3.47242 43.009 2.15378 44.7594 0.99966 46.6172C0.549661 47.3472 2.67966 47.0572 2.99966 46.5472C5.8388 41.8401 9.81345 37.9204 14.5597 35.1472C14.7997 35.0072 15.0397 34.8772 15.2897 34.7572L15.4997 34.6572L15.3397 34.7372C15.5697 34.6272 16.2297 34.3472 15.9497 33.9972C15.6697 33.6472 14.8097 33.9472 14.5397 34.0572V34.0572Z" fill="#1D1D1B"/>
<path d="M2.01 48.5874C3.12009 48.5874 4.02 47.6875 4.02 46.5774C4.02 45.4673 3.12009 44.5674 2.01 44.5674C0.899908 44.5674 0 45.4673 0 46.5774C0 47.6875 0.899908 48.5874 2.01 48.5874Z" fill="#1D1D1B"/>
<path d="M31.3498 56.667C29.4298 64.827 25.7597 86.267 8.52975 80.067C-7.75026 74.217 15.9097 20.447 19.3997 10.187C19.7597 9.13697 20.1297 8.18698 20.5097 7.31698C21.1261 5.9328 22.0161 4.68763 23.1263 3.65649C24.2365 2.62534 25.5439 1.82955 26.9697 1.31698C33.3397 -1.01302 41.6498 2.36698 41.6298 10.847C41.5998 23.717 36.1998 35.997 31.3498 56.667Z" fill="#E8B784"/>
<path d="M30.2806 56.8571C29.1206 61.7971 28.0806 66.7871 25.9306 71.4171C23.6506 76.3471 19.8306 81.2071 13.8506 80.6871C11.4606 80.4771 8.72056 79.8171 6.96056 78.0671C5.75594 76.7619 4.92667 75.1552 4.56055 73.4171C3.35055 68.5971 4.03055 63.3071 4.86055 58.4771C6.99055 46.2171 11.2705 34.3271 15.6505 22.7171C17.1405 18.7771 18.7205 14.8671 20.1505 10.9171C21.4805 7.22712 22.8405 3.65713 26.6205 1.86713C28.2138 1.17536 29.9579 0.904048 31.6861 1.07914C33.4142 1.25422 35.0684 1.86985 36.4906 2.86713C39.6706 5.08713 40.6306 8.58712 40.4906 12.2971C40.3545 15.9785 39.886 19.6401 39.0905 23.2371C37.2705 31.8871 34.4805 40.3171 32.2305 48.8571C31.5305 51.5071 30.8705 54.1571 30.2305 56.8571C30.1205 57.3171 32.2305 57.0171 32.3705 56.4771C34.7205 46.4771 37.8506 36.7671 40.3106 26.8371C41.3086 23.0714 42.0305 19.2379 42.4706 15.3671C42.8506 11.5771 43.1606 7.45714 40.7006 4.25714C36.1406 -1.67286 26.1705 -0.742885 21.4506 4.47711C19.3906 6.75711 18.6106 9.74713 17.5506 12.5571C16.8006 14.5571 16.0206 16.5571 15.2406 18.5571C10.6106 30.6171 6.04055 42.8471 3.37055 55.5571C2.24055 60.9271 1.25055 66.6771 2.03055 72.1671C2.23461 74.1836 2.92056 76.1214 4.03055 77.8171C5.29885 79.4645 7.11515 80.6033 9.15055 81.0271C12.0633 81.9054 15.1754 81.8691 18.0669 80.9232C20.9583 79.9772 23.4901 78.1671 25.3206 75.7371C28.8206 71.1571 30.3906 65.3071 31.6706 59.7871C31.9206 58.6971 32.1606 57.6071 32.4106 56.5271C32.5306 56.0071 30.4006 56.3671 30.2806 56.8571Z" fill="#13130A"/>
<path d="M21.2093 16.1471C24.7453 13.9971 28.7346 12.7027 32.8593 12.3671C32.9779 12.3628 33.0914 12.318 33.181 12.2402C33.2706 12.1625 33.3309 12.0564 33.352 11.9396C33.373 11.8229 33.3534 11.7024 33.2966 11.5983C33.2397 11.4941 33.1489 11.4126 33.0393 11.3671C30.0393 9.99714 24.1693 8.50716 20.4793 15.5072C20.443 15.6058 20.4374 15.7131 20.4633 15.815C20.4892 15.9169 20.5454 16.0086 20.6245 16.0779C20.7035 16.1472 20.8017 16.191 20.9062 16.2033C21.0106 16.2157 21.1163 16.1961 21.2093 16.1471V16.1471Z" fill="#F1C9A6"/>
<path d="M20.9409 16.7272C20.6786 16.7261 20.4272 16.622 20.2409 16.4372C20.0803 16.287 19.9736 16.0881 19.9374 15.8711C19.9013 15.6542 19.9376 15.4314 20.0409 15.2372C24.0409 7.65723 30.6109 9.65724 33.2509 10.8772C33.4746 10.9581 33.6622 11.1161 33.7799 11.3228C33.8976 11.5295 33.9378 11.7714 33.8933 12.005C33.8487 12.2387 33.7223 12.4488 33.5368 12.5977C33.3512 12.7465 33.1187 12.8244 32.8809 12.8172C28.8356 13.1597 24.9273 14.4476 21.4709 16.5772C21.3118 16.6759 21.1281 16.7278 20.9409 16.7272V16.7272ZM28.2109 10.7272C25.7009 10.7272 22.9609 11.8672 20.9209 15.7272C24.5377 13.5039 28.6291 12.1675 32.8609 11.8272C31.4134 11.1104 29.8258 10.7212 28.2109 10.6872V10.7272Z" fill="#E4A268"/>
<path d="M18.3608 27.0171C21.8903 24.845 25.8809 23.5331 30.0108 23.1871C30.1293 23.1827 30.2428 23.1379 30.3324 23.0602C30.422 22.9824 30.4824 22.8764 30.5034 22.7596C30.5244 22.6428 30.5049 22.5223 30.448 22.4182C30.3911 22.3141 30.3004 22.2325 30.1908 22.1871C27.1908 20.8271 21.3208 19.3271 17.6308 26.3271C17.5843 26.4278 17.5706 26.5406 17.5916 26.6495C17.6127 26.7585 17.6673 26.8581 17.748 26.9343C17.8286 27.0105 17.9311 27.0594 18.041 27.0743C18.151 27.0892 18.2628 27.0692 18.3608 27.0171Z" fill="#F1C9A6"/>
<path d="M18.101 27.5871C17.8377 27.5851 17.5847 27.4853 17.391 27.3071C17.228 27.1562 17.1199 26.9554 17.0837 26.7363C17.0475 26.5173 17.0852 26.2924 17.191 26.0971C21.191 18.5271 27.761 20.5271 30.401 21.7371C30.6332 21.8117 30.8301 21.9686 30.9547 22.1783C31.0793 22.3879 31.123 22.6359 31.0775 22.8756C31.032 23.1152 30.9006 23.3299 30.7078 23.4794C30.5151 23.6288 30.2744 23.7027 30.031 23.6871C25.9847 24.0248 22.0753 25.313 18.621 27.4471V27.4471C18.4619 27.5361 18.2832 27.5842 18.101 27.5871V27.5871ZM25.361 21.5871C22.851 21.5871 20.111 22.7371 18.081 26.5871L18.361 27.0471L18.111 26.6171C21.7069 24.4038 25.7731 23.0678 29.981 22.7171C28.545 21.9942 26.968 21.5948 25.361 21.5471V21.5871Z" fill="#E4A268"/>
<path d="M14.7504 37.8771C18.2753 35.7032 22.2632 34.391 26.3904 34.0471C26.5097 34.0449 26.6247 34.0016 26.716 33.9246C26.8072 33.8476 26.8692 33.7416 26.8915 33.6243C26.9137 33.507 26.895 33.3856 26.8383 33.2805C26.7817 33.1754 26.6906 33.093 26.5804 33.0471C23.5804 31.6771 17.7004 30.1771 14.0204 37.1771C13.9614 37.278 13.9381 37.3958 13.9542 37.5115C13.9703 37.6272 14.025 37.7341 14.1093 37.815C14.1937 37.8959 14.3028 37.946 14.4191 37.9573C14.5354 37.9686 14.6521 37.9403 14.7504 37.8771V37.8771Z" fill="#F1C9A6"/>
<path d="M14.4796 38.4474C14.2187 38.449 13.9675 38.3485 13.7796 38.1674C13.6167 38.0166 13.5086 37.8158 13.4724 37.5967C13.4362 37.3776 13.4739 37.1527 13.5796 36.9574C17.5796 29.3874 24.1396 31.3874 26.7896 32.5974C27.0022 32.6895 27.1763 32.8524 27.2821 33.0585C27.3879 33.2646 27.4188 33.501 27.3696 33.7274C27.3287 33.952 27.2121 34.1558 27.0393 34.305C26.8665 34.4542 26.6478 34.5397 26.4196 34.5474C22.3715 34.8913 18.4603 36.1791 14.9996 38.3074V38.3074C14.8424 38.4008 14.6625 38.4492 14.4796 38.4474ZM21.7496 32.4474C19.2396 32.4474 16.4996 33.5874 14.4596 37.4474L14.7496 37.8974L14.4896 37.4674C18.0899 35.2558 22.159 33.92 26.3696 33.5674C24.9321 32.8514 23.3551 32.4589 21.7496 32.4174V32.4474Z" fill="#E4A268"/>
<path d="M10.0796 48.7373C13.6045 46.5633 17.5924 45.2511 21.7196 44.9073C21.8389 44.905 21.9539 44.8618 22.0451 44.7848C22.1364 44.7078 22.1984 44.6017 22.2207 44.4844C22.2429 44.3671 22.2242 44.2457 22.1675 44.1406C22.1109 44.0355 22.0198 43.9531 21.9096 43.9073C18.9096 42.5373 13.0296 41.0373 9.34958 48.0473C9.29519 48.148 9.27554 48.2638 9.29368 48.3768C9.31183 48.4898 9.36675 48.5936 9.44992 48.6723C9.53309 48.7509 9.63988 48.7998 9.75372 48.8116C9.86756 48.8233 9.98209 48.7972 10.0796 48.7373V48.7373Z" fill="#F1C9A6"/>
<path d="M9.86053 49.3073C9.68359 49.3123 9.50848 49.2703 9.35309 49.1855C9.19769 49.1008 9.06758 48.9762 8.97606 48.8247C8.88453 48.6732 8.83488 48.5001 8.83215 48.3231C8.82942 48.1461 8.87373 47.9716 8.96054 47.8173C12.9605 40.2473 19.5205 42.2473 22.1705 43.4573C22.3813 43.551 22.5532 43.7147 22.657 43.9206C22.7609 44.1266 22.7904 44.3621 22.7405 44.5873C22.6979 44.8203 22.5741 45.0305 22.3909 45.1807C22.2078 45.3309 21.9773 45.4112 21.7405 45.4073C17.6958 45.7527 13.7882 47.0404 10.3305 49.1673V49.1673C10.1879 49.2522 10.0264 49.3004 9.86053 49.3073V49.3073ZM17.1305 43.3073C14.6105 43.3073 11.8805 44.4473 9.84053 48.3073L10.1305 48.7573L9.87053 48.3273C13.4694 46.1125 17.5392 44.7765 21.7505 44.4273C20.2957 43.7097 18.7022 43.3173 17.0805 43.2773L17.1305 43.3073Z" fill="#E4A268"/>
<path d="M7.25925 59.5971C10.7908 57.4294 14.7804 56.1178 18.9093 55.767C19.0278 55.7627 19.1413 55.7179 19.2309 55.6401C19.3205 55.5624 19.3809 55.4563 19.4019 55.3395C19.4229 55.2228 19.4033 55.1023 19.3465 54.9982C19.2896 54.8941 19.1988 54.8125 19.0892 54.767C16.0892 53.397 10.2193 51.9071 6.52925 58.9071C6.47487 59.0078 6.45523 59.1236 6.47337 59.2366C6.49152 59.3496 6.54642 59.4534 6.62959 59.5321C6.71277 59.6107 6.81955 59.6596 6.9334 59.6714C7.04724 59.6832 7.16177 59.657 7.25925 59.5971V59.5971Z" fill="#F1C9A6"/>
<path d="M6.99963 60.1772C6.82039 60.1852 6.64231 60.1449 6.48405 60.0604C6.32578 59.9758 6.19316 59.8503 6.1001 59.6969C6.00705 59.5435 5.95698 59.3679 5.95513 59.1885C5.95329 59.0091 5.99974 58.8325 6.08962 58.6772C10.0896 51.1072 16.6596 53.1072 19.2996 54.3272C19.5233 54.4081 19.7109 54.5661 19.8286 54.7728C19.9464 54.9795 19.9866 55.2214 19.942 55.455C19.8974 55.6887 19.771 55.8988 19.5855 56.0477C19.3999 56.1965 19.1674 56.2744 18.9296 56.2672C14.8843 56.6097 10.976 57.8976 7.51963 60.0272V60.0272C7.36338 60.1241 7.18345 60.176 6.99963 60.1772V60.1772ZM14.2596 54.1772C11.7496 54.1772 9.00962 55.3172 6.97962 59.1772L7.25962 59.6272L7.00962 59.1972C10.5969 56.9764 14.6562 55.6302 18.8596 55.2672C17.4255 54.564 15.8564 54.1785 14.2596 54.1372V54.1772Z" fill="#E4A268"/>
<path d="M38.4906 8.53744C38.3688 8.09337 38.0866 7.71025 37.6986 7.46225C37.3106 7.21424 36.8445 7.11898 36.3903 7.19488C35.9361 7.27079 35.5262 7.51245 35.24 7.87314C34.9537 8.23382 34.8114 8.68788 34.8406 9.14743C34.8406 13.9774 32.3806 24.0674 28.4706 37.2374C22.9206 55.9674 21.2806 65.2374 17.3506 68.3974C13.2606 71.7074 5.61062 74.0874 9.35062 76.3974C13.0906 78.7074 18.8206 77.6974 23.0406 69.8574C27.2606 62.0174 36.6406 25.9974 37.3006 20.3574C37.6706 17.1574 39.4506 11.8974 38.4906 8.53744Z" fill="#E3A269"/>
<path d="M18.5824 30.7496C18.9183 29.4959 18.7452 28.3603 18.1957 28.2131C17.6463 28.0658 16.9285 28.9628 16.5926 30.2164C16.2567 31.47 16.4298 32.6057 16.9793 32.7529C17.5287 32.9001 18.2465 32.0032 18.5824 30.7496Z" fill="#1D1D1B"/>
<path d="M24.1351 31.5005C24.4711 30.2469 24.2979 29.1113 23.7485 28.964C23.199 28.8168 22.4812 29.7137 22.1453 30.9674C21.8094 32.221 21.9825 33.3567 22.532 33.5039C23.0815 33.6511 23.7992 32.7542 24.1351 31.5005Z" fill="#1D1D1B"/>
<path d="M19.4294 36.4271H19.0694C16.9694 36.1271 16.6994 34.7971 16.6894 34.7471C16.6764 34.6821 16.6764 34.6151 16.6896 34.5501C16.7027 34.485 16.7286 34.4233 16.7658 34.3684C16.8031 34.3134 16.8509 34.2665 16.9064 34.2302C16.962 34.1939 17.0242 34.1691 17.0894 34.1571C17.2216 34.1364 17.3567 34.1675 17.4666 34.2438C17.5765 34.3202 17.6527 34.436 17.6794 34.5671C17.6794 34.5671 17.8594 35.2471 19.2094 35.4371C19.7851 35.4575 20.3544 35.3117 20.8494 35.0171C20.9045 34.9774 20.9671 34.9494 21.0334 34.9347C21.0997 34.92 21.1682 34.9189 21.2349 34.9316C21.3016 34.9442 21.3651 34.9704 21.4213 35.0083C21.4776 35.0463 21.5256 35.0953 21.5623 35.1524C21.599 35.2096 21.6237 35.2735 21.6349 35.3405C21.646 35.4075 21.6435 35.476 21.6273 35.5419C21.6111 35.6079 21.5817 35.6698 21.5408 35.724C21.4999 35.7782 21.4484 35.8235 21.3894 35.8571C20.7948 36.2097 20.1204 36.4058 19.4294 36.4271V36.4271Z" fill="#1D1D1B"/>
<path d="M32.1004 41.7771C33.0409 43.2313 33.8125 44.788 34.4004 46.4171C35.9217 50.4194 36.7011 54.6654 36.7004 58.9471C36.7004 59.3971 38.8804 59.0571 38.8704 58.3671C38.8767 54.0849 38.0971 49.8379 36.5704 45.8371C35.9908 44.2045 35.2187 42.6469 34.2704 41.1971C33.8704 40.6171 31.8704 41.4471 32.1004 41.7771Z" fill="#1D1D1B"/>
<path d="M37.7893 60.667C38.8994 60.667 39.7993 59.7671 39.7993 58.657C39.7993 57.5469 38.8994 56.647 37.7893 56.647C36.6792 56.647 35.7793 57.5469 35.7793 58.657C35.7793 59.7671 36.6792 60.667 37.7893 60.667Z" fill="#1D1D1B"/>
</g>
<defs>
<clipPath id="clip0_731_2033">
<rect width="42.73" height="81.44" fill="white" transform="translate(0 0.137207)"/>
</clipPath>
</defs>
</svg>
