<svg width="68" height="77" viewBox="0 0 68 77" fill="none" xmlns="http://www.w3.org/2000/svg">
<g clip-path="url(#clip0_826_2282)">
<path d="M14.3321 39.2202C13.2048 38.9511 12.0388 38.873 10.8846 38.9893C8.52098 39.1359 6.29663 40.1348 4.64101 41.7929C3.47534 43.0784 2.63653 44.6155 2.19298 46.2787C1.94593 47.1583 4.43888 46.8284 4.64101 45.9928C4.98495 44.691 5.59631 43.4714 6.43774 42.4086C6.77301 42.0256 7.1495 41.6791 7.56069 41.3751L7.6842 41.2871L7.96494 41.1222L8.27937 40.9353C8.47027 40.8254 8.27937 40.9353 8.27937 40.9353L8.4815 40.8364L9.08789 40.5945C8.751 40.7264 9.08789 40.5945 9.17773 40.5945L9.52585 40.5065L9.80658 40.4406C9.97503 40.4406 9.54831 40.4406 9.80658 40.4406C10.0005 40.4199 10.1954 40.4089 10.3905 40.4076H10.6825C10.8622 40.4076 10.413 40.4076 10.6825 40.4076H11.199H11.6707C11.8167 40.4076 12.2209 40.4736 11.8728 40.4076C12.176 40.4076 12.4792 40.4955 12.7824 40.5725C13.0866 40.6324 13.4009 40.6229 13.7008 40.5447C14.0007 40.4665 14.2782 40.3218 14.5117 40.1217C14.8935 39.7589 14.7588 39.3851 14.2647 39.2532L14.3321 39.2202Z" fill="#1D1D1B"/>
<path d="M2.74393 50.116C4.10834 50.116 5.21442 49.033 5.21442 47.6971C5.21442 46.3613 4.10834 45.2783 2.74393 45.2783C1.37951 45.2783 0.273438 46.3613 0.273438 47.6971C0.273438 49.033 1.37951 50.116 2.74393 50.116Z" fill="#1D1D1B"/>
<path d="M57.3199 41.4408C57.2076 41.001 57.0841 40.5832 56.9381 40.1654C56.9381 40.0885 56.9381 40.0225 56.8595 39.9455C56.6455 39.3697 56.3942 38.8078 56.1071 38.2633L56.4777 37.4717C56.5142 37.4088 56.5443 37.3425 56.5675 37.2738L56.8033 36.7461C58.8022 31.9854 60.1722 24.597 53.6029 18.0552L53.1201 17.6374C52.1709 13.4666 49.8611 9.71157 46.5396 6.93966C44.8862 5.55536 42.8334 4.70989 40.6666 4.52083C39.0885 3.57664 37.4363 2.75681 35.7256 2.06905C31.4134 0.364883 29.1676 2.5748 28.0109 5.2245C27.3521 6.79672 26.9395 8.4573 26.7869 10.1501C26.6858 10.2491 26.6072 10.37 26.5062 10.4799L26.1693 10.8867L26.0345 11.1066C24.6645 13.1626 24.3726 16.1312 24.4736 18.8029C21.8364 19.9187 19.6052 21.789 18.0728 24.1682C18.0673 24.1973 18.0673 24.2271 18.0728 24.2562C17.9493 24.4431 17.8258 24.641 17.7135 24.8499C17.6395 24.9634 17.572 25.0809 17.5113 25.2017L17.3317 25.5316L17.006 26.1913C16.4287 27.4631 15.9993 28.7945 15.7258 30.1603C9.20151 33.2168 9.07799 41.4738 9.68438 46.5203V46.8501V47.114V47.18C8.81002 48.9565 8.20837 50.8496 7.89889 52.7982C7.04823 53.7955 6.39682 54.9405 5.97865 56.1736V56.2616C5.90004 56.4815 5.82144 56.7123 5.75406 56.9432C5.42313 58.0198 5.19383 59.1239 5.06906 60.2416C4.80842 60.4306 4.56082 60.6363 4.32791 60.8573C3.82721 61.3325 3.41659 61.8909 3.11512 62.5065C1.00398 66.6405 0.869224 72.0059 5.36102 74.6006C8.76812 76.3029 12.6691 76.8075 16.4108 76.0299C17.6547 75.8593 18.8398 75.4035 19.8695 74.6995C19.8695 74.6995 29.9761 75.2713 33.0754 70.0378C35.7929 70.0928 42.2948 69.598 44.5632 63.7049C49.055 61.7259 58.9706 55.8547 57.668 43.3319C57.668 43.3319 57.668 43.2769 57.668 43.2549C57.6121 42.7447 57.5259 42.238 57.4097 41.7376C57.3648 41.6057 57.3311 41.5068 57.3199 41.4408Z" fill="#C69974"/>
<path d="M26.9329 10.7221C26.82 10.7229 26.7098 10.6882 26.6185 10.6231C26.4954 10.5425 26.4098 10.4176 26.3804 10.2755C26.3509 10.1334 26.38 9.98568 26.4612 9.86449C29.6504 5.24675 38.4656 4.719 42.1152 4.70801C42.2641 4.70801 42.4069 4.76593 42.5122 4.86903C42.6175 4.97212 42.6766 5.11194 42.6766 5.25774C42.6766 5.40354 42.6175 5.54336 42.5122 5.64645C42.4069 5.74954 42.2641 5.80747 42.1152 5.80747C39.4089 5.80747 30.3691 6.18129 27.3933 10.4802C27.3423 10.554 27.2738 10.6146 27.1936 10.6568C27.1134 10.6989 27.0239 10.7213 26.9329 10.7221V10.7221Z" fill="#AA7645"/>
<path d="M23.439 19.7817C23.3369 19.7809 23.2369 19.7529 23.1498 19.7006C23.0628 19.6483 22.9919 19.5737 22.9449 19.4849C22.91 19.4216 22.8884 19.352 22.8814 19.2804C22.8744 19.2088 22.8821 19.1365 22.9041 19.0679C22.9261 18.9992 22.9619 18.9355 23.0094 18.8806C23.0569 18.8257 23.1152 18.7807 23.1808 18.7482C30.4799 15.0101 48.5033 13.4488 54.8255 18.3964C54.9419 18.4891 55.0166 18.6228 55.0334 18.7688C55.0502 18.9147 55.0078 19.0613 54.9153 19.177C54.8695 19.2336 54.8126 19.2805 54.748 19.3151C54.6833 19.3497 54.6122 19.3712 54.5389 19.3784C54.4656 19.3856 54.3916 19.3782 54.3212 19.3569C54.2508 19.3355 54.1856 19.3005 54.1293 19.254C51.4117 17.132 45.9654 16.0985 39.194 16.3954C33.1863 16.6703 27.0999 17.9786 23.6973 19.6938C23.6209 19.7453 23.5316 19.7757 23.439 19.7817V19.7817Z" fill="#AA7645"/>
<path d="M56.1066 38.8135C56.0137 38.8145 55.9219 38.793 55.8396 38.7507C55.7573 38.7085 55.687 38.647 55.6349 38.5716C49.3127 29.3141 27.5612 26.1696 16.0173 30.6005C15.883 30.6321 15.7415 30.6152 15.6189 30.5528C15.4963 30.4903 15.4009 30.3866 15.3503 30.2607C15.2997 30.1348 15.2973 29.9953 15.3435 29.8678C15.3897 29.7403 15.4815 29.6335 15.6018 29.567C21.2839 27.3681 29.7959 26.9283 37.8137 28.3246C46.6064 29.8529 53.434 33.3711 56.567 37.9669C56.6093 38.0258 56.639 38.0923 56.6546 38.1627C56.6701 38.233 56.6711 38.3056 56.6575 38.3764C56.6439 38.4471 56.616 38.5144 56.5754 38.5744C56.5347 38.6343 56.4823 38.6857 56.421 38.7255C56.3275 38.7847 56.218 38.8153 56.1066 38.8135Z" fill="#AA7645"/>
<path d="M43.7772 64.9366H43.6425C43.4974 64.9002 43.3727 64.8096 43.295 64.6843C43.2173 64.5589 43.1929 64.4087 43.227 64.266C43.4681 61.9575 43.3278 59.6261 42.8115 57.3613C40.5656 48.4777 34.4792 43.5961 23.7887 41.9689C18.4098 41.1553 12.4582 43.9589 10.3133 47.0814C10.2716 47.1417 10.2181 47.1933 10.1559 47.2332C10.0937 47.2731 10.024 47.3005 9.95082 47.3138C9.87769 47.3271 9.80258 47.326 9.72987 47.3106C9.65716 47.2953 9.58829 47.2659 9.52727 47.2243C9.46603 47.1845 9.41354 47.1331 9.37292 47.0731C9.33231 47.0132 9.30437 46.9459 9.29076 46.8751C9.27716 46.8044 9.27816 46.7317 9.2937 46.6614C9.30925 46.5911 9.33903 46.5245 9.38128 46.4657C11.7619 43.0683 18.2077 40.0118 23.9796 40.8804C35.0294 42.5516 41.5538 47.851 43.9232 57.0755C44.4838 59.5166 44.628 62.0316 44.3499 64.5188C44.3188 64.6427 44.2447 64.7522 44.1402 64.8284C44.0357 64.9046 43.9074 64.9429 43.7772 64.9366Z" fill="#AA7645"/>
<path d="M33.1751 70.7524C33.1048 70.767 33.0321 70.767 32.9618 70.7524C32.8252 70.6965 32.7168 70.59 32.66 70.4562C32.6032 70.3224 32.6027 70.172 32.6586 70.0378C32.6066 68.2573 32.3197 66.4908 31.8051 64.7824C29.5592 55.7558 21.4852 53.6668 18.4533 52.8752C15.1967 52.0286 9.32369 52.5783 7.80771 53.8647C7.69372 53.9591 7.54659 54.0062 7.39766 53.9959C7.24873 53.9856 7.10978 53.9188 7.01042 53.8097C6.91401 53.6981 6.86593 53.554 6.87642 53.4082C6.8869 53.2624 6.95513 53.1264 7.06657 53.0291C9.00927 51.3909 15.3876 50.9401 18.734 51.8087C22.0804 52.6773 30.4801 54.8542 32.9056 64.5185C33.0292 65.0242 34.1184 69.455 33.7029 70.4556C33.6524 70.5486 33.576 70.6258 33.4826 70.6783C33.3893 70.7308 33.2827 70.7565 33.1751 70.7524V70.7524Z" fill="#AA7645"/>
<path d="M47.5503 36.7135C44.8271 34.6056 41.7997 32.9049 38.5667 31.6669C32.4989 29.2287 25.7161 29.1149 19.5664 31.3481C13.3341 33.3601 14.4009 38.0768 17.0623 37.5711C21.5541 36.7135 27.8763 37.0543 40.3298 43.4861C44.9676 45.9049 53.9399 42.3097 47.5503 36.7135Z" fill="#9E6642"/>
<path d="M27.64 35.0971C28.3408 35.0971 28.909 34.5409 28.909 33.8547C28.909 33.1685 28.3408 32.6123 27.64 32.6123C26.9392 32.6123 26.3711 33.1685 26.3711 33.8547C26.3711 34.5409 26.9392 35.0971 27.64 35.0971Z" fill="#1D1D1B"/>
<path d="M34.5346 36.3945C35.2354 36.3945 35.8035 35.8382 35.8035 35.1521C35.8035 34.4659 35.2354 33.9097 34.5346 33.9097C33.8337 33.9097 33.2656 34.4659 33.2656 35.1521C33.2656 35.8382 33.8337 36.3945 34.5346 36.3945Z" fill="#1D1D1B"/>
<path d="M30.4929 39.9239H30.2009C27.6406 39.6821 27.2476 38.1428 27.2251 38.0769C27.2086 38.0061 27.2065 37.9328 27.219 37.8612C27.2315 37.7897 27.2584 37.7213 27.2981 37.66C27.3377 37.5986 27.3894 37.5456 27.4501 37.5039C27.5109 37.4622 27.5794 37.4328 27.6518 37.4172C27.7234 37.3993 27.7979 37.3956 27.871 37.4065C27.944 37.4174 28.014 37.4426 28.0769 37.4806C28.1398 37.5185 28.1942 37.5685 28.2369 37.6275C28.2797 37.6865 28.3098 37.7533 28.3256 37.824C28.3256 37.824 28.5951 38.6706 30.3132 38.8355C31.032 38.8491 31.7363 38.6372 32.3233 38.2308C32.4461 38.1484 32.5969 38.1161 32.7437 38.1408C32.8904 38.1654 33.0216 38.245 33.1094 38.3627C33.1525 38.4218 33.1832 38.4886 33.1997 38.5594C33.2163 38.6302 33.2183 38.7035 33.2058 38.775C33.1933 38.8466 33.1664 38.915 33.1267 38.9763C33.087 39.0376 33.0353 39.0907 32.9746 39.1323C32.237 39.6137 31.3786 39.8876 30.4929 39.9239Z" fill="#1D1D1B"/>
<path d="M51.3557 23.0581C50.5165 21.8544 49.4139 20.8489 48.1279 20.1147C46.842 19.3806 45.4051 18.9363 43.9218 18.8142C41.4962 18.5833 36.9707 17.2969 32.8944 18.1985C24.3937 20.0786 22.1029 21.9257 21.7323 24.2895C21.2045 27.5879 25.3033 23.5089 35.9489 25.2461C46.5944 26.9832 49.952 29.3691 51.8723 26.6974C52.6471 25.6419 52.1867 24.2895 51.3557 23.0581Z" fill="#9E6642"/>
<path d="M39.7341 54.1068C39.7341 54.1068 36.8032 48.4225 28.2912 45.5859C21.8904 43.453 16.489 43.387 13.6929 45.9817C9.69519 49.6759 13.3897 48.8513 22.6765 51.0063C33.0525 53.4251 33.4793 63.3203 38.5999 61.4732C43.1815 59.802 39.7341 54.1068 39.7341 54.1068Z" fill="#9E6642"/>
<path d="M28.6719 63.5619C28.6719 63.5619 28.6719 56.1625 19.284 54.5243C9.89614 52.8861 7.82992 54.3924 8.20049 56.2395C8.52614 57.8667 17.1841 57.7347 19.9465 62.6274C22.709 67.52 29.9408 70.3566 28.6719 63.5619Z" fill="#9E6642"/>
<path d="M16.0057 68.5537C16.0057 68.5537 16.9602 66.025 13.3443 63.6831C9.72845 61.3413 7.41518 61.6051 5.7869 63.5512C4.15862 65.4972 3.77682 68.7846 7.46009 70.3898C11.1434 71.995 15.2421 71.6212 16.0057 68.5537Z" fill="#9E6642"/>
<path d="M52.782 44.4645C52.5911 44.4645 52.6136 44.4645 52.782 44.4645L53.366 44.5305C54.0166 44.6285 54.6613 44.7606 55.2974 44.9263C57.1411 45.3925 58.8582 46.2481 60.3283 47.4331C61.2877 48.2603 62.0538 49.2803 62.5742 50.4236C62.8212 50.9403 65.1794 50.1267 65.011 49.7749C63.3153 46.1467 59.3962 44.2776 55.4996 43.6839C55.1279 43.6203 54.7531 43.5762 54.3766 43.5519C53.7678 43.5356 53.1672 43.6922 52.6473 44.0027C52.243 44.2336 52.3104 44.4315 52.7708 44.4535L52.782 44.4645Z" fill="#1D1D1B"/>
<path d="M64.5623 54.074C65.9267 54.074 67.0328 52.991 67.0328 51.6551C67.0328 50.3193 65.9267 49.2363 64.5623 49.2363C63.1979 49.2363 62.0918 50.3193 62.0918 51.6551C62.0918 52.991 63.1979 54.074 64.5623 54.074Z" fill="#1D1D1B"/>
<path d="M20.0035 75.1173C19.9303 75.1188 19.8576 75.1059 19.7895 75.0795C19.7215 75.0531 19.6595 75.0136 19.6072 74.9635C19.5549 74.9133 19.5134 74.8534 19.485 74.7873C19.4566 74.7212 19.4421 74.6503 19.4421 74.5786C19.3747 70.1807 18.0272 66.6844 15.4444 64.2876C11.2895 60.4505 5.24799 60.6814 5.18062 60.6814C5.0317 60.6814 4.88889 60.6235 4.78359 60.5204C4.6783 60.4173 4.61914 60.2775 4.61914 60.1317C4.61914 59.9859 4.6783 59.846 4.78359 59.7429C4.88889 59.6398 5.0317 59.5819 5.18062 59.5819C9.23771 59.4955 13.1832 60.8863 16.2529 63.485C19.0715 66.0797 20.5426 69.8069 20.6099 74.5566C20.6114 74.6297 20.598 74.7024 20.5705 74.7704C20.5429 74.8383 20.5018 74.9002 20.4495 74.9525C20.3972 75.0047 20.3348 75.0461 20.266 75.0745C20.1971 75.1028 20.1232 75.1173 20.0485 75.1173H20.0035Z" fill="#AA7645"/>
<path d="M54.8596 17.5937C54.3842 16.9956 54.0748 16.2874 53.9613 15.5377C53.6985 14.7396 53.3873 13.9576 53.0292 13.1958C52.2073 11.4467 51.1292 9.82443 49.8288 8.38018C48.2995 6.59818 46.3159 5.244 44.0793 4.45509C43.1307 4.26944 42.1964 4.01963 41.2832 3.70746C40.1602 3.17972 39.1383 2.55303 38.0154 2.05827C35.1631 0.782894 31.929 0.266161 29.2451 2.24519C27.2687 3.69648 26.3928 6.17027 25.9437 8.45715C25.8942 8.9632 25.8155 9.46609 25.7078 9.96341C25.2898 10.7637 24.8287 11.5417 24.3266 12.2943C23.512 14.4386 23.1862 16.7314 23.3721 19.012L23.8662 18.4623C21.4579 19.548 19.3535 21.1878 17.7325 23.242C16.1115 25.2963 15.022 27.7038 14.557 30.2595L15.0398 29.8417C11.0758 31.7658 9.04327 35.4709 8.45934 39.6599C8.21603 41.5526 8.17463 43.465 8.33581 45.3661C8.33581 45.7729 8.44811 46.1907 8.45934 46.5975C8.44714 47.2342 8.29388 47.8606 8.01015 48.4336C7.56443 49.7139 7.18957 51.0168 6.8872 52.3367C6.41284 53.3501 5.86883 54.3309 5.25893 55.2722C4.75475 56.3481 4.37798 57.4769 4.13598 58.6366C4.09143 59.0576 4.02395 59.476 3.93385 59.89C3.74295 60.4287 3.3836 60.6266 2.95688 61.0554C2.19723 61.8386 1.57837 62.7419 1.12648 63.7271C-0.625325 67.4983 0.284263 72.3579 3.96754 74.7217C6.35024 76.0915 9.06513 76.8092 11.8282 76.7997C14.7928 76.8877 18.3974 76.4919 20.8118 74.6888L19.0937 75.1395C24.2592 75.4144 31.3226 74.3919 34.2872 69.7302L32.5691 70.4778C37.9143 70.5768 43.6975 68.5648 45.7974 63.3643L45.3033 63.7931C50.4127 61.4842 55.0954 57.713 57.4087 52.5896C59.0814 48.855 59.4409 44.6825 58.4306 40.7264C58.1723 39.7698 57.3076 38.5275 57.5322 37.6039C57.8002 36.8364 58.1114 36.0839 58.4643 35.35C59.0502 33.75 59.4275 32.084 59.5872 30.3914C59.7702 28.0451 59.4313 25.6879 58.5937 23.4823C57.7562 21.2767 56.4401 19.2751 54.7361 17.6157C54.2532 17.1209 51.9624 17.9785 52.4902 18.4842C54.66 20.6593 56.162 23.3875 56.8251 26.3577C57.4883 29.328 57.2858 32.4209 56.2408 35.284C56.0612 35.8557 55.8478 36.3835 55.612 36.9662C55.3521 37.4006 55.1412 37.8614 54.9831 38.3405C54.8933 38.9342 55.4548 39.6599 55.6794 40.2536C56.0138 41.1533 56.2473 42.0861 56.3756 43.0353C56.8267 46.0642 56.4986 49.1554 55.4211 52.0288C53.6747 56.2637 50.5059 59.789 46.4375 62.023C45.7413 62.4298 45.0226 62.7816 44.2927 63.1224C43.1697 63.6941 43.0125 64.8486 42.2601 65.8491C41.5368 66.7823 40.6273 67.5617 39.5868 68.1401C38.5463 68.7184 37.3965 69.0836 36.2074 69.2135C35.3652 69.3344 34.5455 69.3014 33.7032 69.3564C32.2434 69.4443 31.9851 70.203 31.0868 71.1265C29.3562 72.6692 27.1532 73.6085 24.8207 73.7982C23.4681 73.9572 22.1067 74.0343 20.7444 74.0291C19.5092 74.0291 18.8803 74.7107 17.7798 75.1285C15.8002 75.7443 13.7033 75.9097 11.6485 75.6123C8.54918 75.2605 5.30385 74.095 3.70926 71.2914C2.91861 69.7979 2.57106 68.1174 2.70603 66.4404C2.84099 64.7634 3.45307 63.1569 4.47287 61.8031C4.91082 61.2313 5.71934 60.7696 6.08991 60.2089C6.60647 59.4392 6.55033 58.0649 6.79737 57.1413C7.25905 55.6094 7.97206 54.1613 8.90852 52.8534C9.52614 51.8859 9.55983 50.3906 9.94163 49.2802C10.3813 48.4039 10.7058 47.4767 10.9074 46.5205C10.9074 46.0038 10.7726 45.4211 10.7277 44.9153C10.6378 43.6011 10.6378 42.2825 10.7277 40.9683C10.7573 38.0081 11.7093 35.1273 13.4565 32.7113C13.8904 32.1618 14.3921 31.667 14.95 31.238C15.5002 30.8092 16.5109 30.5454 16.9264 30.0066C17.1673 29.4762 17.3226 28.9124 17.3868 28.3354C17.5978 27.5859 17.8604 26.8512 18.1729 26.1365C19.5414 22.9152 22.111 20.3246 25.3597 18.891C25.5843 18.7921 25.865 18.6052 25.8538 18.3413C25.7396 16.4892 25.9407 14.6315 26.449 12.844C26.6867 12.0345 27.0667 11.2718 27.5719 10.5901C27.9233 10.2534 28.1521 9.81304 28.2232 9.33671C28.3922 7.35419 29.0139 5.43419 30.0424 3.71847C30.2591 3.30675 30.559 2.94239 30.9238 2.64756C31.2886 2.35273 31.7108 2.13356 32.1648 2.00331C33.838 1.75043 35.8593 2.91587 37.2742 3.61952C38.084 4.13265 38.9281 4.5918 39.8009 4.99385C40.7666 5.32369 41.8222 5.30168 42.7879 5.69749C44.6954 6.54252 46.3756 7.81112 47.6952 9.40267C49.0262 10.926 50.106 12.6436 50.8956 14.4932C51.4346 15.7466 51.5694 17.5277 52.5913 18.4623C53.0629 18.935 55.3088 18.0445 54.8596 17.5937Z" fill="#13130A"/>
<path d="M27.4151 15.7025C27.4151 15.7025 28.976 14.68 34.0068 13.5036C40.0932 12.0193 45.4946 13.8774 45.2363 12.1842C44.978 10.491 40.8231 6.68692 35.1298 8.08324C29.4364 9.47956 27.6734 12.4151 27.0333 13.3497C26.3932 14.2842 26.1799 16.3182 27.4151 15.7025Z" fill="#9E6642"/>
</g>
<defs>
<clipPath id="clip0_826_2282">
<rect width="66.7593" height="75.8629" fill="white" transform="translate(0.273438 0.925781)"/>
</clipPath>
</defs>
</svg>
