<svg width="71" height="63" viewBox="0 0 71 63" fill="none" xmlns="http://www.w3.org/2000/svg">
<g clip-path="url(#clip0_731_2094)">
<path d="M38.0597 0.64209C33.0597 0.64209 27.7097 0.92209 23.9497 3.64209C20.3497 6.29209 20.1997 9.2121 20.1197 12.9921C19.9222 15.3945 18.99 17.6779 17.4497 19.5321C15.9497 21.5321 13.1097 20.9821 11.6397 21.9421C8.23967 24.1721 7.32966 27.9421 7.12966 30.2521C6.92242 34.1403 7.34108 38.0366 8.36965 41.7921C12.7297 54.2421 18.1197 60.7321 38.4297 62.0121C55.6597 63.0921 68.9097 51.7221 69.7397 34.8821C70.5897 17.6721 60.6297 0.64209 38.0597 0.64209Z" fill="#D48F5D"/>
<path d="M38.5395 0.132467C31.7895 0.132467 20.9694 0.922461 19.3694 9.28246C19.0394 11.0325 19.2695 12.8425 18.9195 14.5825C18.6961 15.5915 18.3326 16.5643 17.8394 17.4725C17.3095 18.4725 16.6195 19.8725 15.5695 20.4725C14.1595 21.2025 12.4395 20.9925 11.0295 21.8125C9.48474 22.7621 8.23479 24.1229 7.41947 25.7425C5.81947 28.8025 5.83945 32.3725 6.14945 35.7425C6.42232 38.8628 7.14306 41.9276 8.28946 44.8425C10.1295 49.4825 12.6795 53.9125 16.8095 56.8425C21.9495 60.5425 28.5195 61.7525 34.6995 62.3525C41.9495 63.0625 49.1695 62.4225 55.6995 58.9925C61.4732 55.9746 66.0139 51.0379 68.5395 45.0325C70.9908 38.7797 71.571 31.9491 70.2095 25.3725C69.1429 19.2598 66.3096 13.5933 62.0595 9.07247C57.2863 4.33949 51.0726 1.33118 44.3994 0.522481C42.4474 0.257716 40.4794 0.127394 38.5095 0.132467C37.8195 0.132467 36.1695 1.13247 37.6095 1.13247C44.4495 1.13247 51.2995 2.87247 56.8295 7.01247C61.4815 10.599 64.9482 15.5011 66.7795 21.0825C70.7794 32.7625 68.8895 47.1525 59.0395 55.3725C54.0407 59.4358 47.7812 61.6284 41.3395 61.5725C37.5575 61.5593 33.786 61.1741 30.0795 60.4225C27.2225 59.9077 24.4454 59.0201 21.8195 57.7825C17.5999 55.6462 14.1963 52.1865 12.1295 47.9325C9.32678 42.69 7.94759 36.8043 8.12946 30.8625C8.25946 27.6925 9.37946 24.1125 12.1295 22.2725C13.3595 21.4525 15.1295 21.6025 16.5095 20.9725C18.0443 20.0986 19.2468 18.7414 19.9295 17.1125C20.7294 15.5908 21.1578 13.9014 21.1795 12.1825C21.1398 10.5292 21.3867 8.88146 21.9095 7.31246C23.3995 3.48246 27.5595 1.93246 31.3295 1.44246C33.4001 1.19908 35.4849 1.09552 37.5695 1.13247C38.2995 1.20247 39.9595 0.132467 38.5395 0.132467Z" fill="#13130A"/>
<path d="M40.6406 10.4521C40.6406 10.3089 40.5837 10.1716 40.4824 10.0703C40.3811 9.96901 40.2438 9.91211 40.1006 9.91211C39.9573 9.91211 39.82 9.96901 39.7187 10.0703C39.6174 10.1716 39.5605 10.3089 39.5605 10.4521C39.5638 10.5814 39.6057 10.7067 39.6806 10.8121L39.9406 11.2721C39.9557 11.3015 39.9786 11.3261 40.0069 11.3434C40.0351 11.3606 40.0675 11.3697 40.1006 11.3697C40.1336 11.3697 40.166 11.3606 40.1942 11.3434C40.2225 11.3261 40.2454 11.3015 40.2606 11.2721L40.5406 10.7821C40.6035 10.6833 40.638 10.5692 40.6406 10.4521Z" fill="#13130A"/>
<path d="M42.9994 9.2025C43.1447 9.05635 43.2263 8.85863 43.2263 8.65251C43.2263 8.4464 43.1447 8.24864 42.9994 8.10249C42.9215 8.03699 42.8314 7.98759 42.7342 7.95714C42.6371 7.92669 42.5349 7.9158 42.4335 7.9251C42.3322 7.93439 42.2336 7.96369 42.1437 8.01131C42.0537 8.05892 41.9741 8.12391 41.9094 8.2025C41.7854 8.33702 41.7113 8.50995 41.6994 8.69249L41.5394 9.41249C41.5294 9.45635 41.5315 9.50209 41.5454 9.54488C41.5592 9.58766 41.5844 9.62593 41.6182 9.65562C41.652 9.68532 41.6931 9.70533 41.7373 9.71358C41.7816 9.72183 41.8272 9.71801 41.8694 9.7025L42.6194 9.4525C42.7664 9.40523 42.8978 9.31881 42.9994 9.2025Z" fill="#13130A"/>
<path d="M43.1992 10.7622C43.2331 10.7131 43.257 10.6577 43.2693 10.5993C43.2817 10.5409 43.2823 10.4807 43.2711 10.422C43.2599 10.3634 43.2372 10.3076 43.2043 10.2578C43.1713 10.2081 43.1288 10.1653 43.0792 10.1321C43.0281 10.1016 42.9714 10.0815 42.9125 10.073C42.8535 10.0645 42.7934 10.0677 42.7358 10.0826C42.6781 10.0975 42.624 10.1237 42.5765 10.1597C42.529 10.1956 42.4891 10.2407 42.4592 10.2922C42.4037 10.3822 42.3759 10.4865 42.3792 10.5922V11.0222C42.3776 11.0475 42.3829 11.0727 42.3945 11.0953C42.4061 11.1178 42.4237 11.1368 42.4452 11.1501C42.4668 11.1635 42.4916 11.1707 42.5169 11.1711C42.5423 11.1714 42.5672 11.1649 42.5892 11.1522L43.0092 10.9421C43.088 10.9009 43.1538 10.8386 43.1992 10.7622Z" fill="#13130A"/>
<path d="M31.6998 10.2721C31.6674 10.1692 31.6135 10.0744 31.5416 9.99394C31.4698 9.91349 31.3816 9.84924 31.283 9.8055C31.1844 9.76176 31.0776 9.73952 30.9697 9.74025C30.8618 9.74098 30.7554 9.76467 30.6573 9.80974C30.5593 9.85481 30.472 9.92024 30.4012 10.0017C30.3305 10.0831 30.2779 10.1786 30.2469 10.282C30.2159 10.3853 30.2072 10.4941 30.2215 10.601C30.2358 10.7079 30.2728 10.8106 30.3298 10.9021C30.4084 11.065 30.5337 11.2008 30.6898 11.2921L31.2898 11.7221C31.3244 11.7531 31.3673 11.7733 31.4131 11.7804C31.459 11.7875 31.506 11.7812 31.5483 11.7621C31.5906 11.7431 31.6265 11.7121 31.6517 11.6731C31.6768 11.634 31.69 11.5886 31.6898 11.5421L31.7698 10.7521C31.7961 10.5887 31.7716 10.4212 31.6998 10.2721Z" fill="#13130A"/>
<path d="M35.2309 13.0021C35.1493 12.8177 35.0003 12.6715 34.8144 12.5934C34.6285 12.5153 34.4197 12.5113 34.2309 12.5821C34.0467 12.6764 33.9068 12.8392 33.8413 13.0356C33.7759 13.2319 33.7901 13.4461 33.8809 13.6321C33.9606 13.795 34.0902 13.9281 34.2509 14.0121L34.8409 14.4421C34.8755 14.473 34.9184 14.4933 34.9642 14.5004C35.0101 14.5075 35.0571 14.5011 35.0994 14.4821C35.1418 14.463 35.1777 14.4321 35.2028 14.393C35.2279 14.354 35.2412 14.3085 35.2409 14.2621L35.3209 13.4721C35.3339 13.3102 35.3028 13.1478 35.2309 13.0021Z" fill="#13130A"/>
<path d="M37.2897 13.4125C37.1935 13.5959 37.1731 13.8097 37.2329 14.0079C37.2928 14.2062 37.4281 14.373 37.6097 14.4725C37.7946 14.5478 38.0014 14.5494 38.1874 14.4768C38.3735 14.4043 38.5246 14.2632 38.6097 14.0825C38.6862 13.917 38.7106 13.7322 38.6797 13.5525V12.8125C38.6802 12.767 38.6678 12.7224 38.6439 12.6837C38.62 12.6451 38.5857 12.614 38.5448 12.5941C38.504 12.5742 38.4583 12.5663 38.4131 12.5713C38.368 12.5763 38.3252 12.5941 38.2897 12.6225L37.6297 13.0625C37.4849 13.1439 37.3669 13.2654 37.2897 13.4125Z" fill="#13130A"/>
<path d="M40.3701 7.20242C40.3471 7.14201 40.3125 7.08671 40.2682 7.0397C40.2238 6.99268 40.1706 6.95487 40.1117 6.9284C40.0527 6.90194 39.9891 6.88735 39.9245 6.88546C39.8599 6.88358 39.7955 6.89443 39.7351 6.91742C39.6747 6.9404 39.6194 6.97506 39.5724 7.01941C39.5254 7.06375 39.4876 7.11693 39.4611 7.1759C39.4347 7.23486 39.4201 7.29846 39.4182 7.36306C39.4163 7.42767 39.4271 7.49202 39.4501 7.55243C39.4952 7.6622 39.5717 7.75615 39.6701 7.82241L40.0401 8.13241C40.0605 8.1544 40.087 8.16979 40.1162 8.17657C40.1454 8.18335 40.176 8.18123 40.204 8.17047C40.232 8.1597 40.2561 8.14078 40.2732 8.11618C40.2904 8.09157 40.2997 8.06239 40.3001 8.03241L40.3901 7.52243C40.4131 7.41596 40.4062 7.30519 40.3701 7.20242Z" fill="#13130A"/>
<path d="M38.6702 8.84223C38.6365 8.74675 38.5838 8.65905 38.5153 8.58448C38.4468 8.50991 38.3639 8.44998 38.2717 8.4083C38.1794 8.36662 38.0796 8.34405 37.9784 8.34196C37.8771 8.33987 37.7766 8.35829 37.6826 8.39613C37.5887 8.43396 37.5034 8.49043 37.4319 8.56211C37.3604 8.63379 37.3042 8.71923 37.2666 8.81324C37.2289 8.90725 37.2108 9.00788 37.2131 9.10911C37.2154 9.21033 37.2382 9.31006 37.2801 9.40223C37.3478 9.56846 37.467 9.70864 37.6201 9.80222L38.2002 10.2622C38.2335 10.2922 38.2745 10.3123 38.3187 10.3202C38.3628 10.3281 38.4083 10.3235 38.45 10.3068C38.4916 10.2901 38.5278 10.2621 38.5543 10.226C38.5809 10.1898 38.5967 10.1469 38.6001 10.1022L38.7201 9.3122C38.7477 9.15394 38.7304 8.99115 38.6702 8.84223Z" fill="#13130A"/>
<path d="M37.2601 12.0125C37.3419 11.9436 37.4081 11.8581 37.4542 11.7616C37.5003 11.6651 37.5252 11.5598 37.5272 11.4529C37.5293 11.346 37.5085 11.2399 37.4662 11.1417C37.4238 11.0435 37.361 10.9555 37.2819 10.8835C37.2027 10.8116 37.1091 10.7574 37.0074 10.7246C36.9056 10.6918 36.798 10.6812 36.6917 10.6934C36.5855 10.7056 36.4831 10.7404 36.3914 10.7954C36.2997 10.8505 36.2208 10.9245 36.1601 11.0125C36.0296 11.1436 35.9513 11.3178 35.9401 11.5025L35.7601 12.2225C35.7501 12.2663 35.7522 12.3121 35.7661 12.3548C35.7799 12.3976 35.8051 12.4359 35.8389 12.4656C35.8727 12.4953 35.9138 12.5153 35.958 12.5235C36.0023 12.5318 36.0479 12.528 36.0901 12.5125L36.8501 12.2825C37.0109 12.2359 37.1538 12.1418 37.2601 12.0125Z" fill="#13130A"/>
<path d="M33.3895 6.91214C33.2275 6.83148 33.0402 6.81772 32.8681 6.87384C32.696 6.92996 32.5529 7.05147 32.4695 7.21216C32.3995 7.37795 32.3982 7.56472 32.4656 7.73154C32.5331 7.89836 32.664 8.03162 32.8295 8.10215C32.9771 8.16767 33.1415 8.18518 33.2995 8.15216L33.9395 8.10215C33.9785 8.10124 34.0165 8.0895 34.0492 8.06821C34.0819 8.04692 34.1081 8.01694 34.1247 7.98163C34.1413 7.94633 34.1477 7.90709 34.1433 7.86832C34.1388 7.82955 34.1237 7.79278 34.0995 7.76215L33.6995 7.19214C33.624 7.07203 33.5167 6.97513 33.3895 6.91214Z" fill="#13130A"/>
<path d="M34.3198 9.70246C34.3185 9.63154 34.3033 9.56157 34.275 9.49655C34.2466 9.43154 34.2057 9.37274 34.1547 9.32352C34.1036 9.2743 34.0433 9.23564 33.9773 9.20972C33.9113 9.1838 33.8408 9.17113 33.7699 9.17246C33.6993 9.17747 33.6304 9.19656 33.5673 9.22861C33.5042 9.26066 33.4482 9.30504 33.4025 9.3591C33.3568 9.41316 33.3224 9.47581 33.3014 9.54337C33.2803 9.61093 33.273 9.68201 33.2798 9.75244C33.2891 9.87907 33.3342 10.0005 33.4098 10.1025L33.6898 10.5324C33.7043 10.5596 33.7259 10.5824 33.7524 10.5982C33.7788 10.6141 33.809 10.6225 33.8398 10.6225C33.8706 10.6225 33.9009 10.6141 33.9273 10.5982C33.9537 10.5824 33.9754 10.5596 33.9899 10.5324L34.2399 10.0425C34.3065 9.94242 34.3349 9.82172 34.3198 9.70246Z" fill="#13130A"/>
<path d="M36.6496 8.20212C36.8048 8.07746 36.9041 7.89627 36.9256 7.69842C36.9472 7.50057 36.8893 7.30227 36.7646 7.14712C36.64 6.99197 36.4588 6.89269 36.2609 6.87112C36.0631 6.84955 35.8648 6.90745 35.7096 7.0321C35.5654 7.14543 35.4632 7.30389 35.4196 7.48211L35.1396 8.16211C35.1183 8.20378 35.1096 8.25079 35.1147 8.29733C35.1197 8.34387 35.1383 8.3879 35.168 8.42404C35.1978 8.46017 35.2374 8.48683 35.2822 8.5007C35.3269 8.51457 35.3747 8.51505 35.4196 8.5021L36.1996 8.38211C36.3646 8.37008 36.5218 8.3072 36.6496 8.20212Z" fill="#13130A"/>
<path d="M27.6009 29.6421C28.4127 29.6421 29.0709 28.984 29.0709 28.1721C29.0709 27.3603 28.4127 26.7021 27.6009 26.7021C26.789 26.7021 26.1309 27.3603 26.1309 28.1721C26.1309 28.984 26.789 29.6421 27.6009 29.6421Z" fill="#1D1D1B"/>
<path d="M35.0891 30.2525C35.901 30.2525 36.5591 29.5944 36.5591 28.7825C36.5591 27.9706 35.901 27.3125 35.0891 27.3125C34.2773 27.3125 33.6191 27.9706 33.6191 28.7825C33.6191 29.5944 34.2773 30.2525 35.0891 30.2525Z" fill="#1D1D1B"/>
<path d="M22.5392 5.02246C22.5392 5.53246 22.3592 8.45245 23.6392 10.1725C24.4929 11.365 24.9676 12.787 25.0015 14.2532C25.0354 15.7194 24.6269 17.1618 23.8292 18.3925C21.9292 21.6225 22.3591 25.7424 17.9691 26.3224C13.5791 26.9024 10.6591 24.3224 8.86914 24.6624C8.86914 24.6624 9.75914 22.6624 13.1491 21.0324C16.5391 19.4024 17.6991 17.7325 17.8691 14.3025C18.0391 10.8725 20.6092 7.00246 22.5392 5.02246Z" fill="#7E3E27"/>
<path d="M21.7008 5.50218L21.5408 5.2022C21.4554 6.2734 21.5261 7.35135 21.7508 8.40221C22.0808 9.83221 23.0508 10.8322 23.5508 12.1822C24.158 13.7936 24.158 15.5708 23.5508 17.1822C23.0308 18.5922 22.2108 19.8622 21.7108 21.3022C21.3947 22.4984 20.8954 23.6386 20.2308 24.6822C19.2908 25.9322 17.8608 26.0322 16.3808 25.8722C13.9608 25.6222 11.6208 23.8722 9.1708 24.2022L10.0708 24.5522C10.8592 23.2445 12.0182 22.2004 13.4008 21.5522C15.2208 20.5522 17.1008 19.6622 18.1608 17.8022C19.2208 15.9422 18.9108 13.6522 19.5608 11.6222C20.3782 9.1364 21.7454 6.8668 23.5608 4.98219C23.9308 4.61219 23.2508 4.48218 23.0108 4.47218C22.4773 4.47008 21.9627 4.67017 21.5708 5.03218C19.8283 6.83107 18.4677 8.96385 17.5708 11.3022C17.1527 12.5126 16.9004 13.7741 16.8208 15.0522C16.7673 16.0509 16.5086 17.0279 16.0608 17.9222C14.9108 20.0722 12.3908 20.7022 10.5208 22.0222C9.41192 22.7203 8.49703 23.6867 7.8608 24.8322C7.6608 25.2622 8.64081 25.2022 8.77081 25.1822C9.60436 25.2604 10.4137 25.5052 11.1508 25.9022C12.3285 26.3744 13.5566 26.7099 14.8108 26.9022C17.1308 27.1922 19.9108 26.9022 21.6708 25.2022C23.1808 23.7422 23.5308 21.5422 24.3008 19.6722C24.9714 18.4379 25.5303 17.1461 25.9708 15.8122C26.2684 14.5214 26.2132 13.1743 25.8108 11.9122C25.3708 10.5422 24.3508 9.51219 23.9808 8.13219C23.7152 7.08081 23.6174 5.99409 23.6908 4.91219C23.6996 4.8773 23.701 4.84097 23.695 4.8055C23.689 4.77002 23.6758 4.73618 23.656 4.7061C23.6363 4.67602 23.6105 4.65036 23.5803 4.63075C23.5502 4.61115 23.5163 4.59804 23.4808 4.59221C23.2226 4.52849 22.9543 4.51688 22.6916 4.55809C22.4289 4.5993 22.1771 4.69249 21.9508 4.8322C21.6908 4.9122 21.2108 5.33218 21.7008 5.50218Z" fill="#13130A"/>
<path d="M31.5401 33.5423H31.0701C30.5069 33.5309 29.9554 33.3785 29.4663 33.099C28.9771 32.8195 28.5659 32.4218 28.2701 31.9423C28.2171 31.8203 28.2147 31.6822 28.2634 31.5585C28.3122 31.4347 28.4081 31.3354 28.5301 31.2823C28.6521 31.2293 28.7902 31.2269 28.914 31.2756C29.0377 31.3244 29.1371 31.4203 29.1901 31.5423C29.1901 31.5423 29.6001 32.3423 31.1901 32.5423C31.8073 32.6169 32.4315 32.4794 32.9601 32.1523C33.0675 32.0741 33.2016 32.0417 33.3329 32.0623C33.4642 32.083 33.5819 32.1549 33.6601 32.2623C33.7383 32.3697 33.7707 32.5038 33.7501 32.6351C33.7294 32.7664 33.6575 32.8841 33.5501 32.9623C32.9487 33.3424 32.2516 33.5436 31.5401 33.5423Z" fill="#1D1D1B"/>
<path d="M59.7902 21.9923C59.7902 21.9923 63.3002 35.4923 49.4502 45.7723C39.3202 53.2923 19.4502 52.5723 30.0702 57.6823C39.7002 62.3023 62.2402 56.9823 65.7502 38.0623C68.9402 20.8223 59.3202 18.8523 59.7902 21.9923Z" fill="#BE7B49"/>
<path d="M48.7507 43.7125C49.9441 43.7979 51.1435 43.6864 52.3007 43.3824C54.7301 42.8341 56.9658 41.6385 58.7707 39.9224C60.1364 38.5592 61.2443 36.9601 62.0407 35.2024C62.2207 34.8224 61.3007 34.9324 61.1707 34.9524C60.7907 35.0224 60.0907 35.1724 59.9007 35.5724C58.7969 38.1071 56.9395 40.2405 54.5807 41.6825C54.4107 41.7825 54.2207 41.8725 54.0307 41.9625C53.8567 42.0554 53.6763 42.1356 53.4907 42.2024L52.8807 42.4224C53.1207 42.3424 52.8107 42.4224 52.7507 42.4224L52.4007 42.5124H52.2507H52.0707L51.5307 42.6024C51.3407 42.6024 51.7407 42.6024 51.4807 42.6024H51.2907H50.8407H50.1507C49.6089 42.5604 49.0689 42.7051 48.6207 43.0124C48.2707 43.2524 48.3307 43.4725 48.7507 43.5225V43.7125Z" fill="#1D1D1B"/>
<path d="M60.9706 37.7523C62.2575 37.7523 63.3006 36.7091 63.3006 35.4223C63.3006 34.1355 62.2575 33.0923 60.9706 33.0923C59.6838 33.0923 58.6406 34.1355 58.6406 35.4223C58.6406 36.7091 59.6838 37.7523 60.9706 37.7523Z" fill="#1D1D1B"/>
<path d="M12.5403 37.5826C12.2322 37.5762 11.9248 37.5494 11.6202 37.5025C11.8602 37.5025 11.6202 37.5025 11.5302 37.5025H11.3102C11.1102 37.5025 10.9203 37.4225 10.7303 37.3825C10.3203 37.2825 9.92024 37.1625 9.53024 37.0325C7.38347 36.3147 5.59386 34.8007 4.53024 32.8026C3.7315 31.1452 3.33738 29.3219 3.38025 27.4826C3.38025 27.0926 1.20026 27.4125 1.20026 28.0625C1.13839 29.5554 1.40143 31.0439 1.97119 32.4252C2.54096 33.8064 3.40385 35.0475 4.50024 36.0625C6.01797 37.293 7.83781 38.0942 9.77026 38.3825C10.2126 38.4643 10.6606 38.5111 11.1103 38.5226C11.6536 38.5485 12.1917 38.4052 12.6502 38.1126C12.9602 37.8926 12.9603 37.6126 12.5103 37.6026L12.5403 37.5826Z" fill="#1D1D1B"/>
<path d="M2.33 30.0423C3.61682 30.0423 4.66 28.9991 4.66 27.7123C4.66 26.4255 3.61682 25.3823 2.33 25.3823C1.04318 25.3823 0 26.4255 0 27.7123C0 28.9991 1.04318 30.0423 2.33 30.0423Z" fill="#1D1D1B"/>
</g>
<defs>
<clipPath id="clip0_731_2094">
<rect width="70.9" height="62.44" fill="white" transform="translate(0 0.132324)"/>
</clipPath>
</defs>
</svg>
