<svg width="74" height="66" viewBox="0 0 74 66" fill="none" xmlns="http://www.w3.org/2000/svg">
<g clip-path="url(#clip0_731_2054)">
<path d="M61.0016 46.1721C63.0902 47.2357 64.7881 48.9336 65.8516 51.0221C66.3115 51.9744 66.5605 53.0148 66.5816 54.0721C66.5816 54.4021 68.7716 54.0721 68.7616 53.4921C68.6916 50.2321 66.3916 47.5521 63.7616 45.8621C63.5316 45.7221 63.2916 45.5721 63.0516 45.4421C62.5834 45.3177 62.0859 45.3674 61.6516 45.5821C61.5616 45.5821 60.6516 46.0121 61.0016 46.1721Z" fill="#1D1D1B"/>
<path d="M67.6799 57.2021C68.79 57.2021 69.6899 56.3022 69.6899 55.1921C69.6899 54.082 68.79 53.1821 67.6799 53.1821C66.5698 53.1821 65.6699 54.082 65.6699 55.1921C65.6699 56.3022 66.5698 57.2021 67.6799 57.2021Z" fill="#1D1D1B"/>
<path d="M9.08167 42.3022C8.29877 42.5211 7.54629 42.8369 6.84168 43.2422C5.29164 44.0712 3.96417 45.2615 2.97167 46.7122C2.26326 47.7904 1.76141 48.9907 1.49167 50.2522C1.37167 50.7822 2.10167 51.0222 2.49167 50.9822C2.75797 50.9762 3.01575 50.8871 3.22906 50.7276C3.44237 50.5681 3.60059 50.346 3.68168 50.0922C3.89289 49.1506 4.25417 48.2491 4.75167 47.4222L4.85168 47.2722C4.92168 47.1522 4.77168 47.3822 4.85168 47.2722L5.02167 47.0222C5.15167 46.8422 5.30168 46.6522 5.45168 46.4822C5.60168 46.3122 5.71168 46.1822 5.84168 46.0422L6.06168 45.8222C6.06168 45.8222 6.17168 45.7122 6.06168 45.8222C5.95168 45.9322 6.11167 45.8222 6.13167 45.7622C6.41497 45.5093 6.71209 45.2723 7.02167 45.0522L7.42167 44.7822C7.48117 44.7365 7.54478 44.6963 7.61167 44.6622C7.31167 44.8022 7.61167 44.6622 7.61167 44.6622C8.05443 44.405 8.5157 44.1811 8.99167 43.9922H8.89167L9.02167 43.9422L9.23168 43.8722L9.41167 43.8222C9.84167 43.7122 10.4117 43.3022 10.2917 42.8222C10.1717 42.3422 9.43167 42.2522 9.00167 42.3522L9.08167 42.3022Z" fill="#1D1D1B"/>
<path d="M2.39086 53.5722C3.50095 53.5722 4.40086 52.6723 4.40086 51.5622C4.40086 50.4522 3.50095 49.5522 2.39086 49.5522C1.28077 49.5522 0.380859 50.4522 0.380859 51.5622C0.380859 52.6723 1.28077 53.5722 2.39086 53.5722Z" fill="#1D1D1B"/>
<path d="M62.2304 14.8819C65.0404 18.7919 72.2304 13.8219 72.1704 25.0319C72.1704 33.0319 60.1704 31.8619 64.4904 36.3319C66.5904 38.4819 70.0204 42.7719 64.1304 47.8719C60.3904 51.1019 62.7504 59.2919 53.8604 57.8719C39.0504 55.5319 49.1704 65.0819 35.3004 64.6319C13.6304 63.9119 27.3004 54.3519 15.8404 55.9919C2.1304 57.9919 12.1204 39.7119 5.5704 39.8519C1.1804 39.9519 2.57039 24.5519 6.92039 25.4919C11.2704 26.4319 11.9904 20.8419 10.5304 19.2619C5.63039 13.9319 10.4004 6.13187 15.9904 7.78187C21.2504 9.33187 16.1804 0.781872 25.6704 0.971872C33.9104 1.11187 31.6204 7.32189 36.1604 7.39189C40.7004 7.46189 38.4804 -0.158119 50.4804 2.01188C52.3971 2.10691 54.2459 2.75145 55.8063 3.86854C57.3667 4.98563 58.5727 6.52809 59.2804 8.31187C61.3704 13.2519 62.2304 14.8819 62.2304 14.8819Z" fill="#EDBA75"/>
<path d="M61.2405 15.3722C62.3208 16.6294 63.8493 17.4152 65.5005 17.5622C66.9805 17.8322 68.5905 17.9822 69.6305 19.2022C71.1905 21.0222 71.4905 24.6422 70.8405 26.8622C70.2805 28.7822 68.6604 29.9822 66.9804 30.8622C65.6304 31.5922 63.8805 32.1822 62.9105 33.4322C61.9405 34.6822 62.9104 36.1022 63.8504 37.1622C65.4804 38.9222 66.8505 41.1622 66.0605 43.6722C65.4805 45.4122 64.1305 46.4722 62.9105 47.7522C62.2663 48.4656 61.7549 49.2886 61.4005 50.1822C60.6505 51.9522 60.4005 54.0222 59.2405 55.6122C57.6505 57.8822 54.7905 57.0322 52.4705 56.7822C50.1505 56.5322 47.7005 56.4222 45.6705 57.5422C44.5103 58.2783 43.6003 59.3487 43.0605 60.6122C42.8165 61.2063 42.4564 61.7458 42.0014 62.1991C41.5464 62.6524 41.0055 63.0104 40.4105 63.2522C37.5605 64.2522 34.0105 63.8022 31.0905 63.4422C28.1705 63.0822 23.8704 62.4422 22.8204 59.0722C22.1904 57.0722 21.9505 55.4022 19.5305 55.0722C16.3305 54.5722 11.6305 56.8422 9.84046 52.9622C8.43046 49.9122 9.39046 46.2022 9.15046 42.9622C9.18102 42.3337 9.07327 41.7062 8.83482 41.1239C8.59637 40.5416 8.23304 40.0187 7.77046 39.5922C6.67046 38.7922 5.48046 39.4622 4.77046 38.1822C3.87046 36.5622 3.92047 34.3422 4.06047 32.5522C4.09346 30.5852 4.64169 28.6612 5.65046 26.9722C5.79808 26.76 5.97674 26.5712 6.18046 26.4122C6.34046 26.3122 6.31047 26.3422 6.56047 26.4122C7.73828 26.6386 8.95817 26.4477 10.0105 25.8722C10.8657 25.2836 11.5304 24.4581 11.923 23.4971C12.3156 22.536 12.419 21.4812 12.2205 20.4622C12.0205 19.2422 11.2205 18.5722 10.5605 17.5522C9.76231 16.2553 9.44714 14.7185 9.67045 13.2122C10.0605 10.6522 12.2305 8.03219 15.0505 8.55219C16.6605 8.85219 18.3405 9.23219 19.4105 7.61219C20.2005 6.43219 20.1505 4.89219 20.8805 3.67219C22.1205 1.61219 25.2004 1.67219 27.2604 2.05219C29.5504 2.45219 30.7205 3.80219 31.8705 5.67219C32.2399 6.42993 32.806 7.07461 33.5096 7.53898C34.2132 8.00334 35.0285 8.27036 35.8705 8.31217C36.6068 8.33134 37.3376 8.1797 38.0056 7.86915C38.6736 7.55859 39.2605 7.09757 39.7205 6.52219C40.4778 5.3994 41.3902 4.38939 42.4305 3.52219C44.5505 2.13219 47.3605 2.52218 49.7205 2.85218L50.4305 2.9322H50.6105L51.0905 2.99219C51.9533 3.11648 52.7926 3.36928 53.5805 3.74219C56.7605 5.21219 57.9705 8.1622 59.3005 11.1822C59.9205 12.6022 60.5305 14.0322 61.2505 15.4022C61.7305 16.3322 63.7805 15.4822 63.2505 14.4022C60.9405 9.9722 59.9205 4.66218 55.0505 2.29218C53.6434 1.67832 52.1418 1.30967 50.6105 1.20218C47.8605 0.842184 45.1005 0.492168 42.4505 1.59217C40.9326 2.28315 39.6324 3.37585 38.6905 4.75217C37.9205 5.75217 37.3805 6.67219 36.2005 6.58219C34.4905 6.45219 33.8804 4.48218 33.0104 3.29218C32.2524 2.32721 31.2852 1.54684 30.1818 1.00986C29.0784 0.472887 27.8676 0.193304 26.6405 0.192174C24.1505 0.0521744 21.2705 0.342189 19.5105 2.33219C18.4105 3.57219 18.2905 5.10218 17.7005 6.57218C17.6371 6.76741 17.5461 6.95259 17.4305 7.12217C17.3705 7.19217 17.4305 7.17217 17.2805 7.12217C16.061 6.84549 14.8093 6.73783 13.5605 6.80219C12.2534 7.05795 11.0375 7.65532 10.0363 8.53357C9.03504 9.41183 8.28432 10.5396 7.86045 11.8022C7.38576 13.1648 7.2958 14.6318 7.60046 16.0422C7.95046 17.6322 8.87045 18.6322 9.72045 19.9422C10.5705 21.2522 10.1105 24.6122 8.12046 24.7522C7.12046 24.8222 6.32046 24.4522 5.33046 24.9422C4.61663 25.3195 4.02128 25.8871 3.61045 26.5822C2.57247 28.4188 1.98313 30.4746 1.89045 32.5822C1.62267 34.6061 1.84913 36.6648 2.55046 38.5822C2.81449 39.2827 3.28976 39.8837 3.91046 40.3022C4.55161 40.5472 5.22566 40.6955 5.91046 40.7422C6.91046 41.0522 7.00046 42.5822 7.04046 43.5422C7.13046 45.3122 6.96046 47.0822 7.04046 48.8622C7.04046 52.5222 8.11047 56.1422 12.2005 56.8622C14.3605 57.2422 16.4505 56.4822 18.5905 56.6722C19.5905 56.7622 19.9905 57.0322 20.2605 57.7722C20.5305 58.5122 20.6705 59.5822 21.0605 60.4422C21.6529 61.6923 22.6452 62.7093 23.8805 63.3322C26.1724 64.4263 28.6551 65.0648 31.1905 65.2122C34.3005 65.5422 37.8205 65.8922 40.8605 64.9022C42.5197 64.4066 43.9283 63.2983 44.8005 61.8022C45.3805 60.8022 45.8005 59.5822 46.8005 58.9422C48.9605 57.6022 52.2204 58.6122 54.5104 58.8222C56.8004 59.0322 59.4605 58.5722 61.0505 56.5822C62.3205 54.9922 62.7105 52.9422 63.4005 51.0822C63.7029 50.1413 64.1965 49.2732 64.8504 48.5322C66.1923 47.3869 67.3023 45.9952 68.1205 44.4322C68.5797 43.241 68.7087 41.9478 68.494 40.6894C68.2793 39.4309 67.7287 38.2537 66.9005 37.2822C66.1805 36.5741 65.5277 35.8008 64.9505 34.9722C64.7205 34.5122 64.7604 34.2922 65.0404 33.9722C65.5572 33.5445 66.129 33.188 66.7405 32.9122C67.6571 32.4672 68.5454 31.9663 69.4005 31.4122C70.3216 30.869 71.1246 30.1467 71.7618 29.2879C72.399 28.4291 72.8576 27.4513 73.1105 26.4122C73.6004 23.9822 73.2604 20.5422 71.7604 18.4822C70.6344 17.1369 69.0262 16.2861 67.2805 16.1122C65.7905 15.8322 64.1705 15.7222 63.1905 14.4222C62.5805 13.5422 60.5305 14.4322 61.2405 15.3722Z" fill="#13130A"/>
<path d="M15.541 16.4023C15.2758 16.4023 15.0214 16.297 14.8339 16.1094C14.6464 15.9219 14.541 15.6676 14.541 15.4023C14.541 15.1371 14.6464 14.8828 14.8339 14.6952C15.0214 14.5077 15.2758 14.4023 15.541 14.4023H55.611C55.8762 14.4023 56.1306 14.5077 56.3181 14.6952C56.5057 14.8828 56.611 15.1371 56.611 15.4023C56.611 15.6676 56.5057 15.9219 56.3181 16.1094C56.1306 16.297 55.8762 16.4023 55.611 16.4023H15.531H15.541Z" fill="#D28850"/>
<path d="M16.1016 24.8623C15.8363 24.8623 15.582 24.7569 15.3945 24.5694C15.2069 24.3819 15.1016 24.1275 15.1016 23.8623C15.1016 23.5971 15.2069 23.3427 15.3945 23.1552C15.582 22.9676 15.8363 22.8623 16.1016 22.8623H56.1716C56.4368 22.8623 56.6911 22.9676 56.8787 23.1552C57.0662 23.3427 57.1716 23.5971 57.1716 23.8623C57.1716 24.1275 57.0662 24.3819 56.8787 24.5694C56.6911 24.7569 56.4368 24.8623 56.1716 24.8623H16.1016Z" fill="#D28850"/>
<path d="M15.0918 33.4219C14.8266 33.4219 14.5722 33.3165 14.3847 33.129C14.1972 32.9414 14.0918 32.6871 14.0918 32.4219C14.0918 32.1567 14.1972 31.9023 14.3847 31.7148C14.5722 31.5272 14.8266 31.4219 15.0918 31.4219H55.1618C55.427 31.4219 55.6814 31.5272 55.8689 31.7148C56.0564 31.9023 56.1618 32.1567 56.1618 32.4219C56.1618 32.6871 56.0564 32.9414 55.8689 33.129C55.6814 33.3165 55.427 33.4219 55.1618 33.4219H15.0918Z" fill="#D28850"/>
<path d="M14.7402 41.9419C14.475 41.9419 14.2207 41.8366 14.0331 41.649C13.8456 41.4615 13.7402 41.2071 13.7402 40.9419C13.7402 40.6767 13.8456 40.4223 14.0331 40.2348C14.2207 40.0473 14.475 39.9419 14.7402 39.9419H54.8102C55.0755 39.9419 55.3298 40.0473 55.5173 40.2348C55.7049 40.4223 55.8102 40.6767 55.8102 40.9419C55.8102 41.2071 55.7049 41.4615 55.5173 41.649C55.3298 41.8366 55.0755 41.9419 54.8102 41.9419H14.7402Z" fill="#D28850"/>
<path d="M12.791 50.562C12.5258 50.562 12.2714 50.4567 12.0839 50.2691C11.8964 50.0816 11.791 49.8272 11.791 49.562C11.791 49.2968 11.8964 49.0425 12.0839 48.8549C12.2714 48.6674 12.5258 48.562 12.791 48.562H52.861C53.1262 48.562 53.3806 48.6674 53.5681 48.8549C53.7557 49.0425 53.861 49.2968 53.861 49.562C53.861 49.8272 53.7557 50.0816 53.5681 50.2691C53.3806 50.4567 53.1262 50.562 52.861 50.562H12.791Z" fill="#D28850"/>
<path d="M49.5211 53.1322H49.4311C49.1673 53.1093 48.9234 52.9828 48.7528 52.7803C48.5823 52.5779 48.4989 52.316 48.5211 52.0522L51.8911 12.1222C51.9136 11.857 52.0406 11.6116 52.2441 11.44C52.4476 11.2684 52.7109 11.1847 52.9761 11.2072C53.2413 11.2298 53.4867 11.3567 53.6583 11.5602C53.8299 11.7637 53.9136 12.027 53.8911 12.2922L50.5111 52.2222C50.4887 52.4698 50.3749 52.7002 50.1919 52.8684C50.0089 53.0367 49.7697 53.1307 49.5211 53.1322Z" fill="#D28850"/>
<path d="M41.0309 53.6923H40.9409C40.6771 53.6694 40.4332 53.5428 40.2626 53.3404C40.092 53.1379 40.0087 52.8761 40.0309 52.6123L43.4109 12.6823C43.422 12.551 43.4589 12.4231 43.5195 12.3061C43.5801 12.189 43.6631 12.085 43.7639 12.0001C43.8646 11.9151 43.9811 11.8508 44.1067 11.8109C44.2323 11.7709 44.3645 11.7561 44.4959 11.7673C44.6272 11.7784 44.755 11.8154 44.8721 11.8759C44.9891 11.9365 45.0931 12.0195 45.1781 12.1203C45.263 12.221 45.3273 12.3375 45.3673 12.4631C45.4072 12.5887 45.422 12.7209 45.4109 12.8523L42.0309 52.7723C42.0107 53.0234 41.8965 53.2576 41.7111 53.4282C41.5257 53.5988 41.2828 53.6931 41.0309 53.6923Z" fill="#D28850"/>
<path d="M32.4701 53.252H32.3901C32.1263 53.2291 31.8824 53.1025 31.7119 52.9001C31.5413 52.6976 31.4579 52.4358 31.4801 52.172L34.8201 12.652C34.8312 12.5207 34.8682 12.3928 34.9287 12.2758C34.9893 12.1587 35.0723 12.0548 35.1731 11.9698C35.2738 11.8848 35.3903 11.8205 35.5159 11.7806C35.6415 11.7406 35.7738 11.7258 35.9051 11.737C36.0364 11.7482 36.1642 11.7851 36.2813 11.8456C36.3983 11.9062 36.5023 11.9893 36.5873 12.09C36.6723 12.1908 36.7366 12.3072 36.7765 12.4328C36.8164 12.5584 36.8312 12.6907 36.8201 12.822L33.4801 52.342C33.4574 52.593 33.3408 52.8263 33.1535 52.995C32.9662 53.1638 32.7222 53.2555 32.4701 53.252Z" fill="#D28850"/>
<path d="M23.9918 53.8022H23.9018C23.6381 53.7793 23.3941 53.6527 23.2235 53.4503C23.053 53.2478 22.9696 52.986 22.9918 52.7221L26.3618 12.7922C26.3843 12.5269 26.5113 12.2815 26.7148 12.1099C26.9183 11.9383 27.1816 11.8546 27.4468 11.8771C27.712 11.8997 27.9574 12.0267 28.129 12.2301C28.3006 12.4336 28.3843 12.6969 28.3618 12.9622L24.9818 52.8922C24.9594 53.1398 24.8456 53.3702 24.6626 53.5384C24.4795 53.7066 24.2404 53.8007 23.9918 53.8022Z" fill="#D28850"/>
<path d="M15.6207 53.0122H15.5307C15.2669 52.9893 15.023 52.8628 14.8525 52.6603C14.6819 52.4578 14.5985 52.196 14.6207 51.9322L17.8707 13.4022C17.8812 13.2709 17.9175 13.1429 17.9774 13.0256C18.0374 12.9083 18.1199 12.804 18.2202 12.7185C18.3204 12.6331 18.4366 12.5682 18.5619 12.5277C18.6873 12.4872 18.8194 12.4717 18.9507 12.4822C19.082 12.4927 19.21 12.529 19.3273 12.5889C19.4446 12.6489 19.5489 12.7314 19.6344 12.8317C19.7198 12.9319 19.7846 13.0481 19.8252 13.1734C19.8657 13.2988 19.8812 13.4309 19.8707 13.5622L16.6107 52.0122C16.6107 52.2757 16.5067 52.5285 16.3214 52.7158C16.136 52.903 15.8842 53.0096 15.6207 53.0122Z" fill="#D28850"/>
<path d="M14.4805 15.4722C14.2153 15.4722 13.9609 15.3668 13.7734 15.1793C13.5858 14.9918 13.4805 14.7374 13.4805 14.4722C13.4805 14.207 13.5858 13.9526 13.7734 13.7651C13.9609 13.5775 14.2153 13.4722 14.4805 13.4722H54.5505C54.8157 13.4722 55.07 13.5775 55.2576 13.7651C55.4451 13.9526 55.5505 14.207 55.5505 14.4722C55.5505 14.7374 55.4451 14.9918 55.2576 15.1793C55.07 15.3668 54.8157 15.4722 54.5505 15.4722H14.4805Z" fill="#E4A268"/>
<path d="M15.0312 23.9321C14.766 23.9321 14.5117 23.8268 14.3241 23.6392C14.1366 23.4517 14.0312 23.1973 14.0312 22.9321C14.0312 22.6669 14.1366 22.4125 14.3241 22.225C14.5117 22.0375 14.766 21.9321 15.0312 21.9321H55.1012C55.3665 21.9321 55.6208 22.0375 55.8084 22.225C55.9959 22.4125 56.1012 22.6669 56.1012 22.9321C56.1012 23.1973 55.9959 23.4517 55.8084 23.6392C55.6208 23.8268 55.3665 23.9321 55.1012 23.9321H15.0213H15.0312Z" fill="#E4A268"/>
<path d="M14.0312 32.4922C13.766 32.4922 13.5117 32.3868 13.3241 32.1993C13.1366 32.0117 13.0312 31.7574 13.0312 31.4922C13.0312 31.227 13.1366 30.9726 13.3241 30.7851C13.5117 30.5975 13.766 30.4922 14.0312 30.4922H54.1012C54.3665 30.4922 54.6208 30.5975 54.8084 30.7851C54.9959 30.9726 55.1012 31.227 55.1012 31.4922C55.1012 31.7574 54.9959 32.0117 54.8084 32.1993C54.6208 32.3868 54.3665 32.4922 54.1012 32.4922H14.0312Z" fill="#E4A268"/>
<path d="M13.6309 41.0122C13.3656 41.0122 13.1113 40.9068 12.9238 40.7193C12.7362 40.5318 12.6309 40.2774 12.6309 40.0122C12.6309 39.747 12.7362 39.4927 12.9238 39.3051C13.1113 39.1176 13.3656 39.0122 13.6309 39.0122H53.7409C54.0061 39.0122 54.2604 39.1176 54.448 39.3051C54.6355 39.4927 54.7409 39.747 54.7409 40.0122C54.7409 40.2774 54.6355 40.5318 54.448 40.7193C54.2604 40.9068 54.0061 41.0122 53.7409 41.0122H13.6709H13.6309Z" fill="#E4A268"/>
<path d="M11.7402 49.6323C11.475 49.6323 11.2207 49.527 11.0331 49.3394C10.8456 49.1519 10.7402 48.8975 10.7402 48.6323C10.7402 48.3671 10.8456 48.1128 11.0331 47.9252C11.2207 47.7377 11.475 47.6323 11.7402 47.6323H51.8102C52.0755 47.6323 52.3298 47.7377 52.5173 47.9252C52.7049 48.1128 52.8102 48.3671 52.8102 48.6323C52.8102 48.8975 52.7049 49.1519 52.5173 49.3394C52.3298 49.527 52.0755 49.6323 51.8102 49.6323H11.7402Z" fill="#E4A268"/>
<path d="M48.4505 52.202H48.3706C48.1068 52.1791 47.8629 52.0526 47.6923 51.8501C47.5217 51.6477 47.4384 51.3858 47.4605 51.122L50.8305 11.192C50.8531 10.9268 50.9801 10.6814 51.1835 10.5098C51.387 10.3382 51.6503 10.2545 51.9155 10.277C52.1807 10.2996 52.4262 10.4266 52.5978 10.63C52.7693 10.8335 52.8531 11.0968 52.8305 11.362L49.4605 51.292C49.4379 51.5431 49.3213 51.7763 49.134 51.945C48.9467 52.1138 48.7026 52.2056 48.4505 52.202Z" fill="#E4A268"/>
<path d="M39.9703 52.7619H39.8803C39.6166 52.739 39.3726 52.6125 39.2021 52.41C39.0315 52.2076 38.9481 51.9457 38.9703 51.6819L42.3403 11.7519C42.3632 11.4881 42.4898 11.2443 42.6922 11.0737C42.8947 10.9031 43.1565 10.8197 43.4203 10.8419C43.5518 10.852 43.68 10.888 43.7975 10.9478C43.915 11.0076 44.0195 11.0901 44.105 11.1905C44.1905 11.2909 44.2553 11.4072 44.2957 11.5327C44.3361 11.6582 44.3512 11.7905 44.3403 11.9219L40.9603 51.8519C40.9379 52.0995 40.8241 52.3299 40.6411 52.4981C40.4581 52.6664 40.2189 52.7604 39.9703 52.7619Z" fill="#E4A268"/>
<path d="M31.4117 52.312H31.3316C31.2002 52.302 31.072 52.266 30.9545 52.2062C30.837 52.1463 30.7324 52.0639 30.6469 51.9635C30.5614 51.8631 30.4966 51.7468 30.4562 51.6213C30.4159 51.4957 30.4007 51.3635 30.4117 51.2321L33.7416 11.7121C33.7642 11.4469 33.8912 11.2014 34.0946 11.0299C34.2981 10.8583 34.5614 10.7745 34.8266 10.7971C35.0918 10.8196 35.3373 10.9466 35.5088 11.1501C35.6804 11.3535 35.7642 11.6168 35.7416 11.8821L32.4016 51.4021C32.3793 51.6497 32.2655 51.8801 32.0824 52.0483C31.8994 52.2166 31.6603 52.3106 31.4117 52.312Z" fill="#E4A268"/>
<path d="M22.9214 52.872H22.8414C22.71 52.8619 22.5818 52.8259 22.4643 52.7661C22.3468 52.7062 22.2422 52.6238 22.1567 52.5234C22.0712 52.423 22.0064 52.3067 21.966 52.1812C21.9256 52.0556 21.9105 51.9234 21.9214 51.792L25.3014 11.862C25.324 11.5968 25.4509 11.3514 25.6544 11.1798C25.8579 11.0082 26.1212 10.9244 26.3864 10.947C26.6516 10.9695 26.897 11.0965 27.0686 11.3C27.2402 11.5034 27.324 11.7667 27.3014 12.032L23.9314 51.952C23.9112 52.2048 23.7956 52.4405 23.608 52.6113C23.4205 52.7822 23.1751 52.8753 22.9214 52.872Z" fill="#E4A268"/>
<path d="M14.5503 52.012H14.4703C14.3388 52.0019 14.2107 51.9659 14.0932 51.9061C13.9757 51.8462 13.8711 51.7638 13.7856 51.6634C13.7001 51.563 13.6353 51.4467 13.5949 51.3212C13.5546 51.1957 13.5394 51.0634 13.5503 50.932L16.8103 12.402C16.8215 12.2707 16.8584 12.1428 16.919 12.0258C16.9795 11.9087 17.0626 11.8048 17.1633 11.7198C17.2641 11.6348 17.3806 11.5705 17.5062 11.5306C17.6318 11.4906 17.764 11.4758 17.8953 11.487C18.0266 11.4982 18.1545 11.5351 18.2715 11.5956C18.3886 11.6562 18.4926 11.7393 18.5775 11.84C18.6625 11.9408 18.7268 12.0572 18.7667 12.1828C18.8067 12.3084 18.8215 12.4407 18.8103 12.572L15.5603 51.102C15.5377 51.3531 15.421 51.5863 15.2337 51.755C15.0465 51.9238 14.8024 52.0155 14.5503 52.012Z" fill="#E4A268"/>
<path d="M33.1305 39.6219H33.0405C30.9205 39.5419 30.5205 38.2519 30.5005 38.1919C30.4821 38.1289 30.4763 38.0629 30.4834 37.9976C30.4906 37.9323 30.5105 37.8691 30.5421 37.8115C30.5737 37.7539 30.6162 37.7031 30.6674 37.662C30.7186 37.6209 30.7774 37.5903 30.8405 37.5719C30.9677 37.5375 31.1034 37.5536 31.219 37.617C31.3346 37.6804 31.4211 37.7861 31.4605 37.9119C31.4605 37.9119 31.7205 38.5719 33.0805 38.6219C33.6545 38.5885 34.2051 38.3829 34.6605 38.0319C34.7648 37.9626 34.8913 37.9349 35.0151 37.9544C35.1388 37.9739 35.2507 38.0391 35.3287 38.1372C35.4066 38.2353 35.4449 38.359 35.436 38.4839C35.4271 38.6089 35.3716 38.7259 35.2805 38.8119C34.6614 39.2917 33.9122 39.5739 33.1305 39.6219Z" fill="#1D1D1B"/>
<path d="M29.5208 35.1021C30.3326 35.1021 30.9908 34.444 30.9908 33.6321C30.9908 32.8203 30.3326 32.1621 29.5208 32.1621C28.7089 32.1621 28.0508 32.8203 28.0508 33.6321C28.0508 34.444 28.7089 35.1021 29.5208 35.1021Z" fill="#1D1D1B"/>
<path d="M37.011 35.712C37.8229 35.712 38.481 35.0538 38.481 34.242C38.481 33.4301 37.8229 32.772 37.011 32.772C36.1992 32.772 35.541 33.4301 35.541 34.242C35.541 35.0538 36.1992 35.712 37.011 35.712Z" fill="#1D1D1B"/>
</g>
<defs>
<clipPath id="clip0_731_2054">
<rect width="72.97" height="65.43" fill="white" transform="translate(0.380859 0.14209)"/>
</clipPath>
</defs>
</svg>
